<?xml version="1.0"?>
<!DOCTYPE svg PUBLIC "-//W3C//DTD SVG 1.1//EN" "http://www.w3.org/Graphics/SVG/1.1/DTD/svg11.dtd">
<svg width="304.67954666700086mm" height="111.50382976803473mm" viewBox="0 0 304.67954666700086 111.50382976803473" xmlns="http://www.w3.org/2000/svg" version="1.1">
<g id="Sketch001" transform="translate(358.224344,317.745468) scale(1,-1)">
<path id="Sketch001_w0000"  d="M -140.39194074201905 244.58789362680645 L -134.39194074201905 244.58789362680645 L -134.39194074201905 234.58789362680645 L -137.39194074201905 234.58789362680645 L -137.39194074201905 231.58789362680645 L -138.9370549667492 229.01639172470013 L -136.36555306464285 227.47127749996994 L -141.5159338137434 218.89960449294884 L -146.6589376179561 221.98983294240915 L -140.39194074201905 244.58789362680645 " stroke="#000000" stroke-width="0.35 px" style="stroke-width:0.35;stroke-miterlimit:4;stroke-dasharray:none;fill:none;fill-rule: evenodd "/>
<path id="Sketch001_w0001"  d="M -270.14516603141635 249.77366853158588 L -170.14516603141632 249.77366853158588 L -170.14516603141632 209.77366853158588 L -270.14516603141635 209.77366853158588 L -270.14516603141635 249.77366853158588 " stroke="#000000" stroke-width="0.35 px" style="stroke-width:0.35;stroke-miterlimit:4;stroke-dasharray:none;fill:none;fill-rule: evenodd "/>
<path id="Sketch001_w0002"  d="M -236.59516603141634 247.77366853158588 L -233.59516603141634 247.77366853158588 L -233.59516603141634 237.77366853158588 L -236.59516603141634 237.77366853158588 L -236.59516603141634 247.77366853158588 " stroke="#000000" stroke-width="0.35 px" style="stroke-width:0.35;stroke-miterlimit:4;stroke-dasharray:none;fill:none;fill-rule: evenodd "/>
<path id="Sketch001_w0003"  d="M -206.69516603141633 247.77366853158588 L -203.69516603141633 247.77366853158588 L -203.69516603141633 237.77366853158588 L -206.69516603141633 237.77366853158588 L -206.69516603141633 247.77366853158588 " stroke="#000000" stroke-width="0.35 px" style="stroke-width:0.35;stroke-miterlimit:4;stroke-dasharray:none;fill:none;fill-rule: evenodd "/>
<path id="Sketch001_w0004"  d="M -267.14516603141635 242.77366853158588 L -257.14516603141635 242.77366853158588 L -257.14516603141635 239.77366853158588 L -267.14516603141635 239.77366853158588 L -267.14516603141635 242.77366853158588 " stroke="#000000" stroke-width="0.35 px" style="stroke-width:0.35;stroke-miterlimit:4;stroke-dasharray:none;fill:none;fill-rule: evenodd "/>
<path id="Sketch001_w0005"  d="M -267.14516603141635 219.77366853158588 L -257.14516603141635 219.77366853158588 L -257.14516603141635 216.77366853158588 L -267.14516603141635 216.77366853158588 L -267.14516603141635 219.77366853158588 " stroke="#000000" stroke-width="0.35 px" style="stroke-width:0.35;stroke-miterlimit:4;stroke-dasharray:none;fill:none;fill-rule: evenodd "/>
<path id="Sketch001_w0006"  d="M -183.14516603141632 242.77366853158588 L -173.14516603141632 242.77366853158588 L -173.14516603141632 239.77366853158588 L -183.14516603141632 239.77366853158588 L -183.14516603141632 242.77366853158588 " stroke="#000000" stroke-width="0.35 px" style="stroke-width:0.35;stroke-miterlimit:4;stroke-dasharray:none;fill:none;fill-rule: evenodd "/>
<path id="Sketch001_w0007"  d="M -183.14516603141632 219.77366853158588 L -173.14516603141632 219.77366853158588 L -173.14516603141632 216.77366853158588 L -183.14516603141632 216.77366853158588 L -183.14516603141632 219.77366853158588 " stroke="#000000" stroke-width="0.35 px" style="stroke-width:0.35;stroke-miterlimit:4;stroke-dasharray:none;fill:none;fill-rule: evenodd "/>
<path id="Sketch001_w0008"  d="M -353.95876673073707 249.22869267811865 L -297.95876673073707 249.22869267811865 L -297.95876673073707 209.22869267811865 L -353.95876673073707 209.22869267811865 L -353.95876673073707 249.22869267811865 " stroke="#000000" stroke-width="0.35 px" style="stroke-width:0.35;stroke-miterlimit:4;stroke-dasharray:none;fill:none;fill-rule: evenodd "/>
<path id="Sketch001_w0009"  d="M -310.95876673073707 242.22869267811865 L -300.95876673073707 242.22869267811865 L -300.95876673073707 239.22869267811865 L -310.95876673073707 239.22869267811865 L -310.95876673073707 242.22869267811865 " stroke="#000000" stroke-width="0.35 px" style="stroke-width:0.35;stroke-miterlimit:4;stroke-dasharray:none;fill:none;fill-rule: evenodd "/>
<path id="Sketch001_w0010"  d="M -310.95876673073707 219.22869267811865 L -300.95876673073707 219.22869267811865 L -300.95876673073707 216.22869267811865 L -310.95876673073707 216.22869267811865 L -310.95876673073707 219.22869267811865 " stroke="#000000" stroke-width="0.35 px" style="stroke-width:0.35;stroke-miterlimit:4;stroke-dasharray:none;fill:none;fill-rule: evenodd "/>
<path id="Sketch001_w0011"  d="M -79.53185195929615 246.61038947386788 L -59.53185195929615 246.61038947386788 L -59.53185195929615 236.61038947386788 L -56.53185195929615 236.61038947386788 L -56.53185195929615 233.61038947386788 L -67.53185195929615 233.61038947386788 L -67.53185195929615 230.61038947386788 L -64.53185195929615 230.61038947386788 L -64.53185195929615 220.61038947386788 L -69.53185195929615 220.61038947386788 L -89.53185195929615 231.61038947386788 L -89.53185195929615 236.61038947386788 L -79.53185195929615 236.61038947386788 L -79.53185195929615 246.61038947386788 " stroke="#000000" stroke-width="0.35 px" style="stroke-width:0.35;stroke-miterlimit:4;stroke-dasharray:none;fill:none;fill-rule: evenodd "/>
<circle cx="-75.53185195929615" cy="241.21038947386788" r="1.6" stroke="#000000" stroke-width="0.35 px" style="stroke-width:0.35;stroke-miterlimit:4;stroke-dasharray:none;fill:none"/>
<circle cx="-63.53185195929615" cy="241.21038947386788" r="1.6" stroke="#000000" stroke-width="0.35 px" style="stroke-width:0.35;stroke-miterlimit:4;stroke-dasharray:none;fill:none"/>
<path id="Sketch001_w0014"  d="M -335.2372898681205 314.7584136879769 L -299.2372898681205 314.7584136879769 L -299.2372898681205 274.7584136879769 L -319.2372898681205 274.7584136879769 A 35 35 0 0 1 -355.237 301.758L -355.2372898681205 304.7584136879769 L -335.2372898681205 304.7584136879769 L -335.2372898681205 314.7584136879769 " stroke="#000000" stroke-width="0.35 px" style="stroke-width:0.35;stroke-miterlimit:4;stroke-dasharray:none;fill:none;fill-rule: evenodd "/>
<path id="Sketch001_w0015"  d="M -312.2372898681205 307.7584136879769 L -302.2372898681205 307.7584136879769 L -302.2372898681205 304.7584136879769 L -312.2372898681205 304.7584136879769 L -312.2372898681205 307.7584136879769 " stroke="#000000" stroke-width="0.35 px" style="stroke-width:0.35;stroke-miterlimit:4;stroke-dasharray:none;fill:none;fill-rule: evenodd "/>
<path id="Sketch001_w0016"  d="M -312.2372898681205 284.7584136879769 L -302.2372898681205 284.7584136879769 L -302.2372898681205 281.7584136879769 L -312.2372898681205 281.7584136879769 L -312.2372898681205 284.7584136879769 " stroke="#000000" stroke-width="0.35 px" style="stroke-width:0.35;stroke-miterlimit:4;stroke-dasharray:none;fill:none;fill-rule: evenodd "/>
<path id="Sketch001_w0017"  d="M -81.02490092080282 284.2419270193643 L -61.02490092080282 284.2419270193643 L -61.02490092080282 274.2419270193643 L -58.02490092080282 274.2419270193643 L -58.02490092080282 271.2419270193643 L -61.02490092080282 271.2419270193643 L -61.02490092080282 268.2419270193643 L -58.02490092080282 268.2419270193643 L -58.02490092080282 258.2419270193643 L -63.02490092080282 258.2419270193643 L -91.02490092080282 269.2419270193643 L -91.02490092080282 274.2419270193643 L -81.02490092080282 274.2419270193643 L -81.02490092080282 284.2419270193643 " stroke="#000000" stroke-width="0.35 px" style="stroke-width:0.35;stroke-miterlimit:4;stroke-dasharray:none;fill:none;fill-rule: evenodd "/>
<circle cx="-77.02490092080282" cy="278.84192701936433" r="1.6" stroke="#000000" stroke-width="0.35 px" style="stroke-width:0.35;stroke-miterlimit:4;stroke-dasharray:none;fill:none"/>
<circle cx="-65.02490092080282" cy="278.84192701936433" r="1.6" stroke="#000000" stroke-width="0.35 px" style="stroke-width:0.35;stroke-miterlimit:4;stroke-dasharray:none;fill:none"/>
<title>b'Sketch001'</title>
</g>
</svg>