<?xml version="1.0"?>
<!DOCTYPE svg PUBLIC "-//W3C//DTD SVG 1.1//EN" "http://www.w3.org/Graphics/SVG/1.1/DTD/svg11.dtd">
<svg width="336.6mm" height="85.96398466391871mm" viewBox="0 0 336.6 85.96398466391871" xmlns="http://www.w3.org/2000/svg" version="1.1">
<g id="Sketch" transform="translate(362.856496,107.687370) scale(1,-1)">
<path id="Sketch_w0000"  d="M -35.9770985964497 29.02338512943153 L -35.9770985964497 33.02338512943153 L -55.9770985964497 33.02338512943153 L -55.9770985964497 43.02338512943153 L -75.97709859644971 43.02338512943153 L -75.97709859644971 33.02338512943153 L -85.97709859644971 33.02338512943153 L -85.97709859644971 25.02338512943153 L -39.9770985964497 25.02338512943153 A 4 4 0 0 1 -35.9771 29.0234" stroke="#000000" stroke-width="0.35 px" style="stroke-width:0.35;stroke-miterlimit:4;stroke-dasharray:none;fill:none;fill-rule: evenodd "/>
<circle cx="-71.97709859644971" cy="37.62338512943153" r="1.6" stroke="#000000" stroke-width="0.35 px" style="stroke-width:0.35;stroke-miterlimit:4;stroke-dasharray:none;fill:none"/>
<circle cx="-59.9770985964497" cy="37.62338512943153" r="1.6" stroke="#000000" stroke-width="0.35 px" style="stroke-width:0.35;stroke-miterlimit:4;stroke-dasharray:none;fill:none"/>
<circle cx="-39.9770985964497" cy="29.02338512943153" r="2.2" stroke="#000000" stroke-width="0.35 px" style="stroke-width:0.35;stroke-miterlimit:4;stroke-dasharray:none;fill:none"/>
<path id="Sketch_w0004"  d="M -279.5564957247734 64.38736979335025 A 40 40 0 0 1 -319.556 99.3874L -359.5564957247734 99.38736979335025 L -359.5564957247734 104.38736979335025 L -244.45649572477342 104.38736979335025 L -244.45649572477342 98.38736979335025 L -236.45649572477342 98.38736979335025 L -236.45649572477342 101.38736979335025 L -241.45649572477342 101.38736979335025 L -241.45649572477342 104.38736979335025 L -154.45649572477342 104.38736979335025 L -154.45649572477342 98.38736979335025 L -146.45649572477342 98.38736979335025 L -146.45649572477342 101.38736979335025 L -151.45649572477342 101.38736979335025 L -151.45649572477342 104.38736979335025 L -29.55649572477339 104.38736979335025 L -29.55649572477339 99.38736979335025 L -69.55649572477338 99.38736979335025 A 40 40 0 0 1 -109.556 64.3874L -109.55649572477341 39.387369793350246 L -279.5564957247734 39.387369793350246 L -279.5564957247734 64.38736979335025 " stroke="#000000" stroke-width="0.35 px" style="stroke-width:0.35;stroke-miterlimit:4;stroke-dasharray:none;fill:none;fill-rule: evenodd "/>
<path id="Sketch_w0005"  d="M -241.45649572477342 95.38736979335025 L -241.45649572477342 85.38736979335025 L -244.45649572477342 85.38736979335025 L -244.45649572477342 95.38736979335025 L -241.45649572477342 95.38736979335025 " stroke="#000000" stroke-width="0.35 px" style="stroke-width:0.35;stroke-miterlimit:4;stroke-dasharray:none;fill:none;fill-rule: evenodd "/>
<path id="Sketch_w0006"  d="M -154.45649572477342 95.38736979335025 L -154.45649572477342 85.38736979335025 L -151.45649572477342 85.38736979335025 L -151.45649572477342 95.38736979335025 L -154.45649572477342 95.38736979335025 " stroke="#000000" stroke-width="0.35 px" style="stroke-width:0.35;stroke-miterlimit:4;stroke-dasharray:none;fill:none;fill-rule: evenodd "/>
<circle cx="-276.5564957247734" cy="42.387369793350246" r="1.6" stroke="#000000" stroke-width="0.35 px" style="stroke-width:0.35;stroke-miterlimit:4;stroke-dasharray:none;fill:none"/>
<circle cx="-216.5564957247734" cy="42.387369793350246" r="1.6" stroke="#000000" stroke-width="0.35 px" style="stroke-width:0.35;stroke-miterlimit:4;stroke-dasharray:none;fill:none"/>
<circle cx="-172.5564957247734" cy="42.387369793350246" r="1.6" stroke="#000000" stroke-width="0.35 px" style="stroke-width:0.35;stroke-miterlimit:4;stroke-dasharray:none;fill:none"/>
<circle cx="-112.5564957247734" cy="42.387369793350246" r="1.6" stroke="#000000" stroke-width="0.35 px" style="stroke-width:0.35;stroke-miterlimit:4;stroke-dasharray:none;fill:none"/>
<path id="Sketch_w0011"  d="M -54.001729820876605 76.59161253713253 L -54.001729820876605 70.59161253713253 L -51.001729820876605 70.59161253713253 L -51.001729820876605 67.59161253713253 L -54.001729820876605 67.59161253713253 L -54.001729820876605 57.591612537132534 L -48.001729820876605 57.591612537132534 L -48.001729820876605 76.59161253713253 L -54.001729820876605 76.59161253713253 " stroke="#000000" stroke-width="0.35 px" style="stroke-width:0.35;stroke-miterlimit:4;stroke-dasharray:none;fill:none;fill-rule: evenodd "/>
<title>b'Sketch'</title>
</g>
</svg>