<?xml version="1.0"?>
<!DOCTYPE svg PUBLIC "-//W3C//DTD SVG 1.1//EN" "http://www.w3.org/Graphics/SVG/1.1/DTD/svg11.dtd">
<svg width="809.3134553065158mm" height="365.4927561486666mm" viewBox="0 0 809.3134553065158 365.4927561486666" xmlns="http://www.w3.org/2000/svg" version="1.1">
<g id="Sketch" transform="translate(811.379010,357.558311) scale(1,-1)">
<path id="Sketch_w0000"  d="M -140.0 126.9 L -120.0 126.9 L -120.0 130.0 L -70.0 130.0 L -70.0 126.9 L -54.398235700682214 126.9 L -10.0 50.0 L -10.0 40.0 L -13.1 40.0 L -13.1 10.0 L -10.0 10.0 L -10.0 0.0 L -50.0 0.0 L -50.0 3.1 L -100.0 3.1 L -100.0 0.0 L -140.0 0.0 L -140.0 50.0 L -136.9 50.0 L -136.9 100.0 L -140.0 100.0 L -140.0 126.9 " stroke="#000000" stroke-width="0.35 px" style="stroke-width:0.35;stroke-miterlimit:4;stroke-dasharray:none;fill:none;fill-rule: evenodd "/>
<path id="Sketch_w0001"  d="M -125.0 116.9 L -125.0 10.0 L -59.39823570068222 10.0 L -59.39823570068222 116.9 L -125.0 116.9 " stroke="#000000" stroke-width="0.35 px" style="stroke-width:0.35;stroke-miterlimit:4;stroke-dasharray:none;fill:none;fill-rule: evenodd "/>
<path id="Sketch_w0002"  d="M -54.398235700682214 111.9 L -54.398235700682214 55.0 L -21.547005383792495 55.0 L -54.398235700682214 111.9 " stroke="#000000" stroke-width="0.35 px" style="stroke-width:0.35;stroke-miterlimit:4;stroke-dasharray:none;fill:none;fill-rule: evenodd "/>
<path id="Sketch_w0003"  d="M -251.0018715783915 205.11760579044397 L -231.1018715783915 205.11760579044397 L -231.1018715783915 202.01760579044398 L -180.9018715783915 202.01760579044398 L -180.9018715783915 205.11760579044397 L -165.4018715783915 205.11760579044397 L -165.40187157839154 5.1176057904439745 L -180.90187157839154 5.1176057904439824 L -180.90187157839154 8.217605790443983 L -231.10187157839152 8.217605790443988 L -231.10187157839152 5.117605790443989 L -251.00187157839153 5.117605790443991 L -251.0018715783915 205.11760579044397 " stroke="#000000" stroke-width="0.35 px" style="stroke-width:0.35;stroke-miterlimit:4;stroke-dasharray:none;fill:none;fill-rule: evenodd "/>
<path id="Sketch_w0004"  d="M -361.16643196489315 205.5188663365176 L -361.16643196489315 208.61886633651758 L -311.3664319648932 208.61886633651756 L -311.3664319648932 205.51886633651756 L -261.2664319648932 205.51886633651756 L -261.2664319648932 11.71886633651755 L -311.3664319648932 11.718866336517557 L -311.3664319648932 8.618866336517558 L -361.1664319648932 8.618866336517563 L -361.1664319648932 11.718866336517564 L -388.1664319648932 11.718866336517566 L -388.16643196489315 205.5188663365176 L -361.16643196489315 205.5188663365176 " stroke="#000000" stroke-width="0.35 px" style="stroke-width:0.35;stroke-miterlimit:4;stroke-dasharray:none;fill:none;fill-rule: evenodd "/>
<path id="Sketch_w0005"  d="M -456.8025198884854 203.96470149231735 L -446.7025198884854 203.96470149231735 L -446.7025198884854 207.06470149231734 L -416.9025198884854 207.06470149231734 L -416.9025198884854 203.96470149231735 L -406.8025198884854 203.96470149231735 L -406.80251988848545 10.164701492317334 L -416.9025198884854 10.164701492317331 L -416.9025198884854 7.06470149231733 L -446.7025198884854 7.064701492317334 L -446.7025198884854 10.164701492317334 L -456.80251988848545 10.164701492317334 L -456.8025198884854 203.96470149231735 " stroke="#000000" stroke-width="0.35 px" style="stroke-width:0.35;stroke-miterlimit:4;stroke-dasharray:none;fill:none;fill-rule: evenodd "/>
<path id="Sketch_w0006"  d="M -569.4346373813802 208.82206144505045 L -519.6346373813801 208.82206144505045 L -519.6346373813801 205.72206144505046 L -482.6346373813802 205.72206144505043 L -482.6346373813802 11.922061445050446 L -519.6346373813802 11.92206144505046 L -519.6346373813802 8.82206144505046 L -569.4346373813802 8.822061445050466 L -569.4346373813802 11.922061445050467 L -606.4346373813802 11.92206144505047 L -606.4346373813802 205.72206144505046 L -569.4346373813802 205.72206144505046 L -569.4346373813802 208.82206144505045 " stroke="#000000" stroke-width="0.35 px" style="stroke-width:0.35;stroke-miterlimit:4;stroke-dasharray:none;fill:none;fill-rule: evenodd "/>
<path id="Sketch_w0007"  d="M -596.4346373813802 48.822061445050466 L -596.4346373813802 28.822061445050466 L -593.3346373813802 28.822061445050466 L -593.3346373813802 48.822061445050466 L -596.4346373813802 48.822061445050466 " stroke="#000000" stroke-width="0.35 px" style="stroke-width:0.35;stroke-miterlimit:4;stroke-dasharray:none;fill:none;fill-rule: evenodd "/>
<path id="Sketch_w0008"  d="M -596.4346373813802 188.82206144505045 L -596.4346373813802 168.82206144505045 L -593.3346373813802 168.82206144505045 L -593.3346373813802 188.82206144505045 L -596.4346373813802 188.82206144505045 " stroke="#000000" stroke-width="0.35 px" style="stroke-width:0.35;stroke-miterlimit:4;stroke-dasharray:none;fill:none;fill-rule: evenodd "/>
<path id="Sketch_w0009"  d="M -536.4346373813802 48.822061445050466 L -533.3346373813802 48.822061445050466 L -533.3346373813802 28.822061445050466 L -536.4346373813802 28.822061445050466 L -536.4346373813802 48.822061445050466 " stroke="#000000" stroke-width="0.35 px" style="stroke-width:0.35;stroke-miterlimit:4;stroke-dasharray:none;fill:none;fill-rule: evenodd "/>
<path id="Sketch_w0010"  d="M -506.4346373813802 48.822061445050466 L -503.33463738138016 48.822061445050466 L -503.33463738138016 28.822061445050466 L -506.4346373813802 28.822061445050466 L -506.4346373813802 48.822061445050466 " stroke="#000000" stroke-width="0.35 px" style="stroke-width:0.35;stroke-miterlimit:4;stroke-dasharray:none;fill:none;fill-rule: evenodd "/>
<path id="Sketch_w0011"  d="M -566.4346373813802 188.82206144505045 L -566.4346373813802 168.82206144505045 L -563.3346373813802 168.82206144505045 L -563.3346373813802 188.82206144505045 L -566.4346373813802 188.82206144505045 " stroke="#000000" stroke-width="0.35 px" style="stroke-width:0.35;stroke-miterlimit:4;stroke-dasharray:none;fill:none;fill-rule: evenodd "/>
<path id="Sketch_w0012"  d="M -536.4346373813802 188.82206144505045 L -536.4346373813802 168.82206144505045 L -533.3346373813802 168.82206144505045 L -533.3346373813802 188.82206144505045 L -536.4346373813802 188.82206144505045 " stroke="#000000" stroke-width="0.35 px" style="stroke-width:0.35;stroke-miterlimit:4;stroke-dasharray:none;fill:none;fill-rule: evenodd "/>
<path id="Sketch_w0013"  d="M -506.4346373813802 188.82206144505045 L -506.4346373813802 168.82206144505045 L -503.33463738138016 168.82206144505045 L -503.33463738138016 188.82206144505045 L -506.4346373813802 188.82206144505045 " stroke="#000000" stroke-width="0.35 px" style="stroke-width:0.35;stroke-miterlimit:4;stroke-dasharray:none;fill:none;fill-rule: evenodd "/>
<path id="Sketch_w0014"  d="M -566.4346373813802 48.822061445050466 L -566.4346373813802 28.822061445050466 L -563.3346373813802 28.822061445050466 L -563.3346373813802 48.822061445050466 L -566.4346373813802 48.822061445050466 " stroke="#000000" stroke-width="0.35 px" style="stroke-width:0.35;stroke-miterlimit:4;stroke-dasharray:none;fill:none;fill-rule: evenodd "/>
<circle cx="-587.3346373813802" cy="82.82206144505047" r="15.0" stroke="#000000" stroke-width="0.35 px" style="stroke-width:0.35;stroke-miterlimit:4;stroke-dasharray:none;fill:none"/>
<circle cx="-431.8025198884854" cy="178.96470149231735" r="10.0" stroke="#000000" stroke-width="0.35 px" style="stroke-width:0.35;stroke-miterlimit:4;stroke-dasharray:none;fill:none"/>
<circle cx="-286.2664319648932" cy="180.51886633651756" r="10.0" stroke="#000000" stroke-width="0.35 px" style="stroke-width:0.35;stroke-miterlimit:4;stroke-dasharray:none;fill:none"/>
<path id="Sketch_w0018"  d="M -221.5018715783915 113.11760579017042 L -190.4018715783915 113.11760579044397 L -190.4018715783912 96.61760579044397 L -221.5018715783915 96.6176057901906 L -221.5018715783915 113.11760579017042 " stroke="#000000" stroke-width="0.35 px" style="stroke-width:0.35;stroke-miterlimit:4;stroke-dasharray:none;fill:none;fill-rule: evenodd "/>
<circle cx="-186.4018715783912" cy="109.11760579044397" r="1.5" stroke="#000000" stroke-width="0.35 px" style="stroke-width:0.35;stroke-miterlimit:4;stroke-dasharray:none;fill:none"/>
<circle cx="-225.5018715783915" cy="109.11760579017042" r="1.5" stroke="#000000" stroke-width="0.35 px" style="stroke-width:0.35;stroke-miterlimit:4;stroke-dasharray:none;fill:none"/>
<circle cx="-186.4018715783912" cy="100.61760579044397" r="1.5" stroke="#000000" stroke-width="0.35 px" style="stroke-width:0.35;stroke-miterlimit:4;stroke-dasharray:none;fill:none"/>
<circle cx="-225.5018715783915" cy="100.6176057901906" r="1.5" stroke="#000000" stroke-width="0.35 px" style="stroke-width:0.35;stroke-miterlimit:4;stroke-dasharray:none;fill:none"/>
<circle cx="-206.0018715783915" cy="143.11760579017042" r="10.0" stroke="#000000" stroke-width="0.35 px" style="stroke-width:0.35;stroke-miterlimit:4;stroke-dasharray:none;fill:none"/>
<circle cx="-206.0018715783915" cy="66.6176057901906" r="10.0" stroke="#000000" stroke-width="0.35 px" style="stroke-width:0.35;stroke-miterlimit:4;stroke-dasharray:none;fill:none"/>
<path id="Sketch_w0025"  d="M -106.07869752289946 185.2998143032755 L -106.07869752289947 182.1998143032755 L -116.07869752289947 182.19981430327547 L -116.07869752289952 172.19981430327547 L -106.07869752289955 172.1998143032755 L -106.0786975228996 159.1998143032755 L -86.17869752289954 159.1998143032755 L -86.17869752289948 172.1998143032755 L -76.1786975228995 172.1998143032755 L -76.17869752289948 182.1998143032755 L -86.17869752289947 182.1998143032755 L -86.17869752289947 185.2998143032755 L -106.07869752289946 185.2998143032755 " stroke="#000000" stroke-width="0.35 px" style="stroke-width:0.35;stroke-miterlimit:4;stroke-dasharray:none;fill:none;fill-rule: evenodd "/>
<circle cx="-102.07869752289955" cy="167.59981430327548" r="1.6" stroke="#000000" stroke-width="0.35 px" style="stroke-width:0.35;stroke-miterlimit:4;stroke-dasharray:none;fill:none"/>
<circle cx="-90.17869752289948" cy="167.59981430327548" r="1.6" stroke="#000000" stroke-width="0.35 px" style="stroke-width:0.35;stroke-miterlimit:4;stroke-dasharray:none;fill:none"/>
<path id="Sketch_w0028"  d="M -121.43781916688786 349.62386486814665 L -121.43781916688785 243.62386486814668 L -57.43781916688785 243.62386486814668 L -57.43781916688786 349.6238648681466 L -121.43781916688786 349.62386486814665 " stroke="#000000" stroke-width="0.35 px" style="stroke-width:0.35;stroke-miterlimit:4;stroke-dasharray:none;fill:none;fill-rule: evenodd "/>
<path id="Sketch_w0029"  d="M -116.43781916688786 344.62386486814665 L -116.43781916688785 287.7238648681466 L -62.43781916688788 287.7238648681466 L -62.437819166887856 344.6238648681466 L -116.43781916688786 344.62386486814665 " stroke="#000000" stroke-width="0.35 px" style="stroke-width:0.35;stroke-miterlimit:4;stroke-dasharray:none;fill:none;fill-rule: evenodd "/>
<path id="Sketch_w0030"  d="M -761.3150590897037 207.30068652760005 L -634.3150590897037 207.30068652760005 L -634.3150590897037 14.300686527600021 L -761.3150590897037 14.300686527600043 L -761.3150590897037 44.30068652760004 L -771.3150590897037 44.30068652760004 L -771.3150590897037 74.30068652760005 L -761.3150590897037 74.30068652760004 L -761.3150590897037 147.30068652760005 L -771.3150590897037 147.30068652760005 L -771.3150590897037 177.30068652760005 L -761.3150590897037 177.30068652760005 L -761.3150590897037 207.30068652760005 " stroke="#000000" stroke-width="0.35 px" style="stroke-width:0.35;stroke-miterlimit:4;stroke-dasharray:none;fill:none;fill-rule: evenodd "/>
<path id="Sketch_w0031"  d="M -640.5150590897038 197.30068652760005 L -640.5150590897038 177.30068652760005 L -637.4150590897037 177.30068652760005 L -637.4150590897037 197.30068652760005 L -640.5150590897038 197.30068652760005 " stroke="#000000" stroke-width="0.35 px" style="stroke-width:0.35;stroke-miterlimit:4;stroke-dasharray:none;fill:none;fill-rule: evenodd "/>
<path id="Sketch_w0032"  d="M -640.5150590897038 44.30068652760003 L -637.4150590897037 44.30068652760003 L -637.4150590897037 24.30068652760003 L -640.5150590897038 24.30068652760003 L -640.5150590897038 44.30068652760003 " stroke="#000000" stroke-width="0.35 px" style="stroke-width:0.35;stroke-miterlimit:4;stroke-dasharray:none;fill:none;fill-rule: evenodd "/>
<circle cx="-765.9150590897037" cy="172.30068652760005" r="1.6" stroke="#000000" stroke-width="0.35 px" style="stroke-width:0.35;stroke-miterlimit:4;stroke-dasharray:none;fill:none"/>
<circle cx="-765.9150590897037" cy="152.30068652760005" r="1.6" stroke="#000000" stroke-width="0.35 px" style="stroke-width:0.35;stroke-miterlimit:4;stroke-dasharray:none;fill:none"/>
<circle cx="-765.9150590897037" cy="49.30068652760004" r="1.6" stroke="#000000" stroke-width="0.35 px" style="stroke-width:0.35;stroke-miterlimit:4;stroke-dasharray:none;fill:none"/>
<circle cx="-765.9150590897037" cy="69.30068652760004" r="1.6" stroke="#000000" stroke-width="0.35 px" style="stroke-width:0.35;stroke-miterlimit:4;stroke-dasharray:none;fill:none"/>
<circle cx="-741.3150590897037" cy="107.30068652760005" r="10.0" stroke="#000000" stroke-width="0.35 px" style="stroke-width:0.35;stroke-miterlimit:4;stroke-dasharray:none;fill:none"/>
<path id="Sketch_w0038"  d="M -803.444564025996 76.61311417696737 L -803.444564025996 46.71311417696738 L -798.444564025996 46.71311417696737 L -798.444564025996 51.71311417696737 L -795.444564025996 51.71311417696737 L -795.444564025996 71.61311417696737 L -798.444564025996 71.61311417696737 L -798.444564025996 76.61311417696737 L -803.444564025996 76.61311417696737 " stroke="#000000" stroke-width="0.35 px" style="stroke-width:0.35;stroke-miterlimit:4;stroke-dasharray:none;fill:none;fill-rule: evenodd "/>
<title>b'Sketch'</title>
</g>
</svg>