<?xml version="1.0"?>
<!DOCTYPE svg PUBLIC "-//W3C//DTD SVG 1.1//EN" "http://www.w3.org/Graphics/SVG/1.1/DTD/svg11.dtd">
<svg width="285.0736466110755mm" height="205.36682919623024mm" viewBox="0 0 285.0736466110755 205.36682919623024" xmlns="http://www.w3.org/2000/svg" version="1.1">
<g id="Sketch" transform="translate(289.828011,211.354285) scale(1,-1)">
<path id="Sketch_w0000"  d="M -32.73756695141667 139.113399038225 L -12.73756695141661 139.11339903822497 L -12.73756695141661 109.11339903822497 L -9.637566951416611 109.11339903822496 L -9.637566951416607 59.113399038224955 L -12.737566951416941 59.113399038224955 L -12.737566951416937 9.113399038224962 L -32.73756695141694 9.11339903822496 L -32.737566951416554 12.213399038225013 L -99.73756695141637 12.21339903822501 L -99.73756695141635 9.113399038225005 L -119.73756695141635 9.113399038225003 L -119.73756695141637 12.21339903822501 L -186.73756695141617 12.213399038225004 L -186.73756695141617 9.113399038225005 L -206.73756695141617 9.113399038225003 L -206.73756695141668 59.113399038225005 L -209.83756695141653 59.113399038225005 L -209.83756695141668 109.11339903822501 L -206.73756695141668 109.113399038225 L -206.7375669514168 139.113399038225 L -186.73756695141674 139.11339903822497 L -186.73756695141674 136.01339903822512 L -119.73756695141672 136.013399038225 L -119.73756695141672 139.113399038225 L -99.73756695141667 139.11339903822497 L -99.73756695141667 136.013399038225 L -32.73756695141667 136.0133990382249 L -32.73756695141667 139.113399038225 " stroke="#000000" stroke-width="0.35 px" style="stroke-width:0.35;stroke-miterlimit:4;stroke-dasharray:none;fill:none;fill-rule: evenodd "/>
<circle cx="-181.73756695141668" cy="34.113399038225005" r="10.0" stroke="#000000" stroke-width="0.35 px" style="stroke-width:0.35;stroke-miterlimit:4;stroke-dasharray:none;fill:none"/>
<path id="Sketch_w0002"  d="M -207.5492036761897 205.4594455066086 L -184.5492036761897 205.4594455066086 L -184.5492036761897 208.5594455066086 L -117.54920367618969 208.5594455066086 L -117.54920367618969 205.4594455066086 L -97.54920367618969 205.4594455066086 L -97.54920367618969 208.5594455066086 L -30.54920367618969 208.5594455066086 L -30.549203676189688 205.4594455066086 L -7.549203676189688 205.4594455066086 L -7.54920367618969 195.4594455066086 L -10.649203676189686 195.4594455066086 L -10.64920367618969 162.45944550660857 L -7.54920367618969 162.45944550660857 L -7.549203676189691 152.45944550660857 L -207.54920367618968 152.4594455066086 L -207.5492036761897 162.4594455066086 L -204.44920367618968 162.4594455066086 L -204.44920367618968 195.4594455066086 L -207.5492036761897 195.4594455066086 L -207.5492036761897 205.4594455066086 " stroke="#000000" stroke-width="0.35 px" style="stroke-width:0.35;stroke-miterlimit:4;stroke-dasharray:none;fill:none;fill-rule: evenodd "/>
<path id="Sketch_w0003"  d="M -234.03317094195012 135.68229565569376 L -234.03317094195015 138.78229565569376 L -230.93317094195015 138.78229565569356 L -230.93317094194998 108.78229565569356 L -234.03317094194998 108.78229565569357 L -234.03317094194998 58.78229565569357 L -230.93317094194998 58.78229565569357 L -230.93317094194998 8.782295655693567 L -234.03317094194998 8.782295655693567 L -234.03317094194998 11.882295655693566 L -240.93317094194998 11.882295655693566 L -240.93317094194998 8.782295655693567 L -277.03317094195 8.782295655693567 L -277.03317094195 11.882295655693566 L -287.03317094195 11.882295655693566 L -287.03317094195 135.68229565569428 L -277.03317094195 135.68229565569425 L -277.03317094195 138.78229565569424 L -244.03317094195017 138.78229565569424 L -244.03317094195015 135.68229565569425 L -234.03317094195012 135.68229565569376 " stroke="#000000" stroke-width="0.35 px" style="stroke-width:0.35;stroke-miterlimit:4;stroke-dasharray:none;fill:none;fill-rule: evenodd "/>
<path id="Sketch_w0004"  d="M -277.03317094195 125.88229565569357 L -244.03317094194998 125.88229565569357 L -244.03317094194998 31.882295655693568 L -277.03317094195 31.882295655693568 L -277.03317094195 125.88229565569357 " stroke="#000000" stroke-width="0.35 px" style="stroke-width:0.35;stroke-miterlimit:4;stroke-dasharray:none;fill:none;fill-rule: evenodd "/>
<title>b'Sketch'</title>
</g>
</svg>