<?xml version="1.0"?>
<!DOCTYPE svg PUBLIC "-//W3C//DTD SVG 1.1//EN" "http://www.w3.org/Graphics/SVG/1.1/DTD/svg11.dtd">
<svg width="364.10678091005764mm" height="358.0203912652233mm" viewBox="0 0 364.10678091005764 358.0203912652233" xmlns="http://www.w3.org/2000/svg" version="1.1">
<g id="Sketch001" transform="translate(906.192636,377.450635) scale(1,-1)">
<path id="Sketch001_w0000"  d="M -726.6433516884573 372.94201331571963 L -726.6433516884573 345.94201331571963 L -729.6433516884573 345.94201331571963 L -729.6433516884573 315.94201331571963 L -726.6433516884573 315.94201331571963 L -726.6433516884573 293.94201331571963 L -729.6433516884573 293.94201331571963 L -729.6433516884573 263.94201331571963 L -726.6433516884573 263.94201331571963 L -726.6433516884573 230.84201331571967 L -723.6433516884573 230.84201331571967 L -723.6433516884573 233.84201331571967 L -680.6433516884573 233.84201331571967 L -680.6433516884573 230.84201331571967 L -677.6433516884573 230.84201331571967 L -677.6433516884573 263.94201331571963 L -674.6433516884573 263.94201331571963 L -674.6433516884573 293.94201331571963 L -677.6433516884573 293.94201331571963 L -677.6433516884573 315.94201331571963 L -674.6433516884573 315.94201331571963 L -674.6433516884573 345.94201331571963 L -677.6433516884573 345.94201331571963 L -677.6433516884573 372.94201331571963 L -726.6433516884573 372.94201331571963 " stroke="#000000" stroke-width="0.35 px" style="stroke-width:0.35;stroke-miterlimit:4;stroke-dasharray:none;fill:none;fill-rule: evenodd "/>
<path id="Sketch001_w0001"  d="M -602.4229598195474 372.4875714234597 L -553.4229598195474 372.4875714234597 L -553.4229598195474 345.4875714234597 L -550.4229598195474 345.4875714234597 L -550.4229598195474 315.4875714234597 L -553.4229598195474 315.4875714234597 L -553.4229598195474 293.4875714234597 L -550.4229598195474 293.4875714234597 L -550.4229598195474 263.4875714234597 L -553.4229598195474 263.4875714234597 L -553.4229598195474 230.38757142345972 L -556.4229598195474 230.38757142345972 L -556.4229598195474 233.38757142345972 L -599.4229598195474 233.38757142345972 L -599.4229598195474 230.38757142345972 L -602.4229598195474 230.38757142345972 L -602.4229598195474 263.4875714234597 L -605.4229598195474 263.4875714234597 L -605.4229598195474 293.4875714234597 L -602.4229598195474 293.4875714234597 L -602.4229598195474 315.4875714234597 L -605.4229598195474 315.4875714234597 L -605.4229598195474 345.4875714234597 L -602.4229598195474 345.4875714234597 L -602.4229598195474 372.4875714234597 " stroke="#000000" stroke-width="0.35 px" style="stroke-width:0.35;stroke-miterlimit:4;stroke-dasharray:none;fill:none;fill-rule: evenodd "/>
<path id="Sketch001_w0002"  d="M -561.4229598195474 357.4875714234597 L -558.4229598195474 357.4875714234597 L -558.4229598195474 245.38757142345972 L -561.4229598195474 245.38757142345972 L -561.4229598195474 357.4875714234597 " stroke="#000000" stroke-width="0.35 px" style="stroke-width:0.35;stroke-miterlimit:4;stroke-dasharray:none;fill:none;fill-rule: evenodd "/>
<path id="Sketch001_w0003"  d="M -592.4229598195474 245.38757142345972 L -572.4229598195474 245.38757142345972 L -572.4229598195474 242.38757142345972 L -592.4229598195474 242.38757142345972 L -592.4229598195474 245.38757142345972 " stroke="#000000" stroke-width="0.35 px" style="stroke-width:0.35;stroke-miterlimit:4;stroke-dasharray:none;fill:none;fill-rule: evenodd "/>
<path id="Sketch001_w0004"  d="M -656.0280244184397 373.88096111976307 L -626.0280244184397 373.88096111976307 L -626.0280244184397 346.88096111976307 L -629.0280244184397 346.88096111976307 L -629.0280244184397 316.88096111976307 L -626.0280244184397 316.88096111976307 L -626.0280244184397 294.88096111976307 L -629.0280244184397 294.88096111976307 L -629.0280244184397 264.88096111976307 L -626.0280244184397 264.88096111976307 L -626.0280244184397 231.78096111976308 L -656.0280244184397 231.78096111976308 L -656.0280244184397 264.88096111976307 L -653.0280244184397 264.88096111976307 L -653.0280244184397 294.88096111976307 L -656.0280244184397 294.88096111976307 L -656.0280244184397 316.88096111976307 L -653.0280244184397 316.88096111976307 L -653.0280244184397 346.88096111976307 L -656.0280244184397 346.88096111976307 L -656.0280244184397 373.88096111976307 " stroke="#000000" stroke-width="0.35 px" style="stroke-width:0.35;stroke-miterlimit:4;stroke-dasharray:none;fill:none;fill-rule: evenodd "/>
<path id="Sketch001_w0005"  d="M -713.8699026133901 156.0625950328478 L -683.8699026133901 156.0625950328478 L -683.8699026133901 153.0625950328478 L -653.8699026133901 153.0625950328478 L -653.8699026133901 156.0625950328478 L -633.8699026133901 156.0625950328478 L -633.8699026133901 153.0625950328478 L -603.8699026133901 153.0625950328478 L -603.8699026133901 156.0625950328478 L -573.8699026133901 156.0625950328478 L -573.8699026133901 166.0625950328478 L -570.8699026133901 166.0625950328478 L -570.8699026133901 186.0625950328478 L -573.8699026133901 186.0625950328478 L -573.8699026133901 205.0625950328478 L -603.8699026133901 205.0625950328478 L -603.8699026133901 208.0625950328478 L -633.8699026133901 208.0625950328478 L -633.8699026133901 205.0625950328478 L -653.8699026133901 205.0625950328478 L -653.8699026133901 208.0625950328478 L -683.8699026133901 208.0625950328478 L -683.8699026133901 205.0625950328478 L -713.8699026133901 205.0625950328478 L -713.8699026133901 186.0625950328478 L -716.8699026133901 186.0625950328478 L -716.8699026133901 166.0625950328478 L -713.8699026133901 166.0625950328478 L -713.8699026133901 156.0625950328478 " stroke="#000000" stroke-width="0.35 px" style="stroke-width:0.35;stroke-miterlimit:4;stroke-dasharray:none;fill:none;fill-rule: evenodd "/>
<path id="Sketch001_w0006"  d="M -742.6555298845554 25.999918499835033 L -718.6555298845554 25.999918499835033 L -718.6555298845554 28.999918499835033 L -715.6555298845554 28.999918499835033 L -715.6555298845554 25.999918499835033 L -705.6555298845554 25.999918499835033 L -705.6555298845554 22.999918499835033 L -665.6555298845554 22.999918499835037 L -665.6555298845554 25.999918499835033 L -625.6555298845554 25.999918499835037 L -625.6555298845554 22.999918499835037 L -585.6555298845554 22.999918499835037 L -585.6555298845554 25.999918499835037 L -575.6555298845554 25.999918499835037 L -575.6555298845554 28.999918499835037 L -572.6555298845554 28.99991849983504 L -572.6555298845554 25.99991849983504 L -548.6555298845554 25.999918499835033 L -548.6555298845554 28.999918499835033 L -545.6555298845554 28.999918499835033 L -545.6555298845554 71.99991849983508 L -548.6555298845554 71.99991849983508 L -548.6555298845554 74.99991849983508 L -572.6555298845554 74.99991849983508 L -572.6555298845554 71.99991849983508 L -575.6555298845554 71.99991849983508 L -575.6555298845554 74.99991849983508 L -605.6555298845554 74.99991849983506 L -605.6555298845554 77.99991849983508 L -635.6555298845554 77.99991849983506 L -635.6555298845554 74.99991849983506 L -655.6555298845554 74.99991849983505 L -655.6555298845554 77.99991849983506 L -685.6555298845554 77.99991849983505 L -685.6555298845554 74.99991849983505 L -715.6555298845554 74.99991849983505 L -715.6555298845554 71.99991849983503 L -718.6555298845554 71.99991849983505 L -718.6555298845554 74.99991849983503 L -742.6555298845554 74.99991849983503 L -742.6555298845554 71.99991849983503 L -745.6555298845554 71.99991849983503 L -745.6555298845554 28.999918499835033 L -742.6555298845554 28.999918499835033 L -742.6555298845554 25.999918499835033 " stroke="#000000" stroke-width="0.35 px" style="stroke-width:0.35;stroke-miterlimit:4;stroke-dasharray:none;fill:none;fill-rule: evenodd "/>
<path id="Sketch001_w0007"  d="M -720.7093944564909 131.57291865547273 L -720.7093944564909 116.57291865547273 L -690.7093944564909 116.57291865547273 L -690.7093944564909 119.57291865547273 L -660.7093944564909 119.57291865547273 L -660.7093944564909 116.57291865547273 L -640.7093944564909 116.57291865547273 L -640.7093944564909 119.57291865547273 L -610.7093944564909 119.57291865547272 L -610.7093944564909 116.57291865547273 L -580.7093944564909 116.57291865547272 L -580.7093944564909 131.57291865547273 L -610.7093944564909 131.57291865547273 L -610.7093944564909 128.57291865547273 L -640.7093944564909 128.57291865547273 L -640.7093944564909 131.57291865547273 L -660.7093944564909 131.57291865547273 L -660.7093944564909 128.57291865547273 L -690.7093944564909 128.57291865547273 L -690.7093944564909 131.57291865547273 L -720.7093944564909 131.57291865547273 " stroke="#000000" stroke-width="0.35 px" style="stroke-width:0.35;stroke-miterlimit:4;stroke-dasharray:none;fill:none;fill-rule: evenodd "/>
<path id="Sketch001_w0008"  d="M -902.6229621493178 268.71788804162776 L -902.6229621493178 265.71788804162776 L -752.6229621493178 265.71788804162776 L -752.6229621493178 268.71788804162776 L -758.1229621493178 268.71788804162776 L -758.1229621493178 325.71788804162776 L -897.1229621493178 325.71788804162776 L -897.1229621493178 268.71788804162776 L -902.6229621493178 268.71788804162776 " stroke="#000000" stroke-width="0.35 px" style="stroke-width:0.35;stroke-miterlimit:4;stroke-dasharray:none;fill:none;fill-rule: evenodd "/>
<circle cx="-892.1229621493178" cy="315.71788804162776" r="1.6" stroke="#000000" stroke-width="0.35 px" style="stroke-width:0.35;stroke-miterlimit:4;stroke-dasharray:none;fill:none"/>
<circle cx="-874.2229621493178" cy="315.71788804162776" r="1.6" stroke="#000000" stroke-width="0.35 px" style="stroke-width:0.35;stroke-miterlimit:4;stroke-dasharray:none;fill:none"/>
<circle cx="-781.0229621493178" cy="315.71788804162776" r="1.6" stroke="#000000" stroke-width="0.35 px" style="stroke-width:0.35;stroke-miterlimit:4;stroke-dasharray:none;fill:none"/>
<circle cx="-763.1229621493178" cy="315.71788804162776" r="1.6" stroke="#000000" stroke-width="0.35 px" style="stroke-width:0.35;stroke-miterlimit:4;stroke-dasharray:none;fill:none"/>
<path id="Sketch001_w0013"  d="M -894.7236174093 239.55643834036252 L -755.7236174093 239.55643834036252 L -755.7236174093 179.55643834036252 L -894.7236174093 179.55643834036252 L -894.7236174093 239.55643834036252 " stroke="#000000" stroke-width="0.35 px" style="stroke-width:0.35;stroke-miterlimit:4;stroke-dasharray:none;fill:none;fill-rule: evenodd "/>
<circle cx="-889.7236174093" cy="229.55643834036252" r="1.6" stroke="#000000" stroke-width="0.35 px" style="stroke-width:0.35;stroke-miterlimit:4;stroke-dasharray:none;fill:none"/>
<circle cx="-871.8236174093" cy="229.55643834036252" r="1.6" stroke="#000000" stroke-width="0.35 px" style="stroke-width:0.35;stroke-miterlimit:4;stroke-dasharray:none;fill:none"/>
<circle cx="-889.7236174093" cy="189.55643834036252" r="1.6" stroke="#000000" stroke-width="0.35 px" style="stroke-width:0.35;stroke-miterlimit:4;stroke-dasharray:none;fill:none"/>
<circle cx="-871.8236174093" cy="189.55643834036252" r="1.6" stroke="#000000" stroke-width="0.35 px" style="stroke-width:0.35;stroke-miterlimit:4;stroke-dasharray:none;fill:none"/>
<circle cx="-778.6236174093" cy="229.55643834036252" r="1.6" stroke="#000000" stroke-width="0.35 px" style="stroke-width:0.35;stroke-miterlimit:4;stroke-dasharray:none;fill:none"/>
<circle cx="-760.7236174093" cy="229.55643834036252" r="1.6" stroke="#000000" stroke-width="0.35 px" style="stroke-width:0.35;stroke-miterlimit:4;stroke-dasharray:none;fill:none"/>
<circle cx="-778.6236174093" cy="189.55643834036252" r="1.6" stroke="#000000" stroke-width="0.35 px" style="stroke-width:0.35;stroke-miterlimit:4;stroke-dasharray:none;fill:none"/>
<circle cx="-760.7236174093" cy="189.55643834036252" r="1.6" stroke="#000000" stroke-width="0.35 px" style="stroke-width:0.35;stroke-miterlimit:4;stroke-dasharray:none;fill:none"/>
<title>b'Sketch001'</title>
</g>
</svg>