<?xml version="1.0"?>
<!DOCTYPE svg PUBLIC "-//W3C//DTD SVG 1.1//EN" "http://www.w3.org/Graphics/SVG/1.1/DTD/svg11.dtd">
<svg width="499.03323563622905mm" height="446.82740892267014mm" viewBox="0 0 499.03323563622905 446.82740892267014" xmlns="http://www.w3.org/2000/svg" version="1.1">
<g id="Sketch" transform="translate(497.987188,448.793679) scale(1,-1)">
<path id="Sketch_w0000"  d="M -33.84643550938861 32.85875235053097 L -13.846435509388613 32.85875235053096 L -13.846435509388613 29.858752350530967 L -3.8464355093886136 29.858752350530967 L -3.8464355093886127 19.858752350530967 L -13.846435509388613 19.858752350530967 L -13.846435509388613 6.858752350530967 L -33.84643550938861 6.858752350530967 L -33.84643550938861 19.858752350530967 L -43.84643550938861 19.858752350530967 L -43.84643550938861 29.858752350530967 L -33.84643550938861 29.858752350530967 L -33.84643550938861 32.85875235053097 " stroke="#000000" stroke-width="0.35 px" style="stroke-width:0.35;stroke-miterlimit:4;stroke-dasharray:none;fill:none;fill-rule: evenodd "/>
<path id="Sketch_w0001"  d="M -259.76785216159664 205.25019871969792 L -259.76785216159664 208.25019871969792 L -219.76785216159664 208.25019871969792 L -219.76785216159664 205.25019871969792 L -179.76785216159664 205.25019871969792 L -179.76785216159664 208.25019871969792 L -139.76785216159664 208.25019871969792 L -139.76785216159664 205.25019871969792 L -99.76785216159664 205.25019871969792 L -99.76785216159664 208.25019871969792 L -59.767852161596636 208.25019871969792 L -59.767852161596636 205.25019871969792 L -62.767852161596636 205.25019871969792 L -62.767852161596636 175.25019871969792 L -59.767852161596636 175.25019871969792 L -59.767852161596636 145.25019871969792 L -62.767852161596636 145.25019871969792 L -62.767852161596636 115.25019871969792 L -59.767852161596636 115.25019871969792 L -59.767852161596636 93.25019871969792 L -62.767852161596636 93.25019871969792 L -62.767852161596636 63.25019871969793 L -59.767852161596636 63.25019871969793 L -59.767852161596636 30.150198719697926 L -99.76785216159664 30.150198719697926 L -99.76785216159664 33.150198719697926 L -139.76785216159664 33.150198719697926 L -139.76785216159664 30.150198719697926 L -179.76785216159664 30.150198719697926 L -179.76785216159664 33.150198719697926 L -219.76785216159664 33.150198719697926 L -219.76785216159664 30.150198719697926 L -259.76785216159664 30.150198719697926 L -259.76785216159664 63.25019871969793 L -256.76785216159664 63.25019871969793 L -256.76785216159664 93.25019871969792 L -259.76785216159664 93.25019871969792 L -259.76785216159664 115.25019871969792 L -256.76785216159664 115.25019871969792 L -256.76785216159664 145.25019871969792 L -259.76785216159664 145.25019871969792 L -259.76785216159664 175.25019871969792 L -256.76785216159664 175.25019871969792 L -256.76785216159664 205.25019871969792 L -259.76785216159664 205.25019871969792 " stroke="#000000" stroke-width="0.35 px" style="stroke-width:0.35;stroke-miterlimit:4;stroke-dasharray:none;fill:none;fill-rule: evenodd "/>
<path id="Sketch_w0002"  d="M -239.76785216159664 198.25019871969792 L -219.76785216159664 198.25019871969792 L -219.76785216159664 195.15019871969793 L -239.76785216159664 195.15019871969793 L -239.76785216159664 198.25019871969792 " stroke="#000000" stroke-width="0.35 px" style="stroke-width:0.35;stroke-miterlimit:4;stroke-dasharray:none;fill:none;fill-rule: evenodd "/>
<path id="Sketch_w0003"  d="M -99.76785216159664 198.25019871969792 L -99.76785216159664 195.15019871969793 L -79.76785216159664 195.15019871969793 L -79.76785216159664 198.25019871969792 L -99.76785216159664 198.25019871969792 " stroke="#000000" stroke-width="0.35 px" style="stroke-width:0.35;stroke-miterlimit:4;stroke-dasharray:none;fill:none;fill-rule: evenodd "/>
<path id="Sketch_w0004"  d="M -239.76785216159664 48.25019871969792 L -219.76785216159664 48.25019871969792 L -219.76785216159664 51.35019871969792 L -239.76785216159664 51.35019871969792 L -239.76785216159664 48.25019871969792 " stroke="#000000" stroke-width="0.35 px" style="stroke-width:0.35;stroke-miterlimit:4;stroke-dasharray:none;fill:none;fill-rule: evenodd "/>
<path id="Sketch_w0005"  d="M -99.76785216159664 48.25019871969792 L -79.76785216159664 48.25019871969792 L -79.76785216159664 45.15019871969792 L -99.76785216159664 45.15019871969792 L -99.76785216159664 48.25019871969792 " stroke="#000000" stroke-width="0.35 px" style="stroke-width:0.35;stroke-miterlimit:4;stroke-dasharray:none;fill:none;fill-rule: evenodd "/>
<path id="Sketch_w0006"  d="M -239.76785216159664 105.15019871969793 L -219.76785216159664 105.15019871969793 L -219.76785216159664 108.25019871969792 L -239.76785216159664 108.25019871969792 L -239.76785216159664 105.15019871969793 " stroke="#000000" stroke-width="0.35 px" style="stroke-width:0.35;stroke-miterlimit:4;stroke-dasharray:none;fill:none;fill-rule: evenodd "/>
<path id="Sketch_w0007"  d="M -99.76785216159664 105.15019871969793 L -99.76785216159664 108.25019871969792 L -79.76785216159664 108.25019871969792 L -79.76785216159664 105.15019871969793 L -99.76785216159664 105.15019871969793 " stroke="#000000" stroke-width="0.35 px" style="stroke-width:0.35;stroke-miterlimit:4;stroke-dasharray:none;fill:none;fill-rule: evenodd "/>
<path id="Sketch_w0008"  d="M -209.76785216159664 175.25019871969792 L -169.76785216159664 175.25019871969792 L -169.76785216159664 172.25019871969792 L -209.76785216159664 172.25019871969792 L -209.76785216159664 175.25019871969792 " stroke="#000000" stroke-width="0.35 px" style="stroke-width:0.35;stroke-miterlimit:4;stroke-dasharray:none;fill:none;fill-rule: evenodd "/>
<path id="Sketch_w0009"  d="M -149.76785216159664 175.25019871969792 L -149.76785216159664 172.25019871969792 L -109.76785216159664 172.25019871969792 L -109.76785216159664 175.25019871969792 L -149.76785216159664 175.25019871969792 " stroke="#000000" stroke-width="0.35 px" style="stroke-width:0.35;stroke-miterlimit:4;stroke-dasharray:none;fill:none;fill-rule: evenodd "/>
<path id="Sketch_w0010"  d="M -232.76785216159664 93.25019871969792 L -229.76785216159664 93.25019871969792 L -229.76785216159664 63.25019871969792 L -232.76785216159664 63.25019871969792 L -232.76785216159664 93.25019871969792 " stroke="#000000" stroke-width="0.35 px" style="stroke-width:0.35;stroke-miterlimit:4;stroke-dasharray:none;fill:none;fill-rule: evenodd "/>
<path id="Sketch_w0011"  d="M -232.76785216159664 145.25019871969792 L -232.76785216159664 115.25019871969792 L -229.76785216159664 115.25019871969792 L -229.76785216159664 145.25019871969792 L -232.76785216159664 145.25019871969792 " stroke="#000000" stroke-width="0.35 px" style="stroke-width:0.35;stroke-miterlimit:4;stroke-dasharray:none;fill:none;fill-rule: evenodd "/>
<path id="Sketch_w0012"  d="M -89.76785216159664 145.25019871969792 L -89.76785216159664 115.25019871969792 L -86.76785216159664 115.25019871969792 L -86.76785216159664 145.25019871969792 L -89.76785216159664 145.25019871969792 " stroke="#000000" stroke-width="0.35 px" style="stroke-width:0.35;stroke-miterlimit:4;stroke-dasharray:none;fill:none;fill-rule: evenodd "/>
<path id="Sketch_w0013"  d="M -89.76785216159664 93.25019871969792 L -89.76785216159664 63.25019871969792 L -86.76785216159664 63.25019871969792 L -86.76785216159664 93.25019871969792 L -89.76785216159664 93.25019871969792 " stroke="#000000" stroke-width="0.35 px" style="stroke-width:0.35;stroke-miterlimit:4;stroke-dasharray:none;fill:none;fill-rule: evenodd "/>
<path id="Sketch_w0014"  d="M -199.76785216159664 45.150198719697926 L -169.76785216159664 45.150198719697926 L -169.76785216159664 42.150198719697926 L -199.76785216159664 42.150198719697926 L -199.76785216159664 45.150198719697926 " stroke="#000000" stroke-width="0.35 px" style="stroke-width:0.35;stroke-miterlimit:4;stroke-dasharray:none;fill:none;fill-rule: evenodd "/>
<path id="Sketch_w0015"  d="M -149.76785216159664 45.150198719697926 L -149.76785216159664 42.150198719697926 L -119.76785216159664 42.150198719697926 L -119.76785216159664 45.150198719697926 L -149.76785216159664 45.150198719697926 " stroke="#000000" stroke-width="0.35 px" style="stroke-width:0.35;stroke-miterlimit:4;stroke-dasharray:none;fill:none;fill-rule: evenodd "/>
<path id="Sketch_w0016"  d="M -257.2865067246469 222.8839667429025 L -220.28650672464696 222.8839667429025 L -220.28650672464696 219.8839667429025 L -180.28650672464696 219.8839667429025 L -180.28650672464696 222.8839667429025 L -140.28650672464696 222.8839667429025 L -140.28650672464696 219.8839667429025 L -100.28650672464694 219.8839667429025 L -100.28650672464694 222.8839667429025 L -63.28650672464694 222.8839667429025 L -63.28650672464694 262.8839667429025 L -60.28650672464694 262.8839667429025 L -60.28650672464694 292.8839667429025 L -63.28650672464694 292.8839667429025 L -63.28650672464694 322.8839667429025 L -60.28650672464694 322.8839667429025 L -60.28650672464694 352.8839667429025 L -63.28650672464694 352.8839667429025 L -63.28650672464694 382.8839667429025 L -83.28650672464694 382.8839667429025 L -83.28650672464694 379.8839667429025 L -105.28650672464694 379.8839667429025 L -105.28650672464694 382.8839667429025 L -215.28650672464696 382.8839667429025 L -215.28650672464696 379.8839667429025 L -237.28650672464696 379.8839667429025 L -237.28650672464696 382.8839667429025 L -257.2865067246469 382.8839667429025 L -257.2865067246469 352.8839667429025 L -260.2865067246469 352.8839667429025 L -260.2865067246469 322.8839667429025 L -257.2865067246469 322.8839667429025 L -257.2865067246469 292.8839667429025 L -260.2865067246469 292.8839667429025 L -260.2865067246469 262.8839667429025 L -257.2865067246469 262.8839667429025 L -257.2865067246469 222.8839667429025 " stroke="#000000" stroke-width="0.35 px" style="stroke-width:0.35;stroke-miterlimit:4;stroke-dasharray:none;fill:none;fill-rule: evenodd "/>
<path id="Sketch_w0017"  d="M -217.76785216159664 195.2501987196976 L -217.76785216159672 185.2501987196976 L -214.76785216159672 185.25019871969792 L -214.76785216159664 195.25019871969792 L -217.76785216159664 195.2501987196976 " stroke="#000000" stroke-width="0.35 px" style="stroke-width:0.35;stroke-miterlimit:4;stroke-dasharray:none;fill:none;fill-rule: evenodd "/>
<path id="Sketch_w0018"  d="M -104.76785216159664 195.25019871969792 L -101.76785216159664 195.25019871969823 L -101.76785216159664 185.25019871969792 L -104.76785216159672 185.25019871969792 L -104.76785216159664 195.25019871969792 " stroke="#000000" stroke-width="0.35 px" style="stroke-width:0.35;stroke-miterlimit:4;stroke-dasharray:none;fill:none;fill-rule: evenodd "/>
<path id="Sketch_w0019"  d="M -255.72068254658177 410.9011958685692 L -235.72068254658177 410.9011958685692 L -235.72068254658177 407.9011958685692 L -213.72068254658177 407.9011958685692 L -213.72068254658177 443.9011958685692 L -235.72068254658177 443.9011958685692 L -235.72068254658177 440.9011958685692 L -255.72068254658177 440.9011958685692 L -255.72068254658177 430.9011958685692 L -258.72068254658177 430.9011958685692 L -258.72068254658177 420.9011958685692 L -255.72068254658177 420.9011958685692 L -255.72068254658177 410.9011958685692 " stroke="#000000" stroke-width="0.35 px" style="stroke-width:0.35;stroke-miterlimit:4;stroke-dasharray:none;fill:none;fill-rule: evenodd "/>
<path id="Sketch_w0020"  d="M -274.1814021746808 220.0338460599649 L -274.1814021746808 223.0338460599649 L -271.1814021746808 223.0338460599649 L -271.1814021746808 263.0338460599649 L -274.1814021746808 263.0338460599649 L -274.1814021746808 293.0338460599649 L -271.1814021746808 293.0338460599649 L -271.1814021746808 323.0338460599649 L -274.1814021746808 323.0338460599649 L -274.1814021746808 353.0338460599649 L -271.1814021746808 353.0338460599649 L -271.1814021746808 383.0338460599649 L -284.1814021746808 383.0338460599649 L -284.1814021746808 380.0338460599649 L -294.1814021746808 380.0338460599649 L -294.1814021746808 383.0338460599649 L -307.1814021746808 383.0338460599649 L -307.1814021746808 353.0338460599649 L -304.1814021746808 353.0338460599649 L -304.1814021746808 323.0338460599649 L -307.1814021746808 323.0338460599649 L -307.1814021746808 293.0338460599649 L -304.1814021746808 293.0338460599649 L -304.1814021746808 263.0338460599649 L -307.1814021746808 263.0338460599649 L -307.1814021746808 223.0338460599649 L -304.1814021746808 223.0338460599649 L -304.1814021746808 220.0338460599649 L -274.1814021746808 220.0338460599649 " stroke="#000000" stroke-width="0.35 px" style="stroke-width:0.35;stroke-miterlimit:4;stroke-dasharray:none;fill:none;fill-rule: evenodd "/>
<path id="Sketch_w0021"  d="M -357.7348620539282 380.1492966695226 L -327.7348620539282 380.1492966695226 L -327.7348620539282 223.1492966695226 L -337.7348620539282 223.1492966695226 L -337.7348620539282 220.1492966695226 L -347.7348620539282 220.1492966695226 L -347.7348620539282 223.1492966695226 L -357.7348620539282 223.1492966695226 L -357.7348620539282 380.1492966695226 " stroke="#000000" stroke-width="0.35 px" style="stroke-width:0.35;stroke-miterlimit:4;stroke-dasharray:none;fill:none;fill-rule: evenodd "/>
<path id="Sketch_w0022"  d="M -343.0947057409857 27.51927272718887 L -343.0947057409857 30.51927272718887 L -296.0947057409857 30.519272727188866 L -296.0947057409857 70.51927272718886 L -293.0947057409857 70.51927272718886 L -293.0947057409857 100.51927272718886 L -296.0947057409857 100.51927272718886 L -296.0947057409857 130.51927272718888 L -293.0947057409857 130.51927272718888 L -293.0947057409857 160.51927272718888 L -296.0947057409857 160.51927272718888 L -296.0947057409857 190.51927272718888 L -338.0947057409857 190.51927272718888 L -338.0947057409857 160.51927272718885 L -448.0947057409857 160.51927272718888 L -448.0947057409857 190.51927272718888 L -490.0947057409857 190.51927272718888 L -490.0947057409857 160.51927272718888 L -493.0947057409857 160.51927272718888 L -493.0947057409857 130.51927272718888 L -490.0947057409857 130.51927272718888 L -490.0947057409857 100.51927272718888 L -493.0947057409857 100.51927272718888 L -493.0947057409857 70.51927272718888 L -490.0947057409857 70.51927272718888 L -490.0947057409857 30.51927272718888 L -443.0947057409857 30.519272727188874 L -443.0947057409857 27.519272727188877 L -403.0947057409857 27.519272727188874 L -403.0947057409857 30.519272727188874 L -383.0947057409857 30.51927272718887 L -383.0947057409857 27.519272727188877 L -343.0947057409857 27.51927272718887 " stroke="#000000" stroke-width="0.35 px" style="stroke-width:0.35;stroke-miterlimit:4;stroke-dasharray:none;fill:none;fill-rule: evenodd "/>
<title>b'Sketch'</title>
</g>
</svg>