<?xml version="1.0"?>
<!DOCTYPE svg PUBLIC "-//W3C//DTD SVG 1.1//EN" "http://www.w3.org/Graphics/SVG/1.1/DTD/svg11.dtd">
<svg width="500.67436314044954mm" height="446.8597144246294mm" viewBox="0 0 500.67436314044954 446.8597144246294" xmlns="http://www.w3.org/2000/svg" version="1.1">
<g id="Sketch" transform="translate(499.610821,448.809768) scale(1,-1)">
<path id="Sketch_w0000"  d="M -33.84502957474677 32.858625819336744 L -13.845029574746768 32.85862581935216 L -13.845029574732486 29.85862581935216 L -3.8450295747324863 29.85862581935987 L -3.845029574684885 19.85862581935987 L -13.845029574732486 19.858625819242768 L -13.845029574670335 6.858625819242768 L -33.84502957488976 6.858625819242775 L -33.84502957495127 19.858625819242768 L -43.84502957500561 19.858625819242516 L -43.84502957495127 29.858625819344454 L -33.84502957495127 29.85862581935216 L -33.84502957474677 32.858625819336744 " stroke="#000000" stroke-width="0.35 px" style="stroke-width:0.35;stroke-miterlimit:4;stroke-dasharray:none;fill:none;fill-rule: evenodd "/>
<path id="Sketch_w0001"  d="M -259.76785216159664 205.25019871969792 L -259.76785216159664 208.25019871969792 L -219.76785216159664 208.25019871969792 L -219.76785216159664 205.25019871969792 L -179.76785216159664 205.25019871969792 L -179.76785216159664 208.25019871969792 L -139.76785216159664 208.25019871969792 L -139.76785216159664 205.25019871969792 L -99.76785216159664 205.25019871969792 L -99.76785216159664 208.25019871969792 L -59.767852161596636 208.25019871969792 L -59.767852161596636 205.25019871969792 L -62.767852161596636 205.25019871969792 L -62.767852161596636 175.25019871969792 L -59.767852161596636 175.25019871969792 L -59.767852161596636 145.25019871969792 L -62.767852161596636 145.25019871969792 L -62.767852161596636 115.25019871969792 L -59.767852161596636 115.25019871969792 L -59.767852161596636 93.25019871969792 L -62.767852161596636 93.25019871969792 L -62.767852161596636 63.25019871969793 L -59.767852161596636 63.25019871969793 L -59.767852161596636 30.150198719697926 L -99.76785216159664 30.150198719697926 L -99.76785216159664 33.150198719697926 L -139.76785216159664 33.150198719697926 L -139.76785216159664 30.150198719697926 L -179.76785216159664 30.150198719697926 L -179.76785216159664 33.150198719697926 L -219.76785216159664 33.150198719697926 L -219.76785216159664 30.150198719697926 L -259.76785216159664 30.150198719697926 L -259.76785216159664 63.25019871969793 L -256.76785216159664 63.25019871969793 L -256.76785216159664 93.25019871969792 L -259.76785216159664 93.25019871969792 L -259.76785216159664 115.25019871969792 L -256.76785216159664 115.25019871969792 L -256.76785216159664 145.25019871969792 L -259.76785216159664 145.25019871969792 L -259.76785216159664 175.25019871969792 L -256.76785216159664 175.25019871969792 L -256.76785216159664 205.25019871969792 L -259.76785216159664 205.25019871969792 " stroke="#000000" stroke-width="0.35 px" style="stroke-width:0.35;stroke-miterlimit:4;stroke-dasharray:none;fill:none;fill-rule: evenodd "/>
<path id="Sketch_w0002"  d="M -239.76785216159664 198.25019871969792 L -219.76785216159664 198.25019871969792 L -219.76785216159664 195.15019871969793 L -239.76785216159664 195.15019871969793 L -239.76785216159664 198.25019871969792 " stroke="#000000" stroke-width="0.35 px" style="stroke-width:0.35;stroke-miterlimit:4;stroke-dasharray:none;fill:none;fill-rule: evenodd "/>
<path id="Sketch_w0003"  d="M -99.76785216159664 198.25019871969792 L -99.76785216159664 195.15019871969793 L -79.76785216159664 195.15019871969793 L -79.76785216159664 198.25019871969792 L -99.76785216159664 198.25019871969792 " stroke="#000000" stroke-width="0.35 px" style="stroke-width:0.35;stroke-miterlimit:4;stroke-dasharray:none;fill:none;fill-rule: evenodd "/>
<path id="Sketch_w0004"  d="M -239.76785216159664 48.25019871969792 L -219.76785216159664 48.25019871969792 L -219.76785216159664 51.35019871969792 L -239.76785216159664 51.35019871969792 L -239.76785216159664 48.25019871969792 " stroke="#000000" stroke-width="0.35 px" style="stroke-width:0.35;stroke-miterlimit:4;stroke-dasharray:none;fill:none;fill-rule: evenodd "/>
<path id="Sketch_w0005"  d="M -99.76785216159664 48.25019871969792 L -79.76785216159664 48.25019871969792 L -79.76785216159664 45.15019871969792 L -99.76785216159664 45.15019871969792 L -99.76785216159664 48.25019871969792 " stroke="#000000" stroke-width="0.35 px" style="stroke-width:0.35;stroke-miterlimit:4;stroke-dasharray:none;fill:none;fill-rule: evenodd "/>
<path id="Sketch_w0006"  d="M -239.76785216159664 105.15019871969793 L -219.76785216159664 105.15019871969793 L -219.76785216159664 108.25019871969792 L -239.76785216159664 108.25019871969792 L -239.76785216159664 105.15019871969793 " stroke="#000000" stroke-width="0.35 px" style="stroke-width:0.35;stroke-miterlimit:4;stroke-dasharray:none;fill:none;fill-rule: evenodd "/>
<path id="Sketch_w0007"  d="M -99.76785216159664 105.15019871969793 L -99.76785216159664 108.25019871969792 L -79.76785216159664 108.25019871969792 L -79.76785216159664 105.15019871969793 L -99.76785216159664 105.15019871969793 " stroke="#000000" stroke-width="0.35 px" style="stroke-width:0.35;stroke-miterlimit:4;stroke-dasharray:none;fill:none;fill-rule: evenodd "/>
<path id="Sketch_w0008"  d="M -209.76785216159664 175.25019871969792 L -169.76785216159664 175.25019871969792 L -169.76785216159664 172.25019871969792 L -209.76785216159664 172.25019871969792 L -209.76785216159664 175.25019871969792 " stroke="#000000" stroke-width="0.35 px" style="stroke-width:0.35;stroke-miterlimit:4;stroke-dasharray:none;fill:none;fill-rule: evenodd "/>
<path id="Sketch_w0009"  d="M -149.76785216159664 175.25019871969792 L -149.76785216159664 172.25019871969792 L -109.76785216159664 172.25019871969792 L -109.76785216159664 175.25019871969792 L -149.76785216159664 175.25019871969792 " stroke="#000000" stroke-width="0.35 px" style="stroke-width:0.35;stroke-miterlimit:4;stroke-dasharray:none;fill:none;fill-rule: evenodd "/>
<path id="Sketch_w0010"  d="M -232.76785216159664 93.25019871969792 L -229.76785216159664 93.25019871969792 L -229.76785216159664 63.25019871969792 L -232.76785216159664 63.25019871969792 L -232.76785216159664 93.25019871969792 " stroke="#000000" stroke-width="0.35 px" style="stroke-width:0.35;stroke-miterlimit:4;stroke-dasharray:none;fill:none;fill-rule: evenodd "/>
<path id="Sketch_w0011"  d="M -232.76785216159664 145.25019871969792 L -232.76785216159664 115.25019871969792 L -229.76785216159664 115.25019871969792 L -229.76785216159664 145.25019871969792 L -232.76785216159664 145.25019871969792 " stroke="#000000" stroke-width="0.35 px" style="stroke-width:0.35;stroke-miterlimit:4;stroke-dasharray:none;fill:none;fill-rule: evenodd "/>
<path id="Sketch_w0012"  d="M -89.76785216159664 145.25019871969792 L -89.76785216159664 115.25019871969792 L -86.76785216159664 115.25019871969792 L -86.76785216159664 145.25019871969792 L -89.76785216159664 145.25019871969792 " stroke="#000000" stroke-width="0.35 px" style="stroke-width:0.35;stroke-miterlimit:4;stroke-dasharray:none;fill:none;fill-rule: evenodd "/>
<path id="Sketch_w0013"  d="M -89.76785216159664 93.25019871969792 L -89.76785216159664 63.25019871969792 L -86.76785216159664 63.25019871969792 L -86.76785216159664 93.25019871969792 L -89.76785216159664 93.25019871969792 " stroke="#000000" stroke-width="0.35 px" style="stroke-width:0.35;stroke-miterlimit:4;stroke-dasharray:none;fill:none;fill-rule: evenodd "/>
<path id="Sketch_w0014"  d="M -199.76785216159664 45.150198719697926 L -169.76785216159664 45.150198719697926 L -169.76785216159664 42.150198719697926 L -199.76785216159664 42.150198719697926 L -199.76785216159664 45.150198719697926 " stroke="#000000" stroke-width="0.35 px" style="stroke-width:0.35;stroke-miterlimit:4;stroke-dasharray:none;fill:none;fill-rule: evenodd "/>
<path id="Sketch_w0015"  d="M -149.76785216159664 45.150198719697926 L -149.76785216159664 42.150198719697926 L -119.76785216159664 42.150198719697926 L -119.76785216159664 45.150198719697926 L -149.76785216159664 45.150198719697926 " stroke="#000000" stroke-width="0.35 px" style="stroke-width:0.35;stroke-miterlimit:4;stroke-dasharray:none;fill:none;fill-rule: evenodd "/>
<path id="Sketch_w0016"  d="M -257.18874428932236 222.7358419715905 L -220.1887442893224 222.7358419715905 L -220.1887442893224 219.7358419715905 L -180.1887442893224 219.7358419715905 L -180.1887442893224 222.7358419715905 L -140.1887442893224 222.7358419715905 L -140.1887442893224 219.7358419715905 L -100.18874428932239 219.7358419715905 L -100.18874428932239 222.7358419715905 L -63.188744289322386 222.7358419715905 L -63.188744289322386 262.7358419715905 L -60.188744289322386 262.7358419715905 L -60.188744289322386 292.7358419715905 L -63.188744289322386 292.7358419715905 L -63.188744289322386 322.7358419715905 L -60.188744289322386 322.7358419715905 L -60.188744289322386 352.7358419715905 L -63.188744289322386 352.7358419715905 L -63.188744289322386 382.7358419715905 L -83.18874428932239 382.7358419715905 L -83.18874428932239 379.7358419715905 L -105.18874428932239 379.7358419715905 L -105.18874428932239 382.7358419715905 L -215.1887442893224 382.7358419715905 L -215.1887442893224 379.7358419715905 L -237.1887442893224 379.7358419715905 L -237.1887442893224 382.7358419715905 L -257.18874428932236 382.7358419715905 L -257.18874428932236 352.7358419715905 L -260.18874428932236 352.7358419715905 L -260.18874428932236 322.7358419715905 L -257.18874428932236 322.7358419715905 L -257.18874428932236 292.7358419715905 L -260.18874428932236 292.7358419715905 L -260.18874428932236 262.7358419715905 L -257.18874428932236 262.7358419715905 L -257.18874428932236 222.7358419715905 " stroke="#000000" stroke-width="0.35 px" style="stroke-width:0.35;stroke-miterlimit:4;stroke-dasharray:none;fill:none;fill-rule: evenodd "/>
<path id="Sketch_w0017"  d="M -217.76785216159664 195.2501987196976 L -217.76785216159672 185.2501987196976 L -214.76785216159672 185.25019871969792 L -214.76785216159664 195.25019871969792 L -217.76785216159664 195.2501987196976 " stroke="#000000" stroke-width="0.35 px" style="stroke-width:0.35;stroke-miterlimit:4;stroke-dasharray:none;fill:none;fill-rule: evenodd "/>
<path id="Sketch_w0018"  d="M -104.76785216159664 195.25019871969792 L -101.76785216159664 195.25019871969823 L -101.76785216159664 185.25019871969792 L -104.76785216159672 185.25019871969792 L -104.76785216159664 195.25019871969792 " stroke="#000000" stroke-width="0.35 px" style="stroke-width:0.35;stroke-miterlimit:4;stroke-dasharray:none;fill:none;fill-rule: evenodd "/>
<path id="Sketch_w0019"  d="M -255.72068254658177 410.9011958685692 L -235.72068254658177 410.9011958685692 L -235.72068254658177 407.9011958685692 L -213.72068254658177 407.9011958685692 L -213.72068254658177 443.9011958685692 L -235.72068254658177 443.9011958685692 L -235.72068254658177 440.9011958685692 L -255.72068254658177 440.9011958685692 L -255.72068254658177 430.9011958685692 L -258.72068254658177 430.9011958685692 L -258.72068254658177 420.9011958685692 L -255.72068254658177 420.9011958685692 L -255.72068254658177 410.9011958685692 " stroke="#000000" stroke-width="0.35 px" style="stroke-width:0.35;stroke-miterlimit:4;stroke-dasharray:none;fill:none;fill-rule: evenodd "/>
<path id="Sketch_w0020"  d="M -274.1814021746808 220.0338460599649 L -274.1814021746808 223.0338460599649 L -271.1814021746808 223.0338460599649 L -271.1814021746808 263.0338460599649 L -274.1814021746808 263.0338460599649 L -274.1814021746808 293.0338460599649 L -271.1814021746808 293.0338460599649 L -271.1814021746808 323.0338460599649 L -274.1814021746808 323.0338460599649 L -274.1814021746808 353.0338460599649 L -271.1814021746808 353.0338460599649 L -271.1814021746808 383.0338460599649 L -284.1814021746808 383.0338460599649 L -284.1814021746808 380.0338460599649 L -294.1814021746808 380.0338460599649 L -294.1814021746808 383.0338460599649 L -307.1814021746808 383.0338460599649 L -307.1814021746808 353.0338460599649 L -304.1814021746808 353.0338460599649 L -304.1814021746808 323.0338460599649 L -307.1814021746808 323.0338460599649 L -307.1814021746808 293.0338460599649 L -304.1814021746808 293.0338460599649 L -304.1814021746808 263.0338460599649 L -307.1814021746808 263.0338460599649 L -307.1814021746808 223.0338460599649 L -304.1814021746808 223.0338460599649 L -304.1814021746808 220.0338460599649 L -274.1814021746808 220.0338460599649 " stroke="#000000" stroke-width="0.35 px" style="stroke-width:0.35;stroke-miterlimit:4;stroke-dasharray:none;fill:none;fill-rule: evenodd "/>
<path id="Sketch_w0021"  d="M -357.7348620539282 380.1492966695226 L -327.7348620539282 380.1492966695226 L -327.7348620539282 223.1492966695226 L -337.7348620539282 223.1492966695226 L -337.7348620539282 220.1492966695226 L -347.7348620539282 220.1492966695226 L -347.7348620539282 223.1492966695226 L -357.7348620539282 223.1492966695226 L -357.7348620539282 380.1492966695226 " stroke="#000000" stroke-width="0.35 px" style="stroke-width:0.35;stroke-miterlimit:4;stroke-dasharray:none;fill:none;fill-rule: evenodd "/>
<path id="Sketch_w0022"  d="M -473.96266581554255 187.02358702829233 L -448.021310575897 187.02358702829233 L -448.021310575897 160.02358702829233 L -338.021310575897 160.48207731549041 L -338.021310575897 187.02358702829233 L -316.021310575897 187.02358702829233 L -316.021310575897 190.0235870282923 L -296.021310575897 190.0235870282923 L -296.021310575897 160.0235870282923 L -293.021310575897 160.0235870282923 L -293.021310575897 130.0235870282923 L -296.021310575897 130.0235870282923 L -296.021310575897 100.02358702829231 L -293.021310575897 100.02358702829231 L -293.021310575897 70.02358702829231 L -296.021310575897 70.02358702829231 L -296.021310575897 30.023587028292315 L -343.021310575897 30.023587028292322 L -343.021310575897 27.023587028292322 L -383.021310575897 27.023587028292326 L -383.021310575897 30.023587028292322 L -403.021310575897 30.023587028292322 L -403.021310575897 27.023587028292322 L -443.021310575897 27.02358702829233 L -443.021310575897 30.023587028292322 L -490.021310575897 30.02358702829233 L -490.021310575897 70.02358702829233 L -493.021310575897 70.02358702829233 L -493.021310575897 100.02358702829233 L -490.021310575897 100.02358702829233 L -490.021310575897 130.02358702829233 L -493.021310575897 130.02358702829233 L -493.021310575897 160.02358702829233 L -490.021310575897 160.02358702829233 L -490.021310575897 190.02358702829233 L -473.96266581554255 190.02358702829233 L -473.96266581554255 187.02358702829233 " stroke="#000000" stroke-width="0.35 px" style="stroke-width:0.35;stroke-miterlimit:4;stroke-dasharray:none;fill:none;fill-rule: evenodd "/>
<circle cx="-232.1887442893224" cy="244.7358419715905" r="10.0" stroke="#000000" stroke-width="0.35 px" style="stroke-width:0.35;stroke-miterlimit:4;stroke-dasharray:none;fill:none"/>
<circle cx="-475.021310575897" cy="52.023587028292326" r="10.0" stroke="#000000" stroke-width="0.35 px" style="stroke-width:0.35;stroke-miterlimit:4;stroke-dasharray:none;fill:none"/>
<circle cx="-29.845029574951273" cy="15.258625819242766" r="1.6" stroke="#000000" stroke-width="0.35 px" style="stroke-width:0.35;stroke-miterlimit:4;stroke-dasharray:none;fill:none"/>
<circle cx="-17.845029574732486" cy="15.258625819242766" r="1.6" stroke="#000000" stroke-width="0.35 px" style="stroke-width:0.35;stroke-miterlimit:4;stroke-dasharray:none;fill:none"/>
<circle cx="-457.521310575897" cy="55.023587028292326" r="1.6" stroke="#000000" stroke-width="0.35 px" style="stroke-width:0.35;stroke-miterlimit:4;stroke-dasharray:none;fill:none"/>
<circle cx="-439.62131057589704" cy="55.023587028292326" r="1.6" stroke="#000000" stroke-width="0.35 px" style="stroke-width:0.35;stroke-miterlimit:4;stroke-dasharray:none;fill:none"/>
<circle cx="-346.421310575897" cy="55.023587028292326" r="1.6" stroke="#000000" stroke-width="0.35 px" style="stroke-width:0.35;stroke-miterlimit:4;stroke-dasharray:none;fill:none"/>
<circle cx="-328.521310575897" cy="55.023587028292326" r="1.6" stroke="#000000" stroke-width="0.35 px" style="stroke-width:0.35;stroke-miterlimit:4;stroke-dasharray:none;fill:none"/>
<path id="Sketch_w0031"  d="M -464.7022483398315 257.338882637434 L -464.7022483398315 260.338882637434 L -415.7022483398315 260.338882637434 L -415.7022483398315 257.338882637434 L -385.7022483398315 257.338882637434 L -385.7022483398315 231.33888263743395 L -494.7022483398315 231.33888263743398 L -494.7022483398315 257.338882637434 L -464.7022483398315 257.338882637434 " stroke="#000000" stroke-width="0.35 px" style="stroke-width:0.35;stroke-miterlimit:4;stroke-dasharray:none;fill:none;fill-rule: evenodd "/>
<path id="Sketch_w0032"  d="M -494.582136015001 277.05422401455564 L -494.582136015001 306.05422401455564 L -385.582136015001 306.05422401455564 L -385.582136015001 277.05422401455564 L -415.582136015001 277.05422401455564 L -415.582136015001 280.05422401455564 L -464.582136015001 280.05422401455564 L -464.582136015001 277.05422401455564 L -494.582136015001 277.05422401455564 " stroke="#000000" stroke-width="0.35 px" style="stroke-width:0.35;stroke-miterlimit:4;stroke-dasharray:none;fill:none;fill-rule: evenodd "/>
<title>b'Sketch'</title>
</g>
</svg>