<?xml version="1.0"?>
<!DOCTYPE svg PUBLIC "-//W3C//DTD SVG 1.1//EN" "http://www.w3.org/Graphics/SVG/1.1/DTD/svg11.dtd">
<svg width="510.71849659382144mm" height="447.3322292950029mm" viewBox="0 0 510.71849659382144 447.3322292950029" xmlns="http://www.w3.org/2000/svg" version="1.1">
<g id="Sketch" transform="translate(509.556482,449.183811) scale(1,-1)">
<path id="Sketch_w0000"  d="M -33.84502957474677 32.858625819336744 L -13.845029574746768 32.85862581935216 L -13.845029574732486 29.85862581935216 L -3.8450295747324863 29.85862581935987 L -3.845029574684885 19.85862581935987 L -13.845029574732486 19.858625819242768 L -13.845029574670335 6.858625819242768 L -33.84502957488976 6.858625819242775 L -33.84502957495127 19.858625819242768 L -43.84502957500561 19.858625819242516 L -43.84502957495127 29.858625819344454 L -33.84502957495127 29.85862581935216 L -33.84502957474677 32.858625819336744 " stroke="#000000" stroke-width="0.35 px" style="stroke-width:0.35;stroke-miterlimit:4;stroke-dasharray:none;fill:none;fill-rule: evenodd "/>
<path id="Sketch_w0001"  d="M -259.76785216159664 205.25019871969792 L -259.76785216159664 208.25019871969792 L -219.76785216159664 208.25019871969792 L -219.76785216159664 205.25019871969792 L -179.76785216159664 205.25019871969792 L -179.76785216159664 208.25019871969792 L -139.76785216159664 208.25019871969792 L -139.76785216159664 205.25019871969792 L -99.76785216159664 205.25019871969792 L -99.76785216159664 208.25019871969792 L -59.767852161596636 208.25019871969792 L -59.767852161596636 205.25019871969792 L -62.767852161596636 205.25019871969792 L -62.767852161596636 175.25019871969792 L -59.767852161596636 175.25019871969792 L -59.767852161596636 145.25019871969792 L -62.767852161596636 145.25019871969792 L -62.767852161596636 115.25019871969792 L -59.767852161596636 115.25019871969792 L -59.767852161596636 93.25019871969792 L -62.767852161596636 93.25019871969792 L -62.767852161596636 63.25019871969793 L -59.767852161596636 63.25019871969793 L -59.767852161596636 30.150198719697926 L -99.76785216159664 30.150198719697926 L -99.76785216159664 33.150198719697926 L -139.76785216159664 33.150198719697926 L -139.76785216159664 30.150198719697926 L -179.76785216159664 30.150198719697926 L -179.76785216159664 33.150198719697926 L -219.76785216159664 33.150198719697926 L -219.76785216159664 30.150198719697926 L -259.76785216159664 30.150198719697926 L -259.76785216159664 63.25019871969793 L -256.76785216159664 63.25019871969793 L -256.76785216159664 93.25019871969792 L -259.76785216159664 93.25019871969792 L -259.76785216159664 115.25019871969792 L -256.76785216159664 115.25019871969792 L -256.76785216159664 145.25019871969792 L -259.76785216159664 145.25019871969792 L -259.76785216159664 175.25019871969792 L -256.76785216159664 175.25019871969792 L -256.76785216159664 205.25019871969792 L -259.76785216159664 205.25019871969792 " stroke="#000000" stroke-width="0.35 px" style="stroke-width:0.35;stroke-miterlimit:4;stroke-dasharray:none;fill:none;fill-rule: evenodd "/>
<path id="Sketch_w0002"  d="M -239.76785216159664 198.25019871969792 L -219.76785216159664 198.25019871969792 L -219.76785216159664 195.15019871969793 L -239.76785216159664 195.15019871969793 L -239.76785216159664 198.25019871969792 " stroke="#000000" stroke-width="0.35 px" style="stroke-width:0.35;stroke-miterlimit:4;stroke-dasharray:none;fill:none;fill-rule: evenodd "/>
<path id="Sketch_w0003"  d="M -99.76785216159664 198.25019871969792 L -99.76785216159664 195.15019871969793 L -79.76785216159664 195.15019871969793 L -79.76785216159664 198.25019871969792 L -99.76785216159664 198.25019871969792 " stroke="#000000" stroke-width="0.35 px" style="stroke-width:0.35;stroke-miterlimit:4;stroke-dasharray:none;fill:none;fill-rule: evenodd "/>
<path id="Sketch_w0004"  d="M -239.76785216159664 48.25019871969792 L -219.76785216159664 48.25019871969792 L -219.76785216159664 51.35019871969792 L -239.76785216159664 51.35019871969792 L -239.76785216159664 48.25019871969792 " stroke="#000000" stroke-width="0.35 px" style="stroke-width:0.35;stroke-miterlimit:4;stroke-dasharray:none;fill:none;fill-rule: evenodd "/>
<path id="Sketch_w0005"  d="M -99.76785216159664 48.25019871969792 L -79.76785216159664 48.25019871969792 L -79.76785216159664 45.15019871969792 L -99.76785216159664 45.15019871969792 L -99.76785216159664 48.25019871969792 " stroke="#000000" stroke-width="0.35 px" style="stroke-width:0.35;stroke-miterlimit:4;stroke-dasharray:none;fill:none;fill-rule: evenodd "/>
<path id="Sketch_w0006"  d="M -239.76785216159664 105.15019871969793 L -219.76785216159664 105.15019871969793 L -219.76785216159664 108.25019871969792 L -239.76785216159664 108.25019871969792 L -239.76785216159664 105.15019871969793 " stroke="#000000" stroke-width="0.35 px" style="stroke-width:0.35;stroke-miterlimit:4;stroke-dasharray:none;fill:none;fill-rule: evenodd "/>
<path id="Sketch_w0007"  d="M -99.76785216159664 105.15019871969793 L -99.76785216159664 108.25019871969792 L -79.76785216159664 108.25019871969792 L -79.76785216159664 105.15019871969793 L -99.76785216159664 105.15019871969793 " stroke="#000000" stroke-width="0.35 px" style="stroke-width:0.35;stroke-miterlimit:4;stroke-dasharray:none;fill:none;fill-rule: evenodd "/>
<path id="Sketch_w0008"  d="M -209.76785216159664 175.25019871969792 L -169.76785216159664 175.25019871969792 L -169.76785216159664 172.25019871969792 L -209.76785216159664 172.25019871969792 L -209.76785216159664 175.25019871969792 " stroke="#000000" stroke-width="0.35 px" style="stroke-width:0.35;stroke-miterlimit:4;stroke-dasharray:none;fill:none;fill-rule: evenodd "/>
<path id="Sketch_w0009"  d="M -149.76785216159664 175.25019871969792 L -149.76785216159664 172.25019871969792 L -109.76785216159664 172.25019871969792 L -109.76785216159664 175.25019871969792 L -149.76785216159664 175.25019871969792 " stroke="#000000" stroke-width="0.35 px" style="stroke-width:0.35;stroke-miterlimit:4;stroke-dasharray:none;fill:none;fill-rule: evenodd "/>
<path id="Sketch_w0010"  d="M -232.76785216159664 93.25019871969792 L -229.76785216159664 93.25019871969792 L -229.76785216159664 63.25019871969792 L -232.76785216159664 63.25019871969792 L -232.76785216159664 93.25019871969792 " stroke="#000000" stroke-width="0.35 px" style="stroke-width:0.35;stroke-miterlimit:4;stroke-dasharray:none;fill:none;fill-rule: evenodd "/>
<path id="Sketch_w0011"  d="M -232.76785216159664 145.25019871969792 L -232.76785216159664 115.25019871969792 L -229.76785216159664 115.25019871969792 L -229.76785216159664 145.25019871969792 L -232.76785216159664 145.25019871969792 " stroke="#000000" stroke-width="0.35 px" style="stroke-width:0.35;stroke-miterlimit:4;stroke-dasharray:none;fill:none;fill-rule: evenodd "/>
<path id="Sketch_w0012"  d="M -89.76785216159664 145.25019871969792 L -89.76785216159664 115.25019871969792 L -86.76785216159664 115.25019871969792 L -86.76785216159664 145.25019871969792 L -89.76785216159664 145.25019871969792 " stroke="#000000" stroke-width="0.35 px" style="stroke-width:0.35;stroke-miterlimit:4;stroke-dasharray:none;fill:none;fill-rule: evenodd "/>
<path id="Sketch_w0013"  d="M -89.76785216159664 93.25019871969792 L -89.76785216159664 63.25019871969792 L -86.76785216159664 63.25019871969792 L -86.76785216159664 93.25019871969792 L -89.76785216159664 93.25019871969792 " stroke="#000000" stroke-width="0.35 px" style="stroke-width:0.35;stroke-miterlimit:4;stroke-dasharray:none;fill:none;fill-rule: evenodd "/>
<path id="Sketch_w0014"  d="M -199.76785216159664 45.150198719697926 L -169.76785216159664 45.150198719697926 L -169.76785216159664 42.150198719697926 L -199.76785216159664 42.150198719697926 L -199.76785216159664 45.150198719697926 " stroke="#000000" stroke-width="0.35 px" style="stroke-width:0.35;stroke-miterlimit:4;stroke-dasharray:none;fill:none;fill-rule: evenodd "/>
<path id="Sketch_w0015"  d="M -149.76785216159664 45.150198719697926 L -149.76785216159664 42.150198719697926 L -119.76785216159664 42.150198719697926 L -119.76785216159664 45.150198719697926 L -149.76785216159664 45.150198719697926 " stroke="#000000" stroke-width="0.35 px" style="stroke-width:0.35;stroke-miterlimit:4;stroke-dasharray:none;fill:none;fill-rule: evenodd "/>
<path id="Sketch_w0016"  d="M -260.2242327584922 292.744975926848 L -260.2242327584922 262.744975926848 L -240.22423275849215 262.744975926848 L -240.22423275849215 222.74497592684799 L -220.22423275849215 222.74497592684799 L -220.22423275849215 219.74497592684799 L -180.22423275849215 219.74497592684799 L -180.22423275849215 222.74497592684799 L -140.22423275849215 222.74497592684799 L -140.22423275849215 219.74497592684799 L -100.22423275849215 219.74497592684799 L -100.22423275849215 222.74497592684799 L -63.22423275849216 222.74497592684799 L -63.22423275849216 262.744975926848 L -60.22423275849216 262.744975926848 L -60.22423275849216 292.744975926848 L -63.22423275849216 292.744975926848 L -63.22423275849215 322.744975926848 L -60.22423275849216 322.744975926848 L -60.22423275849215 352.744975926848 L -63.22423275849215 352.744975926848 L -63.22423275849215 382.744975926848 L -83.22423275849215 382.744975926848 L -83.22423275849215 379.744975926848 L -237.22423275849215 379.744975926848 L -237.22423275849215 382.744975926848 L -257.2242327584921 382.744975926848 L -257.2242327584922 352.744975926848 L -260.2242327584922 352.744975926848 L -260.2242327584922 322.744975926848 L -257.2242327584922 322.744975926848 L -257.2242327584922 292.744975926848 L -260.2242327584922 292.744975926848 " stroke="#000000" stroke-width="0.35 px" style="stroke-width:0.35;stroke-miterlimit:4;stroke-dasharray:none;fill:none;fill-rule: evenodd "/>
<path id="Sketch_w0017"  d="M -217.76785216159664 195.2501987196976 L -217.76785216159672 185.2501987196976 L -214.76785216159672 185.25019871969792 L -214.76785216159664 195.25019871969792 L -217.76785216159664 195.2501987196976 " stroke="#000000" stroke-width="0.35 px" style="stroke-width:0.35;stroke-miterlimit:4;stroke-dasharray:none;fill:none;fill-rule: evenodd "/>
<path id="Sketch_w0018"  d="M -104.76785216159664 195.25019871969792 L -101.76785216159664 195.25019871969823 L -101.76785216159664 185.25019871969792 L -104.76785216159672 185.25019871969792 L -104.76785216159664 195.25019871969792 " stroke="#000000" stroke-width="0.35 px" style="stroke-width:0.35;stroke-miterlimit:4;stroke-dasharray:none;fill:none;fill-rule: evenodd "/>
<path id="Sketch_w0019"  d="M -213.93903554653585 443.90115890641465 L -235.92963278581618 443.90115890634866 L -235.93903554658178 440.90115890634866 L -255.90769301069648 440.90115890636173 L -255.93903554658178 430.9011589063581 L -258.93903554658175 430.90115890635946 L -258.97037808246705 420.90115890635946 L -255.93903554658178 420.90115890635803 L -255.93903554658178 410.90115890635803 L -235.93903554658178 410.90115890634866 L -235.93903554658178 407.90115890634866 L -213.93903554658178 407.90115890634866 L -213.9390355465281 420.90115890634866 L -216.9390355465281 420.9011589066132 L -216.9390355464868 430.9011589066132 L -213.9390355465281 430.9011589065881 L -213.93903554653585 443.90115890641465 " stroke="#000000" stroke-width="0.35 px" style="stroke-width:0.35;stroke-miterlimit:4;stroke-dasharray:none;fill:none;fill-rule: evenodd "/>
<path id="Sketch_w0020"  d="M -274.1814021746808 220.0338460599649 L -274.1814021746808 223.0338460599649 L -271.1814021746808 223.0338460599649 L -271.1814021746808 263.0338460599649 L -274.1814021746808 263.0338460599649 L -274.1814021746808 293.0338460599649 L -271.1814021746808 293.0338460599649 L -271.1814021746808 323.0338460599649 L -274.1814021746808 323.0338460599649 L -274.1814021746808 353.0338460599649 L -271.1814021746808 353.0338460599649 L -271.1814021746808 383.0338460599649 L -284.1814021746808 383.0338460599649 L -284.1814021746808 380.0338460599649 L -294.1814021746808 380.0338460599649 L -294.1814021746808 383.0338460599649 L -307.1814021746808 383.0338460599649 L -307.1814021746808 353.0338460599649 L -304.1814021746808 353.0338460599649 L -304.1814021746808 323.0338460599649 L -307.1814021746808 323.0338460599649 L -307.1814021746808 293.0338460599649 L -304.1814021746808 293.0338460599649 L -304.1814021746808 263.0338460599649 L -307.1814021746808 263.0338460599649 L -307.1814021746808 223.0338460599649 L -304.1814021746808 223.0338460599649 L -304.1814021746808 220.0338460599649 L -274.1814021746808 220.0338460599649 " stroke="#000000" stroke-width="0.35 px" style="stroke-width:0.35;stroke-miterlimit:4;stroke-dasharray:none;fill:none;fill-rule: evenodd "/>
<path id="Sketch_w0021"  d="M -327.5922682747824 380.15237882710613 L -327.5922682747824 223.15237882710613 L -337.5922682747824 223.15237882710613 L -337.5922682747824 220.15237882710613 L -347.5922682747824 220.15237882710613 L -347.5922682747824 223.15237882710613 L -357.5922682747824 223.15237882710613 L -357.5922682747824 380.2242094814229 L -347.5922682747824 380.2242094814229 L -347.5922682747824 383.2242094814229 L -337.5922682747824 383.2242094814229 L -337.5922682747824 380.15237882710613 L -327.5922682747824 380.15237882710613 " stroke="#000000" stroke-width="0.35 px" style="stroke-width:0.35;stroke-miterlimit:4;stroke-dasharray:none;fill:none;fill-rule: evenodd "/>
<path id="Sketch_w0022"  d="M -471.45675493186 70.46192601014234 L -471.45700304470046 30.461926010142335 L -448.45700304470046 30.461926010142328 L -448.4570216531635 27.461926010142335 L -408.4570216531635 27.461926010142328 L -408.45700304470046 30.461926010142328 L -388.45700304470046 30.461926010142328 L -388.4570216531635 27.46192601014233 L -348.4570216531635 27.461926010142328 L -348.45700304470046 30.461926010142328 L -301.45619667796916 30.46192601014232 L -301.45619667796916 70.46192601014232 L -298.45619667796916 70.46192601014232 L -298.45619667796916 100.46192601014232 L -301.45619667796916 100.46192601014232 L -301.45619667796916 130.46192601014232 L -298.45619667796916 130.46192601014232 L -298.45619667796916 160.46192601014232 L -301.45619667796916 160.46192601014232 L -301.45619667796916 190.46192601014232 L -321.45619667796916 190.46192601014232 L -321.45619667796916 187.46192600847783 L -343.4561966779691 187.46192600847783 L -343.45619667796916 160.46192600847783 L -453.45619667796916 160.46192600847783 L -453.4561966779691 182.46192600847783 L -457.4561966779691 182.46192600847783 L -457.4561966779691 187.46192600847783 L -475.4561966779691 187.46192600847783 L -475.4561966779691 190.46192600847783 L -495.4561966779691 190.46192600847783 L -495.45638276259945 160.46192600847783 L -498.45619667796916 160.46192600847783 L -498.45638276259945 130.46192600903265 L -495.45638276259945 130.46192600903265 L -495.45656884722973 100.4619260095875 L -498.45656884722973 100.4619260095875 L -498.45675493186 70.46192601014234 L -471.45675493186 70.46192601014234 " stroke="#000000" stroke-width="0.35 px" style="stroke-width:0.35;stroke-miterlimit:4;stroke-dasharray:none;fill:none;fill-rule: evenodd "/>
<circle cx="-229.22423275849215" cy="244.74497592684799" r="10.0" stroke="#000000" stroke-width="0.35 px" style="stroke-width:0.35;stroke-miterlimit:4;stroke-dasharray:none;fill:none"/>
<circle cx="-29.845029574951273" cy="15.258625819242766" r="1.6" stroke="#000000" stroke-width="0.35 px" style="stroke-width:0.35;stroke-miterlimit:4;stroke-dasharray:none;fill:none"/>
<circle cx="-17.845029574732486" cy="15.258625819242766" r="1.6" stroke="#000000" stroke-width="0.35 px" style="stroke-width:0.35;stroke-miterlimit:4;stroke-dasharray:none;fill:none"/>
<circle cx="-462.85675493186005" cy="55.46192601014233" r="1.6" stroke="#000000" stroke-width="0.35 px" style="stroke-width:0.35;stroke-miterlimit:4;stroke-dasharray:none;fill:none"/>
<circle cx="-444.95675493186" cy="55.46192601014233" r="1.6" stroke="#000000" stroke-width="0.35 px" style="stroke-width:0.35;stroke-miterlimit:4;stroke-dasharray:none;fill:none"/>
<circle cx="-351.95675493186" cy="55.46192601014233" r="1.6" stroke="#000000" stroke-width="0.35 px" style="stroke-width:0.35;stroke-miterlimit:4;stroke-dasharray:none;fill:none"/>
<circle cx="-334.05675493186004" cy="55.46192601014233" r="1.6" stroke="#000000" stroke-width="0.35 px" style="stroke-width:0.35;stroke-miterlimit:4;stroke-dasharray:none;fill:none"/>
<path id="Sketch_w0030"  d="M -464.7022354853352 257.3391952485034 L -464.7022354853352 260.3391952485034 L -415.7022354853352 260.3391952485034 L -415.7022354853352 257.3391952485034 L -385.7022354853352 257.3391952485034 L -385.7022354853352 224.3391952485034 L -494.7022354853352 224.3391952485034 L -494.7022354853352 257.3391952485034 L -464.7022354853352 257.3391952485034 " stroke="#000000" stroke-width="0.35 px" style="stroke-width:0.35;stroke-miterlimit:4;stroke-dasharray:none;fill:none;fill-rule: evenodd "/>
<path id="Sketch_w0031"  d="M -502.6150478595684 306.5969548692026 L -393.6150478297204 306.59695444992565 L -393.63089194766843 276.5969656389024 L -393.63089217662315 276.5969656389022 L -423.6308926059902 276.5969798558082 L -423.6309123119396 279.5969798813661 L -472.61502866318466 279.5968478179778 L -472.6149985641519 276.5969798888325 L -502.6149974393609 276.5969548947319 L -504.549438 279.825745 " stroke="#000000" stroke-width="0.35 px" style="stroke-width:0.35;stroke-miterlimit:4;stroke-dasharray:none;fill:none;fill-rule: evenodd "/>
<circle cx="-407.40619667796915" cy="148.46192600847783" r="1.6" stroke="#000000" stroke-width="0.35 px" style="stroke-width:0.35;stroke-miterlimit:4;stroke-dasharray:none;fill:none"/>
<circle cx="-389.5061966779691" cy="148.46192600847783" r="1.6" stroke="#000000" stroke-width="0.35 px" style="stroke-width:0.35;stroke-miterlimit:4;stroke-dasharray:none;fill:none"/>
<circle cx="-457.065047794562" cy="296.59695485439613" r="1.6" stroke="#000000" stroke-width="0.35 px" style="stroke-width:0.35;stroke-miterlimit:4;stroke-dasharray:none;fill:none"/>
<circle cx="-439.1650477612059" cy="296.59695484698415" r="1.6" stroke="#000000" stroke-width="0.35 px" style="stroke-width:0.35;stroke-miterlimit:4;stroke-dasharray:none;fill:none"/>
<path id="Sketch_w0036"  d="M -189.0380781942062 431.17676694573936 L -189.0380781942062 421.17676694573936 L -186.0380781942062 421.17676694573936 L -186.0380781942062 411.17676694573936 L -166.0380781942062 411.17676694573936 L -166.0380781942062 408.17676694573936 L -150.03807819421053 408.17676694573936 L -150.03807819421053 411.17676694573936 L -144.03807819421053 411.1767669457767 L -144.03807819420624 421.1767669457767 L -147.03807819420624 421.176766945758 L -147.03807819420192 431.176766945758 L -144.03807819420624 431.176766945758 L -144.0380781942062 444.17676694573936 L -166.0380781942062 444.17676694573936 L -166.0380781942062 441.17676694573936 L -186.0380781942062 441.17676694573936 L -186.0380781942062 431.17676694573936 L -189.0380781942062 431.17676694573936 " stroke="#000000" stroke-width="0.35 px" style="stroke-width:0.35;stroke-miterlimit:4;stroke-dasharray:none;fill:none;fill-rule: evenodd "/>
<title>b'Sketch'</title>
</g>
</svg>