<?xml version="1.0"?>
<!DOCTYPE svg PUBLIC "-//W3C//DTD SVG 1.1//EN" "http://www.w3.org/Graphics/SVG/1.1/DTD/svg11.dtd">
<svg width="203.99999999999997mm" height="404.0mm" viewBox="0 0 203.99999999999997 404.0" xmlns="http://www.w3.org/2000/svg" version="1.1">
<g id="Sketch" transform="translate(202.000000,412.000000) scale(1,-1)">
<path id="Sketch_w0000"  d="M -2.842170943040401e-14 370.00000000000006 A 145 145 0 0 1 -200 370L -199.99999999999994 39.99999999999997 A 181.667 181.667 0 0 1 -1.13687e-13 40L -2.842170943040401e-14 370.00000000000006 " stroke="#000000" stroke-width="0.35 px" style="stroke-width:0.35;stroke-miterlimit:4;stroke-dasharray:none;fill:none;fill-rule: evenodd "/>
<circle cx="-140.89999999999998" cy="65.0" r="3.1" stroke="#000000" stroke-width="0.35 px" style="stroke-width:0.35;stroke-miterlimit:4;stroke-dasharray:none;fill:none"/>
<circle cx="-58.1" cy="65.0" r="3.1" stroke="#000000" stroke-width="0.35 px" style="stroke-width:0.35;stroke-miterlimit:4;stroke-dasharray:none;fill:none"/>
<circle cx="-135.0" cy="366.2" r="3.1" stroke="#000000" stroke-width="0.35 px" style="stroke-width:0.35;stroke-miterlimit:4;stroke-dasharray:none;fill:none"/>
<circle cx="-65.0" cy="366.2" r="3.1" stroke="#000000" stroke-width="0.35 px" style="stroke-width:0.35;stroke-miterlimit:4;stroke-dasharray:none;fill:none"/>
<circle cx="-114.00000000000001" cy="195.2" r="2.1000000000000005" stroke="#000000" stroke-width="0.35 px" style="stroke-width:0.35;stroke-miterlimit:4;stroke-dasharray:none;fill:none"/>
<circle cx="-74.00000000000001" cy="195.2" r="10.0" stroke="#000000" stroke-width="0.35 px" style="stroke-width:0.35;stroke-miterlimit:4;stroke-dasharray:none;fill:none"/>
<path id="Sketch_w0007"  d="M -180.00000000000003 310.0 L -160.00000000000003 310.0 L -160.00000000000003 306.9 L -180.00000000000003 306.9 L -180.00000000000003 310.0 " stroke="#000000" stroke-width="0.35 px" style="stroke-width:0.35;stroke-miterlimit:4;stroke-dasharray:none;fill:none;fill-rule: evenodd "/>
<path id="Sketch_w0008"  d="M -40.00000000000002 310.0 L -20.00000000000002 310.0 L -20.00000000000002 306.9 L -40.00000000000002 306.9 L -40.00000000000002 310.0 " stroke="#000000" stroke-width="0.35 px" style="stroke-width:0.35;stroke-miterlimit:4;stroke-dasharray:none;fill:none;fill-rule: evenodd "/>
<path id="Sketch_w0009"  d="M -180.00000000000003 280.0 L -160.00000000000003 280.0 L -160.00000000000003 276.9 L -180.00000000000003 276.9 L -180.00000000000003 280.0 " stroke="#000000" stroke-width="0.35 px" style="stroke-width:0.35;stroke-miterlimit:4;stroke-dasharray:none;fill:none;fill-rule: evenodd "/>
<path id="Sketch_w0010"  d="M -180.00000000000003 340.0 L -160.00000000000003 340.0 L -160.00000000000003 336.9 L -180.00000000000003 336.9 L -180.00000000000003 340.0 " stroke="#000000" stroke-width="0.35 px" style="stroke-width:0.35;stroke-miterlimit:4;stroke-dasharray:none;fill:none;fill-rule: evenodd "/>
<path id="Sketch_w0011"  d="M -40.00000000000002 340.0 L -20.00000000000002 340.0 L -20.00000000000002 336.9 L -40.00000000000002 336.9 L -40.00000000000002 340.0 " stroke="#000000" stroke-width="0.35 px" style="stroke-width:0.35;stroke-miterlimit:4;stroke-dasharray:none;fill:none;fill-rule: evenodd "/>
<path id="Sketch_w0012"  d="M -40.00000000000002 280.0 L -20.00000000000002 280.0 L -20.00000000000002 276.9 L -40.00000000000002 276.9 L -40.00000000000002 280.0 " stroke="#000000" stroke-width="0.35 px" style="stroke-width:0.35;stroke-miterlimit:4;stroke-dasharray:none;fill:none;fill-rule: evenodd "/>
<path id="Sketch_w0013"  d="M -180.00000000000003 370.0 L -160.00000000000003 370.0 L -160.00000000000003 366.9 L -180.00000000000003 366.9 L -180.00000000000003 370.0 " stroke="#000000" stroke-width="0.35 px" style="stroke-width:0.35;stroke-miterlimit:4;stroke-dasharray:none;fill:none;fill-rule: evenodd "/>
<path id="Sketch_w0014"  d="M -40.00000000000002 370.0 L -20.00000000000002 370.0 L -20.00000000000002 366.9 L -40.00000000000002 366.9 L -40.00000000000002 370.0 " stroke="#000000" stroke-width="0.35 px" style="stroke-width:0.35;stroke-miterlimit:4;stroke-dasharray:none;fill:none;fill-rule: evenodd "/>
<path id="Sketch_w0015"  d="M -180.00000000000003 250.0 L -160.00000000000003 250.0 L -160.00000000000003 246.9 L -180.00000000000003 246.9 L -180.00000000000003 250.0 " stroke="#000000" stroke-width="0.35 px" style="stroke-width:0.35;stroke-miterlimit:4;stroke-dasharray:none;fill:none;fill-rule: evenodd "/>
<path id="Sketch_w0016"  d="M -40.00000000000002 246.9 L -20.00000000000002 246.9 L -20.00000000000002 250.0 L -40.00000000000002 250.0 L -40.00000000000002 246.9 " stroke="#000000" stroke-width="0.35 px" style="stroke-width:0.35;stroke-miterlimit:4;stroke-dasharray:none;fill:none;fill-rule: evenodd "/>
<path id="Sketch_w0017"  d="M -180.00000000000003 220.0 L -160.00000000000003 220.0 L -160.00000000000003 216.9 L -180.00000000000003 216.9 L -180.00000000000003 220.0 " stroke="#000000" stroke-width="0.35 px" style="stroke-width:0.35;stroke-miterlimit:4;stroke-dasharray:none;fill:none;fill-rule: evenodd "/>
<path id="Sketch_w0018"  d="M -40.00000000000002 220.0 L -20.00000000000002 220.0 L -20.00000000000002 216.9 L -40.00000000000002 216.9 L -40.00000000000002 220.0 " stroke="#000000" stroke-width="0.35 px" style="stroke-width:0.35;stroke-miterlimit:4;stroke-dasharray:none;fill:none;fill-rule: evenodd "/>
<path id="Sketch_w0019"  d="M -180.00000000000003 190.0 L -160.00000000000003 190.0 L -160.00000000000003 186.9 L -180.00000000000003 186.9 L -180.00000000000003 190.0 " stroke="#000000" stroke-width="0.35 px" style="stroke-width:0.35;stroke-miterlimit:4;stroke-dasharray:none;fill:none;fill-rule: evenodd "/>
<path id="Sketch_w0020"  d="M -40.00000000000002 190.0 L -20.00000000000002 190.0 L -20.00000000000002 186.9 L -40.00000000000002 186.9 L -40.00000000000002 190.0 " stroke="#000000" stroke-width="0.35 px" style="stroke-width:0.35;stroke-miterlimit:4;stroke-dasharray:none;fill:none;fill-rule: evenodd "/>
<path id="Sketch_w0021"  d="M -180.00000000000003 160.0 L -160.00000000000003 160.0 L -160.00000000000003 156.9 L -180.00000000000003 156.9 L -180.00000000000003 160.0 " stroke="#000000" stroke-width="0.35 px" style="stroke-width:0.35;stroke-miterlimit:4;stroke-dasharray:none;fill:none;fill-rule: evenodd "/>
<path id="Sketch_w0022"  d="M -40.00000000000002 160.0 L -20.00000000000002 160.0 L -20.00000000000002 156.9 L -40.00000000000002 156.9 L -40.00000000000002 160.0 " stroke="#000000" stroke-width="0.35 px" style="stroke-width:0.35;stroke-miterlimit:4;stroke-dasharray:none;fill:none;fill-rule: evenodd "/>
<path id="Sketch_w0023"  d="M -180.00000000000003 40.0 L -160.00000000000003 40.0 L -160.00000000000003 36.9 L -180.00000000000003 36.9 L -180.00000000000003 40.0 " stroke="#000000" stroke-width="0.35 px" style="stroke-width:0.35;stroke-miterlimit:4;stroke-dasharray:none;fill:none;fill-rule: evenodd "/>
<path id="Sketch_w0024"  d="M -40.00000000000002 40.0 L -20.00000000000002 40.0 L -20.00000000000002 36.9 L -40.00000000000002 36.9 L -40.00000000000002 40.0 " stroke="#000000" stroke-width="0.35 px" style="stroke-width:0.35;stroke-miterlimit:4;stroke-dasharray:none;fill:none;fill-rule: evenodd "/>
<path id="Sketch_w0025"  d="M -180.00000000000003 130.0 L -160.00000000000003 130.0 L -160.00000000000003 126.9 L -180.00000000000003 126.9 L -180.00000000000003 130.0 " stroke="#000000" stroke-width="0.35 px" style="stroke-width:0.35;stroke-miterlimit:4;stroke-dasharray:none;fill:none;fill-rule: evenodd "/>
<path id="Sketch_w0026"  d="M -180.00000000000003 100.0 L -160.00000000000003 100.0 L -160.00000000000003 96.9 L -180.00000000000003 96.9 L -180.00000000000003 100.0 " stroke="#000000" stroke-width="0.35 px" style="stroke-width:0.35;stroke-miterlimit:4;stroke-dasharray:none;fill:none;fill-rule: evenodd "/>
<path id="Sketch_w0027"  d="M -180.00000000000003 70.0 L -160.00000000000003 70.0 L -160.00000000000003 66.9 L -180.00000000000003 66.9 L -180.00000000000003 70.0 " stroke="#000000" stroke-width="0.35 px" style="stroke-width:0.35;stroke-miterlimit:4;stroke-dasharray:none;fill:none;fill-rule: evenodd "/>
<path id="Sketch_w0028"  d="M -40.00000000000002 130.0 L -20.00000000000002 130.0 L -20.00000000000002 126.9 L -40.00000000000002 126.9 L -40.00000000000002 130.0 " stroke="#000000" stroke-width="0.35 px" style="stroke-width:0.35;stroke-miterlimit:4;stroke-dasharray:none;fill:none;fill-rule: evenodd "/>
<path id="Sketch_w0029"  d="M -40.00000000000002 100.0 L -20.00000000000002 100.0 L -20.00000000000002 96.9 L -40.00000000000002 96.9 L -40.00000000000002 100.0 " stroke="#000000" stroke-width="0.35 px" style="stroke-width:0.35;stroke-miterlimit:4;stroke-dasharray:none;fill:none;fill-rule: evenodd "/>
<path id="Sketch_w0030"  d="M -40.00000000000002 70.0 L -20.00000000000002 70.0 L -20.00000000000002 66.9 L -40.00000000000002 66.9 L -40.00000000000002 70.0 " stroke="#000000" stroke-width="0.35 px" style="stroke-width:0.35;stroke-miterlimit:4;stroke-dasharray:none;fill:none;fill-rule: evenodd "/>
<path id="Sketch_w0031"  d="M -116.55000000000003 40.0 L -113.45000000000002 40.0 L -113.45000000000002 20.0 L -116.55000000000003 20.0 L -116.55000000000003 40.0 " stroke="#000000" stroke-width="0.35 px" style="stroke-width:0.35;stroke-miterlimit:4;stroke-dasharray:none;fill:none;fill-rule: evenodd "/>
<path id="Sketch_w0032"  d="M -86.55000000000003 40.0 L -83.45000000000002 40.0 L -83.45000000000002 20.0 L -86.55000000000003 20.0 L -86.55000000000003 40.0 " stroke="#000000" stroke-width="0.35 px" style="stroke-width:0.35;stroke-miterlimit:4;stroke-dasharray:none;fill:none;fill-rule: evenodd "/>
<path id="Sketch_w0033"  d="M -116.55000000000003 90.0 L -113.45000000000002 90.0 L -113.45000000000002 70.0 L -116.55000000000003 70.0 L -116.55000000000003 90.0 " stroke="#000000" stroke-width="0.35 px" style="stroke-width:0.35;stroke-miterlimit:4;stroke-dasharray:none;fill:none;fill-rule: evenodd "/>
<path id="Sketch_w0034"  d="M -116.55000000000003 140.0 L -113.45000000000002 140.0 L -113.45000000000002 120.0 L -116.55000000000003 120.0 L -116.55000000000003 140.0 " stroke="#000000" stroke-width="0.35 px" style="stroke-width:0.35;stroke-miterlimit:4;stroke-dasharray:none;fill:none;fill-rule: evenodd "/>
<path id="Sketch_w0035"  d="M -116.55000000000003 190.0 L -113.45000000000002 190.0 L -113.45000000000002 170.0 L -116.55000000000003 170.0 L -116.55000000000003 190.0 " stroke="#000000" stroke-width="0.35 px" style="stroke-width:0.35;stroke-miterlimit:4;stroke-dasharray:none;fill:none;fill-rule: evenodd "/>
<path id="Sketch_w0036"  d="M -86.55000000000003 90.0 L -83.45000000000002 90.0 L -83.45000000000002 70.0 L -86.55000000000003 70.0 L -86.55000000000003 90.0 " stroke="#000000" stroke-width="0.35 px" style="stroke-width:0.35;stroke-miterlimit:4;stroke-dasharray:none;fill:none;fill-rule: evenodd "/>
<path id="Sketch_w0037"  d="M -86.55000000000003 140.0 L -83.45000000000002 140.0 L -83.45000000000002 120.0 L -86.55000000000003 120.0 L -86.55000000000003 140.0 " stroke="#000000" stroke-width="0.35 px" style="stroke-width:0.35;stroke-miterlimit:4;stroke-dasharray:none;fill:none;fill-rule: evenodd "/>
<path id="Sketch_w0038"  d="M -86.55000000000003 190.0 L -83.45000000000002 190.0 L -83.45000000000002 170.0 L -86.55000000000003 170.0 L -86.55000000000003 190.0 " stroke="#000000" stroke-width="0.35 px" style="stroke-width:0.35;stroke-miterlimit:4;stroke-dasharray:none;fill:none;fill-rule: evenodd "/>
<path id="Sketch_w0039"  d="M -116.55000000000003 270.0 L -113.45000000000002 270.0 L -113.45000000000002 250.0 L -116.55000000000003 250.0 L -116.55000000000003 270.0 " stroke="#000000" stroke-width="0.35 px" style="stroke-width:0.35;stroke-miterlimit:4;stroke-dasharray:none;fill:none;fill-rule: evenodd "/>
<path id="Sketch_w0040"  d="M -86.55000000000003 270.0 L -83.45000000000002 270.0 L -83.45000000000002 250.0 L -86.55000000000003 250.0 L -86.55000000000003 270.0 " stroke="#000000" stroke-width="0.35 px" style="stroke-width:0.35;stroke-miterlimit:4;stroke-dasharray:none;fill:none;fill-rule: evenodd "/>
<path id="Sketch_w0041"  d="M -116.55000000000003 320.0 L -113.45000000000002 320.0 L -113.45000000000002 300.0 L -116.55000000000003 300.0 L -116.55000000000003 320.0 " stroke="#000000" stroke-width="0.35 px" style="stroke-width:0.35;stroke-miterlimit:4;stroke-dasharray:none;fill:none;fill-rule: evenodd "/>
<path id="Sketch_w0042"  d="M -86.55000000000003 320.0 L -83.45000000000002 320.0 L -83.45000000000002 300.0 L -86.55000000000003 300.0 L -86.55000000000003 320.0 " stroke="#000000" stroke-width="0.35 px" style="stroke-width:0.35;stroke-miterlimit:4;stroke-dasharray:none;fill:none;fill-rule: evenodd "/>
<path id="Sketch_w0043"  d="M -116.55000000000003 405.0 L -113.45000000000002 405.0 L -113.45000000000002 385.0 L -116.55000000000003 385.0 L -116.55000000000003 405.0 " stroke="#000000" stroke-width="0.35 px" style="stroke-width:0.35;stroke-miterlimit:4;stroke-dasharray:none;fill:none;fill-rule: evenodd "/>
<path id="Sketch_w0044"  d="M -86.55000000000003 405.0 L -83.45000000000002 405.0 L -83.45000000000002 385.0 L -86.55000000000003 385.0 L -86.55000000000003 405.0 " stroke="#000000" stroke-width="0.35 px" style="stroke-width:0.35;stroke-miterlimit:4;stroke-dasharray:none;fill:none;fill-rule: evenodd "/>
<path id="Sketch_w0045"  d="M -116.55000000000003 370.0 L -113.45000000000002 370.0 L -113.45000000000002 350.0 L -116.55000000000003 350.0 L -116.55000000000003 370.0 " stroke="#000000" stroke-width="0.35 px" style="stroke-width:0.35;stroke-miterlimit:4;stroke-dasharray:none;fill:none;fill-rule: evenodd "/>
<path id="Sketch_w0046"  d="M -86.55000000000003 370.0 L -83.45000000000002 370.0 L -83.45000000000002 350.0 L -86.55000000000003 350.0 L -86.55000000000003 370.0 " stroke="#000000" stroke-width="0.35 px" style="stroke-width:0.35;stroke-miterlimit:4;stroke-dasharray:none;fill:none;fill-rule: evenodd "/>
<circle cx="-191.654617" cy="397.279297" r="4.275372" stroke="#000000" stroke-width="0.35 px" style="stroke-width:0.35;stroke-miterlimit:4;stroke-dasharray:none;fill:none"/>
<circle cx="-179.768158" cy="401.956604" r="2.624543" stroke="#000000" stroke-width="0.35 px" style="stroke-width:0.35;stroke-miterlimit:4;stroke-dasharray:none;fill:none"/>
<title>b'Sketch'</title>
</g>
</svg>