  0
SECTION
  2
HEADER
  9
$ACADVER
  1
AC1009
  9
$INSBASE
 10
0.0
 20
0.0
 30
0.0
  9
$EXTMIN
 10
0.0
 20
0.0
 30
0.0
  9
$EXTMAX
 10
0.0
 20
0.0
 30
0.0
  0
ENDSEC
  0
SECTION
  2
TABLES
  0
TABLE
  2
VPORT
 70
0
  0
ENDTAB
  0
TABLE
  2
LTYPE
 70
1
  0
LTYPE
  2
CONTINUOUS
 70
0
  3
Solid line
 72
65
 73
0
 40
0.0
  0
ENDTAB
  0
TABLE
  2
LAYER
 70
1
  0
LAYER
  2
0
 70
64
 62
7
  6
continuous
  0
ENDTAB
  0
TABLE
  2
STYLE
 70
1
  0
STYLE
  2
STANDARD
 70
0
 40
0
 41
1.0
 50
0.0
 71
0
 42
1
 3
ARIAL.TTF
 4

  0
ENDTAB
  0
TABLE
  2
VIEW
 70
0
  0
ENDTAB
  0
ENDSEC
  0
SECTION
  2
BLOCKS
  0
BLOCK
  8
0
  2
SKETCH
 70
0
 10
0.0
 20
0.0
 30
0.0
  3
SKETCH
  0
POLYLINE
  8
0
 62
7
 70
1
 66
1
 10
0.0
 20
0.0
 30
0.0
  0
VERTEX
  8
0
 10
-4.3e-14
 20
370.0
 30
0.0
 42
0.40000000000000013
  0
VERTEX
  8
0
 10
-200.0
 20
370.0
 30
0.0
  0
VERTEX
  8
0
 10
-200.00000000000003
 20
40.000000000000014
 30
0.0
 42
0.30000000000000016
  0
VERTEX
  8
0
 10
2.7000000000000163e-16
 20
40.0
 30
0.0
  0
SEQEND
  8
0
  0
CIRCLE
  8
0
 62
7
 10
-140.89999999999998
 20
65.0
 30
0.0
 40
3.1
  0
CIRCLE
  8
0
 62
7
 10
-58.1
 20
65.0
 30
0.0
 40
3.1
  0
CIRCLE
  8
0
 62
7
 10
-135.0
 20
366.2
 30
0.0
 40
3.1
  0
CIRCLE
  8
0
 62
7
 10
-65.0
 20
366.2
 30
0.0
 40
3.1
  0
CIRCLE
  8
0
 62
7
 10
-114.00000000000001
 20
195.2
 30
0.0
 40
2.1000000000000005
  0
CIRCLE
  8
0
 62
7
 10
-74.00000000000001
 20
195.2
 30
0.0
 40
10.0
  0
POLYLINE
  8
0
 62
7
 70
1
 66
1
 10
0.0
 20
0.0
 30
0.0
  0
VERTEX
  8
0
 10
-180.00000000000003
 20
310.0
 30
0.0
  0
VERTEX
  8
0
 10
-160.00000000000003
 20
310.0
 30
0.0
  0
VERTEX
  8
0
 10
-160.00000000000003
 20
306.9
 30
0.0
  0
VERTEX
  8
0
 10
-180.00000000000003
 20
306.9
 30
0.0
  0
SEQEND
  8
0
  0
POLYLINE
  8
0
 62
7
 70
1
 66
1
 10
0.0
 20
0.0
 30
0.0
  0
VERTEX
  8
0
 10
-40.00000000000002
 20
310.0
 30
0.0
  0
VERTEX
  8
0
 10
-20.00000000000002
 20
310.0
 30
0.0
  0
VERTEX
  8
0
 10
-20.00000000000002
 20
306.9
 30
0.0
  0
VERTEX
  8
0
 10
-40.00000000000002
 20
306.9
 30
0.0
  0
SEQEND
  8
0
  0
POLYLINE
  8
0
 62
7
 70
1
 66
1
 10
0.0
 20
0.0
 30
0.0
  0
VERTEX
  8
0
 10
-180.00000000000003
 20
280.0
 30
0.0
  0
VERTEX
  8
0
 10
-160.00000000000003
 20
280.0
 30
0.0
  0
VERTEX
  8
0
 10
-160.00000000000003
 20
276.9
 30
0.0
  0
VERTEX
  8
0
 10
-180.00000000000003
 20
276.9
 30
0.0
  0
SEQEND
  8
0
  0
POLYLINE
  8
0
 62
7
 70
1
 66
1
 10
0.0
 20
0.0
 30
0.0
  0
VERTEX
  8
0
 10
-180.00000000000003
 20
340.0
 30
0.0
  0
VERTEX
  8
0
 10
-160.00000000000003
 20
340.0
 30
0.0
  0
VERTEX
  8
0
 10
-160.00000000000003
 20
336.9
 30
0.0
  0
VERTEX
  8
0
 10
-180.00000000000003
 20
336.9
 30
0.0
  0
SEQEND
  8
0
  0
POLYLINE
  8
0
 62
7
 70
1
 66
1
 10
0.0
 20
0.0
 30
0.0
  0
VERTEX
  8
0
 10
-40.00000000000002
 20
340.0
 30
0.0
  0
VERTEX
  8
0
 10
-20.00000000000002
 20
340.0
 30
0.0
  0
VERTEX
  8
0
 10
-20.00000000000002
 20
336.9
 30
0.0
  0
VERTEX
  8
0
 10
-40.00000000000002
 20
336.9
 30
0.0
  0
SEQEND
  8
0
  0
POLYLINE
  8
0
 62
7
 70
1
 66
1
 10
0.0
 20
0.0
 30
0.0
  0
VERTEX
  8
0
 10
-40.00000000000002
 20
280.0
 30
0.0
  0
VERTEX
  8
0
 10
-20.00000000000002
 20
280.0
 30
0.0
  0
VERTEX
  8
0
 10
-20.00000000000002
 20
276.9
 30
0.0
  0
VERTEX
  8
0
 10
-40.00000000000002
 20
276.9
 30
0.0
  0
SEQEND
  8
0
  0
POLYLINE
  8
0
 62
7
 70
1
 66
1
 10
0.0
 20
0.0
 30
0.0
  0
VERTEX
  8
0
 10
-180.00000000000003
 20
370.0
 30
0.0
  0
VERTEX
  8
0
 10
-160.00000000000003
 20
370.0
 30
0.0
  0
VERTEX
  8
0
 10
-160.00000000000003
 20
366.9
 30
0.0
  0
VERTEX
  8
0
 10
-180.00000000000003
 20
366.9
 30
0.0
  0
SEQEND
  8
0
  0
POLYLINE
  8
0
 62
7
 70
1
 66
1
 10
0.0
 20
0.0
 30
0.0
  0
VERTEX
  8
0
 10
-40.00000000000002
 20
370.0
 30
0.0
  0
VERTEX
  8
0
 10
-20.00000000000002
 20
370.0
 30
0.0
  0
VERTEX
  8
0
 10
-20.00000000000002
 20
366.9
 30
0.0
  0
VERTEX
  8
0
 10
-40.00000000000002
 20
366.9
 30
0.0
  0
SEQEND
  8
0
  0
POLYLINE
  8
0
 62
7
 70
1
 66
1
 10
0.0
 20
0.0
 30
0.0
  0
VERTEX
  8
0
 10
-180.00000000000003
 20
250.0
 30
0.0
  0
VERTEX
  8
0
 10
-160.00000000000003
 20
250.0
 30
0.0
  0
VERTEX
  8
0
 10
-160.00000000000003
 20
246.9
 30
0.0
  0
VERTEX
  8
0
 10
-180.00000000000003
 20
246.9
 30
0.0
  0
SEQEND
  8
0
  0
POLYLINE
  8
0
 62
7
 70
1
 66
1
 10
0.0
 20
0.0
 30
0.0
  0
VERTEX
  8
0
 10
-40.00000000000002
 20
246.9
 30
0.0
  0
VERTEX
  8
0
 10
-20.00000000000002
 20
246.9
 30
0.0
  0
VERTEX
  8
0
 10
-20.00000000000002
 20
250.0
 30
0.0
  0
VERTEX
  8
0
 10
-40.00000000000002
 20
250.0
 30
0.0
  0
SEQEND
  8
0
  0
POLYLINE
  8
0
 62
7
 70
1
 66
1
 10
0.0
 20
0.0
 30
0.0
  0
VERTEX
  8
0
 10
-180.00000000000003
 20
220.0
 30
0.0
  0
VERTEX
  8
0
 10
-160.00000000000003
 20
220.0
 30
0.0
  0
VERTEX
  8
0
 10
-160.00000000000003
 20
216.9
 30
0.0
  0
VERTEX
  8
0
 10
-180.00000000000003
 20
216.9
 30
0.0
  0
SEQEND
  8
0
  0
POLYLINE
  8
0
 62
7
 70
1
 66
1
 10
0.0
 20
0.0
 30
0.0
  0
VERTEX
  8
0
 10
-40.00000000000002
 20
220.0
 30
0.0
  0
VERTEX
  8
0
 10
-20.00000000000002
 20
220.0
 30
0.0
  0
VERTEX
  8
0
 10
-20.00000000000002
 20
216.9
 30
0.0
  0
VERTEX
  8
0
 10
-40.00000000000002
 20
216.9
 30
0.0
  0
SEQEND
  8
0
  0
POLYLINE
  8
0
 62
7
 70
1
 66
1
 10
0.0
 20
0.0
 30
0.0
  0
VERTEX
  8
0
 10
-180.00000000000003
 20
190.0
 30
0.0
  0
VERTEX
  8
0
 10
-160.00000000000003
 20
190.0
 30
0.0
  0
VERTEX
  8
0
 10
-160.00000000000003
 20
186.9
 30
0.0
  0
VERTEX
  8
0
 10
-180.00000000000003
 20
186.9
 30
0.0
  0
SEQEND
  8
0
  0
POLYLINE
  8
0
 62
7
 70
1
 66
1
 10
0.0
 20
0.0
 30
0.0
  0
VERTEX
  8
0
 10
-40.00000000000002
 20
190.0
 30
0.0
  0
VERTEX
  8
0
 10
-20.00000000000002
 20
190.0
 30
0.0
  0
VERTEX
  8
0
 10
-20.00000000000002
 20
186.9
 30
0.0
  0
VERTEX
  8
0
 10
-40.00000000000002
 20
186.9
 30
0.0
  0
SEQEND
  8
0
  0
POLYLINE
  8
0
 62
7
 70
1
 66
1
 10
0.0
 20
0.0
 30
0.0
  0
VERTEX
  8
0
 10
-180.00000000000003
 20
160.0
 30
0.0
  0
VERTEX
  8
0
 10
-160.00000000000003
 20
160.0
 30
0.0
  0
VERTEX
  8
0
 10
-160.00000000000003
 20
156.9
 30
0.0
  0
VERTEX
  8
0
 10
-180.00000000000003
 20
156.9
 30
0.0
  0
SEQEND
  8
0
  0
POLYLINE
  8
0
 62
7
 70
1
 66
1
 10
0.0
 20
0.0
 30
0.0
  0
VERTEX
  8
0
 10
-40.00000000000002
 20
160.0
 30
0.0
  0
VERTEX
  8
0
 10
-20.00000000000002
 20
160.0
 30
0.0
  0
VERTEX
  8
0
 10
-20.00000000000002
 20
156.9
 30
0.0
  0
VERTEX
  8
0
 10
-40.00000000000002
 20
156.9
 30
0.0
  0
SEQEND
  8
0
  0
POLYLINE
  8
0
 62
7
 70
1
 66
1
 10
0.0
 20
0.0
 30
0.0
  0
VERTEX
  8
0
 10
-180.00000000000003
 20
43.1
 30
0.0
  0
VERTEX
  8
0
 10
-160.00000000000003
 20
43.1
 30
0.0
  0
VERTEX
  8
0
 10
-160.00000000000003
 20
40.0
 30
0.0
  0
VERTEX
  8
0
 10
-180.00000000000003
 20
40.0
 30
0.0
  0
SEQEND
  8
0
  0
POLYLINE
  8
0
 62
7
 70
1
 66
1
 10
0.0
 20
0.0
 30
0.0
  0
VERTEX
  8
0
 10
-40.00000000000002
 20
40.0
 30
0.0
  0
VERTEX
  8
0
 10
-20.00000000000002
 20
40.0
 30
0.0
  0
VERTEX
  8
0
 10
-20.00000000000002
 20
36.9
 30
0.0
  0
VERTEX
  8
0
 10
-40.00000000000002
 20
36.9
 30
0.0
  0
SEQEND
  8
0
  0
POLYLINE
  8
0
 62
7
 70
1
 66
1
 10
0.0
 20
0.0
 30
0.0
  0
VERTEX
  8
0
 10
-180.00000000000003
 20
130.0
 30
0.0
  0
VERTEX
  8
0
 10
-160.00000000000003
 20
130.0
 30
0.0
  0
VERTEX
  8
0
 10
-160.00000000000003
 20
126.9
 30
0.0
  0
VERTEX
  8
0
 10
-180.00000000000003
 20
126.9
 30
0.0
  0
SEQEND
  8
0
  0
POLYLINE
  8
0
 62
7
 70
1
 66
1
 10
0.0
 20
0.0
 30
0.0
  0
VERTEX
  8
0
 10
-180.00000000000003
 20
100.0
 30
0.0
  0
VERTEX
  8
0
 10
-160.00000000000003
 20
100.0
 30
0.0
  0
VERTEX
  8
0
 10
-160.00000000000003
 20
96.9
 30
0.0
  0
VERTEX
  8
0
 10
-180.00000000000003
 20
96.9
 30
0.0
  0
SEQEND
  8
0
  0
POLYLINE
  8
0
 62
7
 70
1
 66
1
 10
0.0
 20
0.0
 30
0.0
  0
VERTEX
  8
0
 10
-180.00000000000003
 20
70.0
 30
0.0
  0
VERTEX
  8
0
 10
-160.00000000000003
 20
70.0
 30
0.0
  0
VERTEX
  8
0
 10
-160.00000000000003
 20
66.9
 30
0.0
  0
VERTEX
  8
0
 10
-180.00000000000003
 20
66.9
 30
0.0
  0
SEQEND
  8
0
  0
POLYLINE
  8
0
 62
7
 70
1
 66
1
 10
0.0
 20
0.0
 30
0.0
  0
VERTEX
  8
0
 10
-40.00000000000002
 20
130.0
 30
0.0
  0
VERTEX
  8
0
 10
-20.00000000000002
 20
130.0
 30
0.0
  0
VERTEX
  8
0
 10
-20.00000000000002
 20
126.9
 30
0.0
  0
VERTEX
  8
0
 10
-40.00000000000002
 20
126.9
 30
0.0
  0
SEQEND
  8
0
  0
POLYLINE
  8
0
 62
7
 70
1
 66
1
 10
0.0
 20
0.0
 30
0.0
  0
VERTEX
  8
0
 10
-40.00000000000002
 20
100.0
 30
0.0
  0
VERTEX
  8
0
 10
-20.00000000000002
 20
100.0
 30
0.0
  0
VERTEX
  8
0
 10
-20.00000000000002
 20
96.9
 30
0.0
  0
VERTEX
  8
0
 10
-40.00000000000002
 20
96.9
 30
0.0
  0
SEQEND
  8
0
  0
POLYLINE
  8
0
 62
7
 70
1
 66
1
 10
0.0
 20
0.0
 30
0.0
  0
VERTEX
  8
0
 10
-40.00000000000002
 20
70.0
 30
0.0
  0
VERTEX
  8
0
 10
-20.00000000000002
 20
70.0
 30
0.0
  0
VERTEX
  8
0
 10
-20.00000000000002
 20
66.9
 30
0.0
  0
VERTEX
  8
0
 10
-40.00000000000002
 20
66.9
 30
0.0
  0
SEQEND
  8
0
  0
ENDBLK
  0
ENDSEC
  0
SECTION
  2
ENTITIES
  0
INSERT
  2
SKETCH
  8
0
 62
7
 10
0.0
 20
0.0
 30
0.0
  0
ENDSEC
  0
EOF
