G04 #@! TF.GenerationSoftware,KiCad,Pcbnew,5.1.4*
G04 #@! TF.CreationDate,2019-11-01T16:22:28+01:00*
G04 #@! TF.ProjectId,levelshifter,6c657665-6c73-4686-9966-7465722e6b69,rev?*
G04 #@! TF.SameCoordinates,Original*
G04 #@! TF.FileFunction,Copper,L1,Top*
G04 #@! TF.FilePolarity,Positive*
%FSLAX46Y46*%
G04 Gerber Fmt 4.6, Leading zero omitted, Abs format (unit mm)*
G04 Created by KiCad (PCBNEW 5.1.4) date 2019-11-01 16:22:28*
%MOMM*%
%LPD*%
G04 APERTURE LIST*
%ADD10R,1.700000X1.700000*%
%ADD11O,1.700000X1.700000*%
%ADD12R,0.800000X1.900000*%
%ADD13C,0.100000*%
%ADD14C,0.950000*%
%ADD15C,0.500000*%
%ADD16C,0.254000*%
G04 APERTURE END LIST*
D10*
X187000000Y-95000000D03*
D11*
X184460000Y-95000000D03*
D10*
X147000000Y-96000000D03*
D11*
X147000000Y-93460000D03*
X149540000Y-96000000D03*
X149540000Y-93460000D03*
X152080000Y-96000000D03*
X152080000Y-93460000D03*
X154620000Y-96000000D03*
X154620000Y-93460000D03*
X157160000Y-96000000D03*
X157160000Y-93460000D03*
X159700000Y-96000000D03*
X159700000Y-93460000D03*
X162240000Y-96000000D03*
X162240000Y-93460000D03*
X164780000Y-96000000D03*
X164780000Y-93460000D03*
D10*
X142000000Y-83000000D03*
D11*
X142000000Y-85540000D03*
X142000000Y-88080000D03*
X148000000Y-88080000D03*
X148000000Y-85540000D03*
D10*
X148000000Y-83000000D03*
X154000000Y-83000000D03*
D11*
X154000000Y-85540000D03*
X154000000Y-88080000D03*
X159975001Y-88080000D03*
X159975001Y-85540000D03*
D10*
X159975001Y-83000000D03*
X166000000Y-83000000D03*
D11*
X166000000Y-85540000D03*
X166000000Y-88080000D03*
X172000000Y-88080000D03*
X172000000Y-85540000D03*
D10*
X172000000Y-83000000D03*
X178000000Y-83000000D03*
D11*
X178000000Y-85540000D03*
X178000000Y-88080000D03*
X184000000Y-88080000D03*
X184000000Y-85540000D03*
D10*
X184000000Y-83000000D03*
X190000000Y-83000000D03*
D11*
X190000000Y-85540000D03*
X190000000Y-88080000D03*
X196000000Y-88080000D03*
X196000000Y-85540000D03*
D10*
X196000000Y-83000000D03*
D12*
X142000000Y-77500000D03*
X141050000Y-74500000D03*
X142950000Y-74500000D03*
X148950000Y-74500000D03*
X147050000Y-74500000D03*
X148000000Y-77500000D03*
X154000000Y-77500000D03*
X153050000Y-74500000D03*
X154950000Y-74500000D03*
X160950000Y-74500000D03*
X159050000Y-74500000D03*
X160000000Y-77500000D03*
X166950000Y-74500000D03*
X165050000Y-74500000D03*
X166000000Y-77500000D03*
X172000000Y-77500000D03*
X171050000Y-74500000D03*
X172950000Y-74500000D03*
X178950000Y-74500000D03*
X177050000Y-74500000D03*
X178000000Y-77500000D03*
X184000000Y-77500000D03*
X183050000Y-74500000D03*
X184950000Y-74500000D03*
X190950000Y-74500000D03*
X189050000Y-74500000D03*
X190000000Y-77500000D03*
X196000000Y-77500000D03*
X195050000Y-74500000D03*
X196950000Y-74500000D03*
D13*
G36*
X141435779Y-70526144D02*
G01*
X141458834Y-70529563D01*
X141481443Y-70535227D01*
X141503387Y-70543079D01*
X141524457Y-70553044D01*
X141544448Y-70565026D01*
X141563168Y-70578910D01*
X141580438Y-70594562D01*
X141596090Y-70611832D01*
X141609974Y-70630552D01*
X141621956Y-70650543D01*
X141631921Y-70671613D01*
X141639773Y-70693557D01*
X141645437Y-70716166D01*
X141648856Y-70739221D01*
X141650000Y-70762500D01*
X141650000Y-71237500D01*
X141648856Y-71260779D01*
X141645437Y-71283834D01*
X141639773Y-71306443D01*
X141631921Y-71328387D01*
X141621956Y-71349457D01*
X141609974Y-71369448D01*
X141596090Y-71388168D01*
X141580438Y-71405438D01*
X141563168Y-71421090D01*
X141544448Y-71434974D01*
X141524457Y-71446956D01*
X141503387Y-71456921D01*
X141481443Y-71464773D01*
X141458834Y-71470437D01*
X141435779Y-71473856D01*
X141412500Y-71475000D01*
X140837500Y-71475000D01*
X140814221Y-71473856D01*
X140791166Y-71470437D01*
X140768557Y-71464773D01*
X140746613Y-71456921D01*
X140725543Y-71446956D01*
X140705552Y-71434974D01*
X140686832Y-71421090D01*
X140669562Y-71405438D01*
X140653910Y-71388168D01*
X140640026Y-71369448D01*
X140628044Y-71349457D01*
X140618079Y-71328387D01*
X140610227Y-71306443D01*
X140604563Y-71283834D01*
X140601144Y-71260779D01*
X140600000Y-71237500D01*
X140600000Y-70762500D01*
X140601144Y-70739221D01*
X140604563Y-70716166D01*
X140610227Y-70693557D01*
X140618079Y-70671613D01*
X140628044Y-70650543D01*
X140640026Y-70630552D01*
X140653910Y-70611832D01*
X140669562Y-70594562D01*
X140686832Y-70578910D01*
X140705552Y-70565026D01*
X140725543Y-70553044D01*
X140746613Y-70543079D01*
X140768557Y-70535227D01*
X140791166Y-70529563D01*
X140814221Y-70526144D01*
X140837500Y-70525000D01*
X141412500Y-70525000D01*
X141435779Y-70526144D01*
X141435779Y-70526144D01*
G37*
D14*
X141125000Y-71000000D03*
D13*
G36*
X143185779Y-70526144D02*
G01*
X143208834Y-70529563D01*
X143231443Y-70535227D01*
X143253387Y-70543079D01*
X143274457Y-70553044D01*
X143294448Y-70565026D01*
X143313168Y-70578910D01*
X143330438Y-70594562D01*
X143346090Y-70611832D01*
X143359974Y-70630552D01*
X143371956Y-70650543D01*
X143381921Y-70671613D01*
X143389773Y-70693557D01*
X143395437Y-70716166D01*
X143398856Y-70739221D01*
X143400000Y-70762500D01*
X143400000Y-71237500D01*
X143398856Y-71260779D01*
X143395437Y-71283834D01*
X143389773Y-71306443D01*
X143381921Y-71328387D01*
X143371956Y-71349457D01*
X143359974Y-71369448D01*
X143346090Y-71388168D01*
X143330438Y-71405438D01*
X143313168Y-71421090D01*
X143294448Y-71434974D01*
X143274457Y-71446956D01*
X143253387Y-71456921D01*
X143231443Y-71464773D01*
X143208834Y-71470437D01*
X143185779Y-71473856D01*
X143162500Y-71475000D01*
X142587500Y-71475000D01*
X142564221Y-71473856D01*
X142541166Y-71470437D01*
X142518557Y-71464773D01*
X142496613Y-71456921D01*
X142475543Y-71446956D01*
X142455552Y-71434974D01*
X142436832Y-71421090D01*
X142419562Y-71405438D01*
X142403910Y-71388168D01*
X142390026Y-71369448D01*
X142378044Y-71349457D01*
X142368079Y-71328387D01*
X142360227Y-71306443D01*
X142354563Y-71283834D01*
X142351144Y-71260779D01*
X142350000Y-71237500D01*
X142350000Y-70762500D01*
X142351144Y-70739221D01*
X142354563Y-70716166D01*
X142360227Y-70693557D01*
X142368079Y-70671613D01*
X142378044Y-70650543D01*
X142390026Y-70630552D01*
X142403910Y-70611832D01*
X142419562Y-70594562D01*
X142436832Y-70578910D01*
X142455552Y-70565026D01*
X142475543Y-70553044D01*
X142496613Y-70543079D01*
X142518557Y-70535227D01*
X142541166Y-70529563D01*
X142564221Y-70526144D01*
X142587500Y-70525000D01*
X143162500Y-70525000D01*
X143185779Y-70526144D01*
X143185779Y-70526144D01*
G37*
D14*
X142875000Y-71000000D03*
D13*
G36*
X147435779Y-70526144D02*
G01*
X147458834Y-70529563D01*
X147481443Y-70535227D01*
X147503387Y-70543079D01*
X147524457Y-70553044D01*
X147544448Y-70565026D01*
X147563168Y-70578910D01*
X147580438Y-70594562D01*
X147596090Y-70611832D01*
X147609974Y-70630552D01*
X147621956Y-70650543D01*
X147631921Y-70671613D01*
X147639773Y-70693557D01*
X147645437Y-70716166D01*
X147648856Y-70739221D01*
X147650000Y-70762500D01*
X147650000Y-71237500D01*
X147648856Y-71260779D01*
X147645437Y-71283834D01*
X147639773Y-71306443D01*
X147631921Y-71328387D01*
X147621956Y-71349457D01*
X147609974Y-71369448D01*
X147596090Y-71388168D01*
X147580438Y-71405438D01*
X147563168Y-71421090D01*
X147544448Y-71434974D01*
X147524457Y-71446956D01*
X147503387Y-71456921D01*
X147481443Y-71464773D01*
X147458834Y-71470437D01*
X147435779Y-71473856D01*
X147412500Y-71475000D01*
X146837500Y-71475000D01*
X146814221Y-71473856D01*
X146791166Y-71470437D01*
X146768557Y-71464773D01*
X146746613Y-71456921D01*
X146725543Y-71446956D01*
X146705552Y-71434974D01*
X146686832Y-71421090D01*
X146669562Y-71405438D01*
X146653910Y-71388168D01*
X146640026Y-71369448D01*
X146628044Y-71349457D01*
X146618079Y-71328387D01*
X146610227Y-71306443D01*
X146604563Y-71283834D01*
X146601144Y-71260779D01*
X146600000Y-71237500D01*
X146600000Y-70762500D01*
X146601144Y-70739221D01*
X146604563Y-70716166D01*
X146610227Y-70693557D01*
X146618079Y-70671613D01*
X146628044Y-70650543D01*
X146640026Y-70630552D01*
X146653910Y-70611832D01*
X146669562Y-70594562D01*
X146686832Y-70578910D01*
X146705552Y-70565026D01*
X146725543Y-70553044D01*
X146746613Y-70543079D01*
X146768557Y-70535227D01*
X146791166Y-70529563D01*
X146814221Y-70526144D01*
X146837500Y-70525000D01*
X147412500Y-70525000D01*
X147435779Y-70526144D01*
X147435779Y-70526144D01*
G37*
D14*
X147125000Y-71000000D03*
D13*
G36*
X149185779Y-70526144D02*
G01*
X149208834Y-70529563D01*
X149231443Y-70535227D01*
X149253387Y-70543079D01*
X149274457Y-70553044D01*
X149294448Y-70565026D01*
X149313168Y-70578910D01*
X149330438Y-70594562D01*
X149346090Y-70611832D01*
X149359974Y-70630552D01*
X149371956Y-70650543D01*
X149381921Y-70671613D01*
X149389773Y-70693557D01*
X149395437Y-70716166D01*
X149398856Y-70739221D01*
X149400000Y-70762500D01*
X149400000Y-71237500D01*
X149398856Y-71260779D01*
X149395437Y-71283834D01*
X149389773Y-71306443D01*
X149381921Y-71328387D01*
X149371956Y-71349457D01*
X149359974Y-71369448D01*
X149346090Y-71388168D01*
X149330438Y-71405438D01*
X149313168Y-71421090D01*
X149294448Y-71434974D01*
X149274457Y-71446956D01*
X149253387Y-71456921D01*
X149231443Y-71464773D01*
X149208834Y-71470437D01*
X149185779Y-71473856D01*
X149162500Y-71475000D01*
X148587500Y-71475000D01*
X148564221Y-71473856D01*
X148541166Y-71470437D01*
X148518557Y-71464773D01*
X148496613Y-71456921D01*
X148475543Y-71446956D01*
X148455552Y-71434974D01*
X148436832Y-71421090D01*
X148419562Y-71405438D01*
X148403910Y-71388168D01*
X148390026Y-71369448D01*
X148378044Y-71349457D01*
X148368079Y-71328387D01*
X148360227Y-71306443D01*
X148354563Y-71283834D01*
X148351144Y-71260779D01*
X148350000Y-71237500D01*
X148350000Y-70762500D01*
X148351144Y-70739221D01*
X148354563Y-70716166D01*
X148360227Y-70693557D01*
X148368079Y-70671613D01*
X148378044Y-70650543D01*
X148390026Y-70630552D01*
X148403910Y-70611832D01*
X148419562Y-70594562D01*
X148436832Y-70578910D01*
X148455552Y-70565026D01*
X148475543Y-70553044D01*
X148496613Y-70543079D01*
X148518557Y-70535227D01*
X148541166Y-70529563D01*
X148564221Y-70526144D01*
X148587500Y-70525000D01*
X149162500Y-70525000D01*
X149185779Y-70526144D01*
X149185779Y-70526144D01*
G37*
D14*
X148875000Y-71000000D03*
D13*
G36*
X155185779Y-70526144D02*
G01*
X155208834Y-70529563D01*
X155231443Y-70535227D01*
X155253387Y-70543079D01*
X155274457Y-70553044D01*
X155294448Y-70565026D01*
X155313168Y-70578910D01*
X155330438Y-70594562D01*
X155346090Y-70611832D01*
X155359974Y-70630552D01*
X155371956Y-70650543D01*
X155381921Y-70671613D01*
X155389773Y-70693557D01*
X155395437Y-70716166D01*
X155398856Y-70739221D01*
X155400000Y-70762500D01*
X155400000Y-71237500D01*
X155398856Y-71260779D01*
X155395437Y-71283834D01*
X155389773Y-71306443D01*
X155381921Y-71328387D01*
X155371956Y-71349457D01*
X155359974Y-71369448D01*
X155346090Y-71388168D01*
X155330438Y-71405438D01*
X155313168Y-71421090D01*
X155294448Y-71434974D01*
X155274457Y-71446956D01*
X155253387Y-71456921D01*
X155231443Y-71464773D01*
X155208834Y-71470437D01*
X155185779Y-71473856D01*
X155162500Y-71475000D01*
X154587500Y-71475000D01*
X154564221Y-71473856D01*
X154541166Y-71470437D01*
X154518557Y-71464773D01*
X154496613Y-71456921D01*
X154475543Y-71446956D01*
X154455552Y-71434974D01*
X154436832Y-71421090D01*
X154419562Y-71405438D01*
X154403910Y-71388168D01*
X154390026Y-71369448D01*
X154378044Y-71349457D01*
X154368079Y-71328387D01*
X154360227Y-71306443D01*
X154354563Y-71283834D01*
X154351144Y-71260779D01*
X154350000Y-71237500D01*
X154350000Y-70762500D01*
X154351144Y-70739221D01*
X154354563Y-70716166D01*
X154360227Y-70693557D01*
X154368079Y-70671613D01*
X154378044Y-70650543D01*
X154390026Y-70630552D01*
X154403910Y-70611832D01*
X154419562Y-70594562D01*
X154436832Y-70578910D01*
X154455552Y-70565026D01*
X154475543Y-70553044D01*
X154496613Y-70543079D01*
X154518557Y-70535227D01*
X154541166Y-70529563D01*
X154564221Y-70526144D01*
X154587500Y-70525000D01*
X155162500Y-70525000D01*
X155185779Y-70526144D01*
X155185779Y-70526144D01*
G37*
D14*
X154875000Y-71000000D03*
D13*
G36*
X153435779Y-70526144D02*
G01*
X153458834Y-70529563D01*
X153481443Y-70535227D01*
X153503387Y-70543079D01*
X153524457Y-70553044D01*
X153544448Y-70565026D01*
X153563168Y-70578910D01*
X153580438Y-70594562D01*
X153596090Y-70611832D01*
X153609974Y-70630552D01*
X153621956Y-70650543D01*
X153631921Y-70671613D01*
X153639773Y-70693557D01*
X153645437Y-70716166D01*
X153648856Y-70739221D01*
X153650000Y-70762500D01*
X153650000Y-71237500D01*
X153648856Y-71260779D01*
X153645437Y-71283834D01*
X153639773Y-71306443D01*
X153631921Y-71328387D01*
X153621956Y-71349457D01*
X153609974Y-71369448D01*
X153596090Y-71388168D01*
X153580438Y-71405438D01*
X153563168Y-71421090D01*
X153544448Y-71434974D01*
X153524457Y-71446956D01*
X153503387Y-71456921D01*
X153481443Y-71464773D01*
X153458834Y-71470437D01*
X153435779Y-71473856D01*
X153412500Y-71475000D01*
X152837500Y-71475000D01*
X152814221Y-71473856D01*
X152791166Y-71470437D01*
X152768557Y-71464773D01*
X152746613Y-71456921D01*
X152725543Y-71446956D01*
X152705552Y-71434974D01*
X152686832Y-71421090D01*
X152669562Y-71405438D01*
X152653910Y-71388168D01*
X152640026Y-71369448D01*
X152628044Y-71349457D01*
X152618079Y-71328387D01*
X152610227Y-71306443D01*
X152604563Y-71283834D01*
X152601144Y-71260779D01*
X152600000Y-71237500D01*
X152600000Y-70762500D01*
X152601144Y-70739221D01*
X152604563Y-70716166D01*
X152610227Y-70693557D01*
X152618079Y-70671613D01*
X152628044Y-70650543D01*
X152640026Y-70630552D01*
X152653910Y-70611832D01*
X152669562Y-70594562D01*
X152686832Y-70578910D01*
X152705552Y-70565026D01*
X152725543Y-70553044D01*
X152746613Y-70543079D01*
X152768557Y-70535227D01*
X152791166Y-70529563D01*
X152814221Y-70526144D01*
X152837500Y-70525000D01*
X153412500Y-70525000D01*
X153435779Y-70526144D01*
X153435779Y-70526144D01*
G37*
D14*
X153125000Y-71000000D03*
D13*
G36*
X161185779Y-70526144D02*
G01*
X161208834Y-70529563D01*
X161231443Y-70535227D01*
X161253387Y-70543079D01*
X161274457Y-70553044D01*
X161294448Y-70565026D01*
X161313168Y-70578910D01*
X161330438Y-70594562D01*
X161346090Y-70611832D01*
X161359974Y-70630552D01*
X161371956Y-70650543D01*
X161381921Y-70671613D01*
X161389773Y-70693557D01*
X161395437Y-70716166D01*
X161398856Y-70739221D01*
X161400000Y-70762500D01*
X161400000Y-71237500D01*
X161398856Y-71260779D01*
X161395437Y-71283834D01*
X161389773Y-71306443D01*
X161381921Y-71328387D01*
X161371956Y-71349457D01*
X161359974Y-71369448D01*
X161346090Y-71388168D01*
X161330438Y-71405438D01*
X161313168Y-71421090D01*
X161294448Y-71434974D01*
X161274457Y-71446956D01*
X161253387Y-71456921D01*
X161231443Y-71464773D01*
X161208834Y-71470437D01*
X161185779Y-71473856D01*
X161162500Y-71475000D01*
X160587500Y-71475000D01*
X160564221Y-71473856D01*
X160541166Y-71470437D01*
X160518557Y-71464773D01*
X160496613Y-71456921D01*
X160475543Y-71446956D01*
X160455552Y-71434974D01*
X160436832Y-71421090D01*
X160419562Y-71405438D01*
X160403910Y-71388168D01*
X160390026Y-71369448D01*
X160378044Y-71349457D01*
X160368079Y-71328387D01*
X160360227Y-71306443D01*
X160354563Y-71283834D01*
X160351144Y-71260779D01*
X160350000Y-71237500D01*
X160350000Y-70762500D01*
X160351144Y-70739221D01*
X160354563Y-70716166D01*
X160360227Y-70693557D01*
X160368079Y-70671613D01*
X160378044Y-70650543D01*
X160390026Y-70630552D01*
X160403910Y-70611832D01*
X160419562Y-70594562D01*
X160436832Y-70578910D01*
X160455552Y-70565026D01*
X160475543Y-70553044D01*
X160496613Y-70543079D01*
X160518557Y-70535227D01*
X160541166Y-70529563D01*
X160564221Y-70526144D01*
X160587500Y-70525000D01*
X161162500Y-70525000D01*
X161185779Y-70526144D01*
X161185779Y-70526144D01*
G37*
D14*
X160875000Y-71000000D03*
D13*
G36*
X159435779Y-70526144D02*
G01*
X159458834Y-70529563D01*
X159481443Y-70535227D01*
X159503387Y-70543079D01*
X159524457Y-70553044D01*
X159544448Y-70565026D01*
X159563168Y-70578910D01*
X159580438Y-70594562D01*
X159596090Y-70611832D01*
X159609974Y-70630552D01*
X159621956Y-70650543D01*
X159631921Y-70671613D01*
X159639773Y-70693557D01*
X159645437Y-70716166D01*
X159648856Y-70739221D01*
X159650000Y-70762500D01*
X159650000Y-71237500D01*
X159648856Y-71260779D01*
X159645437Y-71283834D01*
X159639773Y-71306443D01*
X159631921Y-71328387D01*
X159621956Y-71349457D01*
X159609974Y-71369448D01*
X159596090Y-71388168D01*
X159580438Y-71405438D01*
X159563168Y-71421090D01*
X159544448Y-71434974D01*
X159524457Y-71446956D01*
X159503387Y-71456921D01*
X159481443Y-71464773D01*
X159458834Y-71470437D01*
X159435779Y-71473856D01*
X159412500Y-71475000D01*
X158837500Y-71475000D01*
X158814221Y-71473856D01*
X158791166Y-71470437D01*
X158768557Y-71464773D01*
X158746613Y-71456921D01*
X158725543Y-71446956D01*
X158705552Y-71434974D01*
X158686832Y-71421090D01*
X158669562Y-71405438D01*
X158653910Y-71388168D01*
X158640026Y-71369448D01*
X158628044Y-71349457D01*
X158618079Y-71328387D01*
X158610227Y-71306443D01*
X158604563Y-71283834D01*
X158601144Y-71260779D01*
X158600000Y-71237500D01*
X158600000Y-70762500D01*
X158601144Y-70739221D01*
X158604563Y-70716166D01*
X158610227Y-70693557D01*
X158618079Y-70671613D01*
X158628044Y-70650543D01*
X158640026Y-70630552D01*
X158653910Y-70611832D01*
X158669562Y-70594562D01*
X158686832Y-70578910D01*
X158705552Y-70565026D01*
X158725543Y-70553044D01*
X158746613Y-70543079D01*
X158768557Y-70535227D01*
X158791166Y-70529563D01*
X158814221Y-70526144D01*
X158837500Y-70525000D01*
X159412500Y-70525000D01*
X159435779Y-70526144D01*
X159435779Y-70526144D01*
G37*
D14*
X159125000Y-71000000D03*
D13*
G36*
X165435779Y-70526144D02*
G01*
X165458834Y-70529563D01*
X165481443Y-70535227D01*
X165503387Y-70543079D01*
X165524457Y-70553044D01*
X165544448Y-70565026D01*
X165563168Y-70578910D01*
X165580438Y-70594562D01*
X165596090Y-70611832D01*
X165609974Y-70630552D01*
X165621956Y-70650543D01*
X165631921Y-70671613D01*
X165639773Y-70693557D01*
X165645437Y-70716166D01*
X165648856Y-70739221D01*
X165650000Y-70762500D01*
X165650000Y-71237500D01*
X165648856Y-71260779D01*
X165645437Y-71283834D01*
X165639773Y-71306443D01*
X165631921Y-71328387D01*
X165621956Y-71349457D01*
X165609974Y-71369448D01*
X165596090Y-71388168D01*
X165580438Y-71405438D01*
X165563168Y-71421090D01*
X165544448Y-71434974D01*
X165524457Y-71446956D01*
X165503387Y-71456921D01*
X165481443Y-71464773D01*
X165458834Y-71470437D01*
X165435779Y-71473856D01*
X165412500Y-71475000D01*
X164837500Y-71475000D01*
X164814221Y-71473856D01*
X164791166Y-71470437D01*
X164768557Y-71464773D01*
X164746613Y-71456921D01*
X164725543Y-71446956D01*
X164705552Y-71434974D01*
X164686832Y-71421090D01*
X164669562Y-71405438D01*
X164653910Y-71388168D01*
X164640026Y-71369448D01*
X164628044Y-71349457D01*
X164618079Y-71328387D01*
X164610227Y-71306443D01*
X164604563Y-71283834D01*
X164601144Y-71260779D01*
X164600000Y-71237500D01*
X164600000Y-70762500D01*
X164601144Y-70739221D01*
X164604563Y-70716166D01*
X164610227Y-70693557D01*
X164618079Y-70671613D01*
X164628044Y-70650543D01*
X164640026Y-70630552D01*
X164653910Y-70611832D01*
X164669562Y-70594562D01*
X164686832Y-70578910D01*
X164705552Y-70565026D01*
X164725543Y-70553044D01*
X164746613Y-70543079D01*
X164768557Y-70535227D01*
X164791166Y-70529563D01*
X164814221Y-70526144D01*
X164837500Y-70525000D01*
X165412500Y-70525000D01*
X165435779Y-70526144D01*
X165435779Y-70526144D01*
G37*
D14*
X165125000Y-71000000D03*
D13*
G36*
X167185779Y-70526144D02*
G01*
X167208834Y-70529563D01*
X167231443Y-70535227D01*
X167253387Y-70543079D01*
X167274457Y-70553044D01*
X167294448Y-70565026D01*
X167313168Y-70578910D01*
X167330438Y-70594562D01*
X167346090Y-70611832D01*
X167359974Y-70630552D01*
X167371956Y-70650543D01*
X167381921Y-70671613D01*
X167389773Y-70693557D01*
X167395437Y-70716166D01*
X167398856Y-70739221D01*
X167400000Y-70762500D01*
X167400000Y-71237500D01*
X167398856Y-71260779D01*
X167395437Y-71283834D01*
X167389773Y-71306443D01*
X167381921Y-71328387D01*
X167371956Y-71349457D01*
X167359974Y-71369448D01*
X167346090Y-71388168D01*
X167330438Y-71405438D01*
X167313168Y-71421090D01*
X167294448Y-71434974D01*
X167274457Y-71446956D01*
X167253387Y-71456921D01*
X167231443Y-71464773D01*
X167208834Y-71470437D01*
X167185779Y-71473856D01*
X167162500Y-71475000D01*
X166587500Y-71475000D01*
X166564221Y-71473856D01*
X166541166Y-71470437D01*
X166518557Y-71464773D01*
X166496613Y-71456921D01*
X166475543Y-71446956D01*
X166455552Y-71434974D01*
X166436832Y-71421090D01*
X166419562Y-71405438D01*
X166403910Y-71388168D01*
X166390026Y-71369448D01*
X166378044Y-71349457D01*
X166368079Y-71328387D01*
X166360227Y-71306443D01*
X166354563Y-71283834D01*
X166351144Y-71260779D01*
X166350000Y-71237500D01*
X166350000Y-70762500D01*
X166351144Y-70739221D01*
X166354563Y-70716166D01*
X166360227Y-70693557D01*
X166368079Y-70671613D01*
X166378044Y-70650543D01*
X166390026Y-70630552D01*
X166403910Y-70611832D01*
X166419562Y-70594562D01*
X166436832Y-70578910D01*
X166455552Y-70565026D01*
X166475543Y-70553044D01*
X166496613Y-70543079D01*
X166518557Y-70535227D01*
X166541166Y-70529563D01*
X166564221Y-70526144D01*
X166587500Y-70525000D01*
X167162500Y-70525000D01*
X167185779Y-70526144D01*
X167185779Y-70526144D01*
G37*
D14*
X166875000Y-71000000D03*
D13*
G36*
X173185779Y-70526144D02*
G01*
X173208834Y-70529563D01*
X173231443Y-70535227D01*
X173253387Y-70543079D01*
X173274457Y-70553044D01*
X173294448Y-70565026D01*
X173313168Y-70578910D01*
X173330438Y-70594562D01*
X173346090Y-70611832D01*
X173359974Y-70630552D01*
X173371956Y-70650543D01*
X173381921Y-70671613D01*
X173389773Y-70693557D01*
X173395437Y-70716166D01*
X173398856Y-70739221D01*
X173400000Y-70762500D01*
X173400000Y-71237500D01*
X173398856Y-71260779D01*
X173395437Y-71283834D01*
X173389773Y-71306443D01*
X173381921Y-71328387D01*
X173371956Y-71349457D01*
X173359974Y-71369448D01*
X173346090Y-71388168D01*
X173330438Y-71405438D01*
X173313168Y-71421090D01*
X173294448Y-71434974D01*
X173274457Y-71446956D01*
X173253387Y-71456921D01*
X173231443Y-71464773D01*
X173208834Y-71470437D01*
X173185779Y-71473856D01*
X173162500Y-71475000D01*
X172587500Y-71475000D01*
X172564221Y-71473856D01*
X172541166Y-71470437D01*
X172518557Y-71464773D01*
X172496613Y-71456921D01*
X172475543Y-71446956D01*
X172455552Y-71434974D01*
X172436832Y-71421090D01*
X172419562Y-71405438D01*
X172403910Y-71388168D01*
X172390026Y-71369448D01*
X172378044Y-71349457D01*
X172368079Y-71328387D01*
X172360227Y-71306443D01*
X172354563Y-71283834D01*
X172351144Y-71260779D01*
X172350000Y-71237500D01*
X172350000Y-70762500D01*
X172351144Y-70739221D01*
X172354563Y-70716166D01*
X172360227Y-70693557D01*
X172368079Y-70671613D01*
X172378044Y-70650543D01*
X172390026Y-70630552D01*
X172403910Y-70611832D01*
X172419562Y-70594562D01*
X172436832Y-70578910D01*
X172455552Y-70565026D01*
X172475543Y-70553044D01*
X172496613Y-70543079D01*
X172518557Y-70535227D01*
X172541166Y-70529563D01*
X172564221Y-70526144D01*
X172587500Y-70525000D01*
X173162500Y-70525000D01*
X173185779Y-70526144D01*
X173185779Y-70526144D01*
G37*
D14*
X172875000Y-71000000D03*
D13*
G36*
X171435779Y-70526144D02*
G01*
X171458834Y-70529563D01*
X171481443Y-70535227D01*
X171503387Y-70543079D01*
X171524457Y-70553044D01*
X171544448Y-70565026D01*
X171563168Y-70578910D01*
X171580438Y-70594562D01*
X171596090Y-70611832D01*
X171609974Y-70630552D01*
X171621956Y-70650543D01*
X171631921Y-70671613D01*
X171639773Y-70693557D01*
X171645437Y-70716166D01*
X171648856Y-70739221D01*
X171650000Y-70762500D01*
X171650000Y-71237500D01*
X171648856Y-71260779D01*
X171645437Y-71283834D01*
X171639773Y-71306443D01*
X171631921Y-71328387D01*
X171621956Y-71349457D01*
X171609974Y-71369448D01*
X171596090Y-71388168D01*
X171580438Y-71405438D01*
X171563168Y-71421090D01*
X171544448Y-71434974D01*
X171524457Y-71446956D01*
X171503387Y-71456921D01*
X171481443Y-71464773D01*
X171458834Y-71470437D01*
X171435779Y-71473856D01*
X171412500Y-71475000D01*
X170837500Y-71475000D01*
X170814221Y-71473856D01*
X170791166Y-71470437D01*
X170768557Y-71464773D01*
X170746613Y-71456921D01*
X170725543Y-71446956D01*
X170705552Y-71434974D01*
X170686832Y-71421090D01*
X170669562Y-71405438D01*
X170653910Y-71388168D01*
X170640026Y-71369448D01*
X170628044Y-71349457D01*
X170618079Y-71328387D01*
X170610227Y-71306443D01*
X170604563Y-71283834D01*
X170601144Y-71260779D01*
X170600000Y-71237500D01*
X170600000Y-70762500D01*
X170601144Y-70739221D01*
X170604563Y-70716166D01*
X170610227Y-70693557D01*
X170618079Y-70671613D01*
X170628044Y-70650543D01*
X170640026Y-70630552D01*
X170653910Y-70611832D01*
X170669562Y-70594562D01*
X170686832Y-70578910D01*
X170705552Y-70565026D01*
X170725543Y-70553044D01*
X170746613Y-70543079D01*
X170768557Y-70535227D01*
X170791166Y-70529563D01*
X170814221Y-70526144D01*
X170837500Y-70525000D01*
X171412500Y-70525000D01*
X171435779Y-70526144D01*
X171435779Y-70526144D01*
G37*
D14*
X171125000Y-71000000D03*
D13*
G36*
X177435779Y-70526144D02*
G01*
X177458834Y-70529563D01*
X177481443Y-70535227D01*
X177503387Y-70543079D01*
X177524457Y-70553044D01*
X177544448Y-70565026D01*
X177563168Y-70578910D01*
X177580438Y-70594562D01*
X177596090Y-70611832D01*
X177609974Y-70630552D01*
X177621956Y-70650543D01*
X177631921Y-70671613D01*
X177639773Y-70693557D01*
X177645437Y-70716166D01*
X177648856Y-70739221D01*
X177650000Y-70762500D01*
X177650000Y-71237500D01*
X177648856Y-71260779D01*
X177645437Y-71283834D01*
X177639773Y-71306443D01*
X177631921Y-71328387D01*
X177621956Y-71349457D01*
X177609974Y-71369448D01*
X177596090Y-71388168D01*
X177580438Y-71405438D01*
X177563168Y-71421090D01*
X177544448Y-71434974D01*
X177524457Y-71446956D01*
X177503387Y-71456921D01*
X177481443Y-71464773D01*
X177458834Y-71470437D01*
X177435779Y-71473856D01*
X177412500Y-71475000D01*
X176837500Y-71475000D01*
X176814221Y-71473856D01*
X176791166Y-71470437D01*
X176768557Y-71464773D01*
X176746613Y-71456921D01*
X176725543Y-71446956D01*
X176705552Y-71434974D01*
X176686832Y-71421090D01*
X176669562Y-71405438D01*
X176653910Y-71388168D01*
X176640026Y-71369448D01*
X176628044Y-71349457D01*
X176618079Y-71328387D01*
X176610227Y-71306443D01*
X176604563Y-71283834D01*
X176601144Y-71260779D01*
X176600000Y-71237500D01*
X176600000Y-70762500D01*
X176601144Y-70739221D01*
X176604563Y-70716166D01*
X176610227Y-70693557D01*
X176618079Y-70671613D01*
X176628044Y-70650543D01*
X176640026Y-70630552D01*
X176653910Y-70611832D01*
X176669562Y-70594562D01*
X176686832Y-70578910D01*
X176705552Y-70565026D01*
X176725543Y-70553044D01*
X176746613Y-70543079D01*
X176768557Y-70535227D01*
X176791166Y-70529563D01*
X176814221Y-70526144D01*
X176837500Y-70525000D01*
X177412500Y-70525000D01*
X177435779Y-70526144D01*
X177435779Y-70526144D01*
G37*
D14*
X177125000Y-71000000D03*
D13*
G36*
X179185779Y-70526144D02*
G01*
X179208834Y-70529563D01*
X179231443Y-70535227D01*
X179253387Y-70543079D01*
X179274457Y-70553044D01*
X179294448Y-70565026D01*
X179313168Y-70578910D01*
X179330438Y-70594562D01*
X179346090Y-70611832D01*
X179359974Y-70630552D01*
X179371956Y-70650543D01*
X179381921Y-70671613D01*
X179389773Y-70693557D01*
X179395437Y-70716166D01*
X179398856Y-70739221D01*
X179400000Y-70762500D01*
X179400000Y-71237500D01*
X179398856Y-71260779D01*
X179395437Y-71283834D01*
X179389773Y-71306443D01*
X179381921Y-71328387D01*
X179371956Y-71349457D01*
X179359974Y-71369448D01*
X179346090Y-71388168D01*
X179330438Y-71405438D01*
X179313168Y-71421090D01*
X179294448Y-71434974D01*
X179274457Y-71446956D01*
X179253387Y-71456921D01*
X179231443Y-71464773D01*
X179208834Y-71470437D01*
X179185779Y-71473856D01*
X179162500Y-71475000D01*
X178587500Y-71475000D01*
X178564221Y-71473856D01*
X178541166Y-71470437D01*
X178518557Y-71464773D01*
X178496613Y-71456921D01*
X178475543Y-71446956D01*
X178455552Y-71434974D01*
X178436832Y-71421090D01*
X178419562Y-71405438D01*
X178403910Y-71388168D01*
X178390026Y-71369448D01*
X178378044Y-71349457D01*
X178368079Y-71328387D01*
X178360227Y-71306443D01*
X178354563Y-71283834D01*
X178351144Y-71260779D01*
X178350000Y-71237500D01*
X178350000Y-70762500D01*
X178351144Y-70739221D01*
X178354563Y-70716166D01*
X178360227Y-70693557D01*
X178368079Y-70671613D01*
X178378044Y-70650543D01*
X178390026Y-70630552D01*
X178403910Y-70611832D01*
X178419562Y-70594562D01*
X178436832Y-70578910D01*
X178455552Y-70565026D01*
X178475543Y-70553044D01*
X178496613Y-70543079D01*
X178518557Y-70535227D01*
X178541166Y-70529563D01*
X178564221Y-70526144D01*
X178587500Y-70525000D01*
X179162500Y-70525000D01*
X179185779Y-70526144D01*
X179185779Y-70526144D01*
G37*
D14*
X178875000Y-71000000D03*
D13*
G36*
X185185779Y-70526144D02*
G01*
X185208834Y-70529563D01*
X185231443Y-70535227D01*
X185253387Y-70543079D01*
X185274457Y-70553044D01*
X185294448Y-70565026D01*
X185313168Y-70578910D01*
X185330438Y-70594562D01*
X185346090Y-70611832D01*
X185359974Y-70630552D01*
X185371956Y-70650543D01*
X185381921Y-70671613D01*
X185389773Y-70693557D01*
X185395437Y-70716166D01*
X185398856Y-70739221D01*
X185400000Y-70762500D01*
X185400000Y-71237500D01*
X185398856Y-71260779D01*
X185395437Y-71283834D01*
X185389773Y-71306443D01*
X185381921Y-71328387D01*
X185371956Y-71349457D01*
X185359974Y-71369448D01*
X185346090Y-71388168D01*
X185330438Y-71405438D01*
X185313168Y-71421090D01*
X185294448Y-71434974D01*
X185274457Y-71446956D01*
X185253387Y-71456921D01*
X185231443Y-71464773D01*
X185208834Y-71470437D01*
X185185779Y-71473856D01*
X185162500Y-71475000D01*
X184587500Y-71475000D01*
X184564221Y-71473856D01*
X184541166Y-71470437D01*
X184518557Y-71464773D01*
X184496613Y-71456921D01*
X184475543Y-71446956D01*
X184455552Y-71434974D01*
X184436832Y-71421090D01*
X184419562Y-71405438D01*
X184403910Y-71388168D01*
X184390026Y-71369448D01*
X184378044Y-71349457D01*
X184368079Y-71328387D01*
X184360227Y-71306443D01*
X184354563Y-71283834D01*
X184351144Y-71260779D01*
X184350000Y-71237500D01*
X184350000Y-70762500D01*
X184351144Y-70739221D01*
X184354563Y-70716166D01*
X184360227Y-70693557D01*
X184368079Y-70671613D01*
X184378044Y-70650543D01*
X184390026Y-70630552D01*
X184403910Y-70611832D01*
X184419562Y-70594562D01*
X184436832Y-70578910D01*
X184455552Y-70565026D01*
X184475543Y-70553044D01*
X184496613Y-70543079D01*
X184518557Y-70535227D01*
X184541166Y-70529563D01*
X184564221Y-70526144D01*
X184587500Y-70525000D01*
X185162500Y-70525000D01*
X185185779Y-70526144D01*
X185185779Y-70526144D01*
G37*
D14*
X184875000Y-71000000D03*
D13*
G36*
X183435779Y-70526144D02*
G01*
X183458834Y-70529563D01*
X183481443Y-70535227D01*
X183503387Y-70543079D01*
X183524457Y-70553044D01*
X183544448Y-70565026D01*
X183563168Y-70578910D01*
X183580438Y-70594562D01*
X183596090Y-70611832D01*
X183609974Y-70630552D01*
X183621956Y-70650543D01*
X183631921Y-70671613D01*
X183639773Y-70693557D01*
X183645437Y-70716166D01*
X183648856Y-70739221D01*
X183650000Y-70762500D01*
X183650000Y-71237500D01*
X183648856Y-71260779D01*
X183645437Y-71283834D01*
X183639773Y-71306443D01*
X183631921Y-71328387D01*
X183621956Y-71349457D01*
X183609974Y-71369448D01*
X183596090Y-71388168D01*
X183580438Y-71405438D01*
X183563168Y-71421090D01*
X183544448Y-71434974D01*
X183524457Y-71446956D01*
X183503387Y-71456921D01*
X183481443Y-71464773D01*
X183458834Y-71470437D01*
X183435779Y-71473856D01*
X183412500Y-71475000D01*
X182837500Y-71475000D01*
X182814221Y-71473856D01*
X182791166Y-71470437D01*
X182768557Y-71464773D01*
X182746613Y-71456921D01*
X182725543Y-71446956D01*
X182705552Y-71434974D01*
X182686832Y-71421090D01*
X182669562Y-71405438D01*
X182653910Y-71388168D01*
X182640026Y-71369448D01*
X182628044Y-71349457D01*
X182618079Y-71328387D01*
X182610227Y-71306443D01*
X182604563Y-71283834D01*
X182601144Y-71260779D01*
X182600000Y-71237500D01*
X182600000Y-70762500D01*
X182601144Y-70739221D01*
X182604563Y-70716166D01*
X182610227Y-70693557D01*
X182618079Y-70671613D01*
X182628044Y-70650543D01*
X182640026Y-70630552D01*
X182653910Y-70611832D01*
X182669562Y-70594562D01*
X182686832Y-70578910D01*
X182705552Y-70565026D01*
X182725543Y-70553044D01*
X182746613Y-70543079D01*
X182768557Y-70535227D01*
X182791166Y-70529563D01*
X182814221Y-70526144D01*
X182837500Y-70525000D01*
X183412500Y-70525000D01*
X183435779Y-70526144D01*
X183435779Y-70526144D01*
G37*
D14*
X183125000Y-71000000D03*
D13*
G36*
X191185779Y-70526144D02*
G01*
X191208834Y-70529563D01*
X191231443Y-70535227D01*
X191253387Y-70543079D01*
X191274457Y-70553044D01*
X191294448Y-70565026D01*
X191313168Y-70578910D01*
X191330438Y-70594562D01*
X191346090Y-70611832D01*
X191359974Y-70630552D01*
X191371956Y-70650543D01*
X191381921Y-70671613D01*
X191389773Y-70693557D01*
X191395437Y-70716166D01*
X191398856Y-70739221D01*
X191400000Y-70762500D01*
X191400000Y-71237500D01*
X191398856Y-71260779D01*
X191395437Y-71283834D01*
X191389773Y-71306443D01*
X191381921Y-71328387D01*
X191371956Y-71349457D01*
X191359974Y-71369448D01*
X191346090Y-71388168D01*
X191330438Y-71405438D01*
X191313168Y-71421090D01*
X191294448Y-71434974D01*
X191274457Y-71446956D01*
X191253387Y-71456921D01*
X191231443Y-71464773D01*
X191208834Y-71470437D01*
X191185779Y-71473856D01*
X191162500Y-71475000D01*
X190587500Y-71475000D01*
X190564221Y-71473856D01*
X190541166Y-71470437D01*
X190518557Y-71464773D01*
X190496613Y-71456921D01*
X190475543Y-71446956D01*
X190455552Y-71434974D01*
X190436832Y-71421090D01*
X190419562Y-71405438D01*
X190403910Y-71388168D01*
X190390026Y-71369448D01*
X190378044Y-71349457D01*
X190368079Y-71328387D01*
X190360227Y-71306443D01*
X190354563Y-71283834D01*
X190351144Y-71260779D01*
X190350000Y-71237500D01*
X190350000Y-70762500D01*
X190351144Y-70739221D01*
X190354563Y-70716166D01*
X190360227Y-70693557D01*
X190368079Y-70671613D01*
X190378044Y-70650543D01*
X190390026Y-70630552D01*
X190403910Y-70611832D01*
X190419562Y-70594562D01*
X190436832Y-70578910D01*
X190455552Y-70565026D01*
X190475543Y-70553044D01*
X190496613Y-70543079D01*
X190518557Y-70535227D01*
X190541166Y-70529563D01*
X190564221Y-70526144D01*
X190587500Y-70525000D01*
X191162500Y-70525000D01*
X191185779Y-70526144D01*
X191185779Y-70526144D01*
G37*
D14*
X190875000Y-71000000D03*
D13*
G36*
X189435779Y-70526144D02*
G01*
X189458834Y-70529563D01*
X189481443Y-70535227D01*
X189503387Y-70543079D01*
X189524457Y-70553044D01*
X189544448Y-70565026D01*
X189563168Y-70578910D01*
X189580438Y-70594562D01*
X189596090Y-70611832D01*
X189609974Y-70630552D01*
X189621956Y-70650543D01*
X189631921Y-70671613D01*
X189639773Y-70693557D01*
X189645437Y-70716166D01*
X189648856Y-70739221D01*
X189650000Y-70762500D01*
X189650000Y-71237500D01*
X189648856Y-71260779D01*
X189645437Y-71283834D01*
X189639773Y-71306443D01*
X189631921Y-71328387D01*
X189621956Y-71349457D01*
X189609974Y-71369448D01*
X189596090Y-71388168D01*
X189580438Y-71405438D01*
X189563168Y-71421090D01*
X189544448Y-71434974D01*
X189524457Y-71446956D01*
X189503387Y-71456921D01*
X189481443Y-71464773D01*
X189458834Y-71470437D01*
X189435779Y-71473856D01*
X189412500Y-71475000D01*
X188837500Y-71475000D01*
X188814221Y-71473856D01*
X188791166Y-71470437D01*
X188768557Y-71464773D01*
X188746613Y-71456921D01*
X188725543Y-71446956D01*
X188705552Y-71434974D01*
X188686832Y-71421090D01*
X188669562Y-71405438D01*
X188653910Y-71388168D01*
X188640026Y-71369448D01*
X188628044Y-71349457D01*
X188618079Y-71328387D01*
X188610227Y-71306443D01*
X188604563Y-71283834D01*
X188601144Y-71260779D01*
X188600000Y-71237500D01*
X188600000Y-70762500D01*
X188601144Y-70739221D01*
X188604563Y-70716166D01*
X188610227Y-70693557D01*
X188618079Y-70671613D01*
X188628044Y-70650543D01*
X188640026Y-70630552D01*
X188653910Y-70611832D01*
X188669562Y-70594562D01*
X188686832Y-70578910D01*
X188705552Y-70565026D01*
X188725543Y-70553044D01*
X188746613Y-70543079D01*
X188768557Y-70535227D01*
X188791166Y-70529563D01*
X188814221Y-70526144D01*
X188837500Y-70525000D01*
X189412500Y-70525000D01*
X189435779Y-70526144D01*
X189435779Y-70526144D01*
G37*
D14*
X189125000Y-71000000D03*
D13*
G36*
X195435779Y-70526144D02*
G01*
X195458834Y-70529563D01*
X195481443Y-70535227D01*
X195503387Y-70543079D01*
X195524457Y-70553044D01*
X195544448Y-70565026D01*
X195563168Y-70578910D01*
X195580438Y-70594562D01*
X195596090Y-70611832D01*
X195609974Y-70630552D01*
X195621956Y-70650543D01*
X195631921Y-70671613D01*
X195639773Y-70693557D01*
X195645437Y-70716166D01*
X195648856Y-70739221D01*
X195650000Y-70762500D01*
X195650000Y-71237500D01*
X195648856Y-71260779D01*
X195645437Y-71283834D01*
X195639773Y-71306443D01*
X195631921Y-71328387D01*
X195621956Y-71349457D01*
X195609974Y-71369448D01*
X195596090Y-71388168D01*
X195580438Y-71405438D01*
X195563168Y-71421090D01*
X195544448Y-71434974D01*
X195524457Y-71446956D01*
X195503387Y-71456921D01*
X195481443Y-71464773D01*
X195458834Y-71470437D01*
X195435779Y-71473856D01*
X195412500Y-71475000D01*
X194837500Y-71475000D01*
X194814221Y-71473856D01*
X194791166Y-71470437D01*
X194768557Y-71464773D01*
X194746613Y-71456921D01*
X194725543Y-71446956D01*
X194705552Y-71434974D01*
X194686832Y-71421090D01*
X194669562Y-71405438D01*
X194653910Y-71388168D01*
X194640026Y-71369448D01*
X194628044Y-71349457D01*
X194618079Y-71328387D01*
X194610227Y-71306443D01*
X194604563Y-71283834D01*
X194601144Y-71260779D01*
X194600000Y-71237500D01*
X194600000Y-70762500D01*
X194601144Y-70739221D01*
X194604563Y-70716166D01*
X194610227Y-70693557D01*
X194618079Y-70671613D01*
X194628044Y-70650543D01*
X194640026Y-70630552D01*
X194653910Y-70611832D01*
X194669562Y-70594562D01*
X194686832Y-70578910D01*
X194705552Y-70565026D01*
X194725543Y-70553044D01*
X194746613Y-70543079D01*
X194768557Y-70535227D01*
X194791166Y-70529563D01*
X194814221Y-70526144D01*
X194837500Y-70525000D01*
X195412500Y-70525000D01*
X195435779Y-70526144D01*
X195435779Y-70526144D01*
G37*
D14*
X195125000Y-71000000D03*
D13*
G36*
X197185779Y-70526144D02*
G01*
X197208834Y-70529563D01*
X197231443Y-70535227D01*
X197253387Y-70543079D01*
X197274457Y-70553044D01*
X197294448Y-70565026D01*
X197313168Y-70578910D01*
X197330438Y-70594562D01*
X197346090Y-70611832D01*
X197359974Y-70630552D01*
X197371956Y-70650543D01*
X197381921Y-70671613D01*
X197389773Y-70693557D01*
X197395437Y-70716166D01*
X197398856Y-70739221D01*
X197400000Y-70762500D01*
X197400000Y-71237500D01*
X197398856Y-71260779D01*
X197395437Y-71283834D01*
X197389773Y-71306443D01*
X197381921Y-71328387D01*
X197371956Y-71349457D01*
X197359974Y-71369448D01*
X197346090Y-71388168D01*
X197330438Y-71405438D01*
X197313168Y-71421090D01*
X197294448Y-71434974D01*
X197274457Y-71446956D01*
X197253387Y-71456921D01*
X197231443Y-71464773D01*
X197208834Y-71470437D01*
X197185779Y-71473856D01*
X197162500Y-71475000D01*
X196587500Y-71475000D01*
X196564221Y-71473856D01*
X196541166Y-71470437D01*
X196518557Y-71464773D01*
X196496613Y-71456921D01*
X196475543Y-71446956D01*
X196455552Y-71434974D01*
X196436832Y-71421090D01*
X196419562Y-71405438D01*
X196403910Y-71388168D01*
X196390026Y-71369448D01*
X196378044Y-71349457D01*
X196368079Y-71328387D01*
X196360227Y-71306443D01*
X196354563Y-71283834D01*
X196351144Y-71260779D01*
X196350000Y-71237500D01*
X196350000Y-70762500D01*
X196351144Y-70739221D01*
X196354563Y-70716166D01*
X196360227Y-70693557D01*
X196368079Y-70671613D01*
X196378044Y-70650543D01*
X196390026Y-70630552D01*
X196403910Y-70611832D01*
X196419562Y-70594562D01*
X196436832Y-70578910D01*
X196455552Y-70565026D01*
X196475543Y-70553044D01*
X196496613Y-70543079D01*
X196518557Y-70535227D01*
X196541166Y-70529563D01*
X196564221Y-70526144D01*
X196587500Y-70525000D01*
X197162500Y-70525000D01*
X197185779Y-70526144D01*
X197185779Y-70526144D01*
G37*
D14*
X196875000Y-71000000D03*
D15*
X141050000Y-71075000D02*
X141125000Y-71000000D01*
X141050000Y-74500000D02*
X141050000Y-71075000D01*
X147125000Y-74425000D02*
X147050000Y-74500000D01*
X147125000Y-71000000D02*
X147125000Y-74425000D01*
X153125000Y-74425000D02*
X153050000Y-74500000D01*
X153125000Y-71000000D02*
X153125000Y-74425000D01*
X159125000Y-74425000D02*
X159050000Y-74500000D01*
X159125000Y-71000000D02*
X159125000Y-74425000D01*
X165125000Y-74425000D02*
X165050000Y-74500000D01*
X165125000Y-71000000D02*
X165125000Y-74425000D01*
X171125000Y-74425000D02*
X171050000Y-74500000D01*
X171125000Y-71000000D02*
X171125000Y-74425000D01*
X177125000Y-74425000D02*
X177050000Y-74500000D01*
X177125000Y-71000000D02*
X177125000Y-74425000D01*
X183125000Y-74425000D02*
X183050000Y-74500000D01*
X183125000Y-71000000D02*
X183125000Y-74425000D01*
X189125000Y-74425000D02*
X189050000Y-74500000D01*
X189125000Y-71000000D02*
X189125000Y-74425000D01*
X195125000Y-74425000D02*
X195050000Y-74500000D01*
X195125000Y-71000000D02*
X195125000Y-74425000D01*
X147000000Y-96000000D02*
X164780000Y-96000000D01*
X187000000Y-96350000D02*
X187000000Y-95000000D01*
X166780000Y-98000000D02*
X185350000Y-98000000D01*
X185350000Y-98000000D02*
X187000000Y-96350000D01*
X164780000Y-96000000D02*
X166780000Y-98000000D01*
X193460000Y-75190000D02*
X193460000Y-85540000D01*
X194150000Y-74500000D02*
X193460000Y-75190000D01*
X195050000Y-74500000D02*
X194150000Y-74500000D01*
X193460000Y-85540000D02*
X196000000Y-85540000D01*
X165050000Y-75950000D02*
X165050000Y-74500000D01*
X164540000Y-76460000D02*
X165050000Y-75950000D01*
X164540000Y-85540000D02*
X164540000Y-76460000D01*
X158460000Y-76540000D02*
X159050000Y-75950000D01*
X158460000Y-85540000D02*
X158460000Y-76540000D01*
X159050000Y-75950000D02*
X159050000Y-74500000D01*
X158460000Y-85540000D02*
X164540000Y-85540000D01*
X152460000Y-76540000D02*
X153050000Y-75950000D01*
X152460000Y-85540000D02*
X152460000Y-76540000D01*
X152460000Y-85540000D02*
X158460000Y-85540000D01*
X153050000Y-75950000D02*
X153050000Y-74500000D01*
X147050000Y-75950000D02*
X147050000Y-74500000D01*
X146460000Y-76540000D02*
X147050000Y-75950000D01*
X146460000Y-85540000D02*
X152460000Y-85540000D01*
X146460000Y-85540000D02*
X146460000Y-76540000D01*
X142000000Y-85540000D02*
X146460000Y-85540000D01*
X140699999Y-84239999D02*
X141150001Y-84690001D01*
X141150001Y-84690001D02*
X142000000Y-85540000D01*
X140699999Y-81789999D02*
X140699999Y-84239999D01*
X141050000Y-81439998D02*
X140699999Y-81789999D01*
X141050000Y-74500000D02*
X141050000Y-81439998D01*
X177050000Y-75950000D02*
X177050000Y-74500000D01*
X176540000Y-76460000D02*
X177050000Y-75950000D01*
X176540000Y-85540000D02*
X176540000Y-76460000D01*
X182540000Y-76460000D02*
X183050000Y-75950000D01*
X182540000Y-85540000D02*
X182540000Y-76460000D01*
X183050000Y-75950000D02*
X183050000Y-74500000D01*
X176540000Y-85540000D02*
X182540000Y-85540000D01*
X188460000Y-85540000D02*
X188460000Y-76540000D01*
X189050000Y-75950000D02*
X189050000Y-74500000D01*
X188460000Y-76540000D02*
X189050000Y-75950000D01*
X188460000Y-85540000D02*
X193460000Y-85540000D01*
X182540000Y-85540000D02*
X188460000Y-85540000D01*
X198000000Y-86000000D02*
X198000000Y-98000000D01*
X196000000Y-85540000D02*
X197540000Y-85540000D01*
X198000000Y-98000000D02*
X185350000Y-98000000D01*
X197540000Y-85540000D02*
X198000000Y-86000000D01*
X170460000Y-85540000D02*
X170460000Y-76540000D01*
X171050000Y-75950000D02*
X171050000Y-74500000D01*
X170460000Y-76540000D02*
X171050000Y-75950000D01*
X170460000Y-85540000D02*
X176540000Y-85540000D01*
X164540000Y-85540000D02*
X170460000Y-85540000D01*
X184460000Y-88540000D02*
X184000000Y-88080000D01*
X142000000Y-77500000D02*
X142000000Y-83000000D01*
X148000000Y-77500000D02*
X148000000Y-83000000D01*
X154000000Y-77500000D02*
X154000000Y-83000000D01*
X160000000Y-82975001D02*
X159975001Y-83000000D01*
X160000000Y-77500000D02*
X160000000Y-82975001D01*
X166000000Y-77500000D02*
X166000000Y-83000000D01*
X172000000Y-77500000D02*
X172000000Y-83000000D01*
X178000000Y-77500000D02*
X178000000Y-83000000D01*
X184000000Y-77500000D02*
X184000000Y-83000000D01*
X190000000Y-77500000D02*
X190000000Y-83000000D01*
X196000000Y-78050000D02*
X196000000Y-83000000D01*
X196000000Y-77500000D02*
X196000000Y-78050000D01*
X142950000Y-71075000D02*
X142875000Y-71000000D01*
X142950000Y-74500000D02*
X142950000Y-71075000D01*
X148875000Y-74425000D02*
X148950000Y-74500000D01*
X148875000Y-71000000D02*
X148875000Y-74425000D01*
X154875000Y-74425000D02*
X154950000Y-74500000D01*
X154875000Y-71000000D02*
X154875000Y-74425000D01*
X160875000Y-74425000D02*
X160950000Y-74500000D01*
X160875000Y-71000000D02*
X160875000Y-74425000D01*
X166875000Y-74425000D02*
X166950000Y-74500000D01*
X166875000Y-71000000D02*
X166875000Y-74425000D01*
X172875000Y-74425000D02*
X172950000Y-74500000D01*
X172875000Y-71000000D02*
X172875000Y-74425000D01*
X178875000Y-74425000D02*
X178950000Y-74500000D01*
X178875000Y-71000000D02*
X178875000Y-74425000D01*
X184875000Y-74425000D02*
X184950000Y-74500000D01*
X184875000Y-71000000D02*
X184875000Y-74425000D01*
X190875000Y-74425000D02*
X190950000Y-74500000D01*
X190875000Y-71000000D02*
X190875000Y-74425000D01*
X196875000Y-74425000D02*
X196950000Y-74500000D01*
X196875000Y-71000000D02*
X196875000Y-74425000D01*
D16*
G36*
X198315000Y-85063422D02*
G01*
X198196534Y-84944956D01*
X198168817Y-84911183D01*
X198034059Y-84800589D01*
X197880313Y-84718411D01*
X197713490Y-84667805D01*
X197583477Y-84655000D01*
X197583469Y-84655000D01*
X197540000Y-84650719D01*
X197496531Y-84655000D01*
X197194759Y-84655000D01*
X197055134Y-84484866D01*
X197025313Y-84460393D01*
X197094180Y-84439502D01*
X197204494Y-84380537D01*
X197301185Y-84301185D01*
X197380537Y-84204494D01*
X197439502Y-84094180D01*
X197475812Y-83974482D01*
X197488072Y-83850000D01*
X197488072Y-82150000D01*
X197475812Y-82025518D01*
X197439502Y-81905820D01*
X197380537Y-81795506D01*
X197301185Y-81698815D01*
X197204494Y-81619463D01*
X197094180Y-81560498D01*
X196974482Y-81524188D01*
X196885000Y-81515375D01*
X196885000Y-78859981D01*
X196930537Y-78804494D01*
X196989502Y-78694180D01*
X197025812Y-78574482D01*
X197038072Y-78450000D01*
X197038072Y-76550000D01*
X197025812Y-76425518D01*
X196989502Y-76305820D01*
X196930537Y-76195506D01*
X196851185Y-76098815D01*
X196838095Y-76088072D01*
X197350000Y-76088072D01*
X197474482Y-76075812D01*
X197594180Y-76039502D01*
X197704494Y-75980537D01*
X197801185Y-75901185D01*
X197880537Y-75804494D01*
X197939502Y-75694180D01*
X197975812Y-75574482D01*
X197988072Y-75450000D01*
X197988072Y-73550000D01*
X197975812Y-73425518D01*
X197939502Y-73305820D01*
X197880537Y-73195506D01*
X197801185Y-73098815D01*
X197760000Y-73065015D01*
X197760000Y-71874369D01*
X197781623Y-71856623D01*
X197890512Y-71723942D01*
X197971423Y-71572567D01*
X198021248Y-71408316D01*
X198038072Y-71237500D01*
X198038072Y-70762500D01*
X198021248Y-70591684D01*
X197971423Y-70427433D01*
X197890512Y-70276058D01*
X197781623Y-70143377D01*
X197648942Y-70034488D01*
X197497567Y-69953577D01*
X197333316Y-69903752D01*
X197162500Y-69886928D01*
X196587500Y-69886928D01*
X196416684Y-69903752D01*
X196252433Y-69953577D01*
X196101058Y-70034488D01*
X196000000Y-70117425D01*
X195898942Y-70034488D01*
X195747567Y-69953577D01*
X195583316Y-69903752D01*
X195412500Y-69886928D01*
X194837500Y-69886928D01*
X194666684Y-69903752D01*
X194502433Y-69953577D01*
X194351058Y-70034488D01*
X194218377Y-70143377D01*
X194109488Y-70276058D01*
X194028577Y-70427433D01*
X193978752Y-70591684D01*
X193961928Y-70762500D01*
X193961928Y-71237500D01*
X193978752Y-71408316D01*
X194028577Y-71572567D01*
X194109488Y-71723942D01*
X194218377Y-71856623D01*
X194240000Y-71874369D01*
X194240001Y-73065015D01*
X194198815Y-73098815D01*
X194119463Y-73195506D01*
X194060498Y-73305820D01*
X194024188Y-73425518D01*
X194011928Y-73550000D01*
X194011928Y-73624317D01*
X193976510Y-73627805D01*
X193809687Y-73678411D01*
X193655941Y-73760589D01*
X193626452Y-73784790D01*
X193554953Y-73843468D01*
X193554951Y-73843470D01*
X193521183Y-73871183D01*
X193493470Y-73904951D01*
X192864956Y-74533466D01*
X192831183Y-74561183D01*
X192720589Y-74695942D01*
X192638411Y-74849688D01*
X192617367Y-74919059D01*
X192594616Y-74994060D01*
X192587805Y-75016511D01*
X192575000Y-75146524D01*
X192575000Y-75146531D01*
X192570719Y-75190000D01*
X192575000Y-75233469D01*
X192575001Y-84655000D01*
X191194759Y-84655000D01*
X191055134Y-84484866D01*
X191025313Y-84460393D01*
X191094180Y-84439502D01*
X191204494Y-84380537D01*
X191301185Y-84301185D01*
X191380537Y-84204494D01*
X191439502Y-84094180D01*
X191475812Y-83974482D01*
X191488072Y-83850000D01*
X191488072Y-82150000D01*
X191475812Y-82025518D01*
X191439502Y-81905820D01*
X191380537Y-81795506D01*
X191301185Y-81698815D01*
X191204494Y-81619463D01*
X191094180Y-81560498D01*
X190974482Y-81524188D01*
X190885000Y-81515375D01*
X190885000Y-78859981D01*
X190930537Y-78804494D01*
X190989502Y-78694180D01*
X191025812Y-78574482D01*
X191038072Y-78450000D01*
X191038072Y-76550000D01*
X191025812Y-76425518D01*
X190989502Y-76305820D01*
X190930537Y-76195506D01*
X190851185Y-76098815D01*
X190838095Y-76088072D01*
X191350000Y-76088072D01*
X191474482Y-76075812D01*
X191594180Y-76039502D01*
X191704494Y-75980537D01*
X191801185Y-75901185D01*
X191880537Y-75804494D01*
X191939502Y-75694180D01*
X191975812Y-75574482D01*
X191988072Y-75450000D01*
X191988072Y-73550000D01*
X191975812Y-73425518D01*
X191939502Y-73305820D01*
X191880537Y-73195506D01*
X191801185Y-73098815D01*
X191760000Y-73065015D01*
X191760000Y-71874369D01*
X191781623Y-71856623D01*
X191890512Y-71723942D01*
X191971423Y-71572567D01*
X192021248Y-71408316D01*
X192038072Y-71237500D01*
X192038072Y-70762500D01*
X192021248Y-70591684D01*
X191971423Y-70427433D01*
X191890512Y-70276058D01*
X191781623Y-70143377D01*
X191648942Y-70034488D01*
X191497567Y-69953577D01*
X191333316Y-69903752D01*
X191162500Y-69886928D01*
X190587500Y-69886928D01*
X190416684Y-69903752D01*
X190252433Y-69953577D01*
X190101058Y-70034488D01*
X190000000Y-70117425D01*
X189898942Y-70034488D01*
X189747567Y-69953577D01*
X189583316Y-69903752D01*
X189412500Y-69886928D01*
X188837500Y-69886928D01*
X188666684Y-69903752D01*
X188502433Y-69953577D01*
X188351058Y-70034488D01*
X188218377Y-70143377D01*
X188109488Y-70276058D01*
X188028577Y-70427433D01*
X187978752Y-70591684D01*
X187961928Y-70762500D01*
X187961928Y-71237500D01*
X187978752Y-71408316D01*
X188028577Y-71572567D01*
X188109488Y-71723942D01*
X188218377Y-71856623D01*
X188240000Y-71874369D01*
X188240001Y-73065015D01*
X188198815Y-73098815D01*
X188119463Y-73195506D01*
X188060498Y-73305820D01*
X188024188Y-73425518D01*
X188011928Y-73550000D01*
X188011928Y-75450000D01*
X188024188Y-75574482D01*
X188059042Y-75689380D01*
X187864952Y-75883470D01*
X187831184Y-75911183D01*
X187803471Y-75944951D01*
X187803468Y-75944954D01*
X187720590Y-76045941D01*
X187638412Y-76199687D01*
X187587805Y-76366510D01*
X187570719Y-76540000D01*
X187575001Y-76583479D01*
X187575000Y-84655000D01*
X185194759Y-84655000D01*
X185055134Y-84484866D01*
X185025313Y-84460393D01*
X185094180Y-84439502D01*
X185204494Y-84380537D01*
X185301185Y-84301185D01*
X185380537Y-84204494D01*
X185439502Y-84094180D01*
X185475812Y-83974482D01*
X185488072Y-83850000D01*
X185488072Y-82150000D01*
X185475812Y-82025518D01*
X185439502Y-81905820D01*
X185380537Y-81795506D01*
X185301185Y-81698815D01*
X185204494Y-81619463D01*
X185094180Y-81560498D01*
X184974482Y-81524188D01*
X184885000Y-81515375D01*
X184885000Y-78859981D01*
X184930537Y-78804494D01*
X184989502Y-78694180D01*
X185025812Y-78574482D01*
X185038072Y-78450000D01*
X185038072Y-76550000D01*
X185025812Y-76425518D01*
X184989502Y-76305820D01*
X184930537Y-76195506D01*
X184851185Y-76098815D01*
X184838095Y-76088072D01*
X185350000Y-76088072D01*
X185474482Y-76075812D01*
X185594180Y-76039502D01*
X185704494Y-75980537D01*
X185801185Y-75901185D01*
X185880537Y-75804494D01*
X185939502Y-75694180D01*
X185975812Y-75574482D01*
X185988072Y-75450000D01*
X185988072Y-73550000D01*
X185975812Y-73425518D01*
X185939502Y-73305820D01*
X185880537Y-73195506D01*
X185801185Y-73098815D01*
X185760000Y-73065015D01*
X185760000Y-71874369D01*
X185781623Y-71856623D01*
X185890512Y-71723942D01*
X185971423Y-71572567D01*
X186021248Y-71408316D01*
X186038072Y-71237500D01*
X186038072Y-70762500D01*
X186021248Y-70591684D01*
X185971423Y-70427433D01*
X185890512Y-70276058D01*
X185781623Y-70143377D01*
X185648942Y-70034488D01*
X185497567Y-69953577D01*
X185333316Y-69903752D01*
X185162500Y-69886928D01*
X184587500Y-69886928D01*
X184416684Y-69903752D01*
X184252433Y-69953577D01*
X184101058Y-70034488D01*
X184000000Y-70117425D01*
X183898942Y-70034488D01*
X183747567Y-69953577D01*
X183583316Y-69903752D01*
X183412500Y-69886928D01*
X182837500Y-69886928D01*
X182666684Y-69903752D01*
X182502433Y-69953577D01*
X182351058Y-70034488D01*
X182218377Y-70143377D01*
X182109488Y-70276058D01*
X182028577Y-70427433D01*
X181978752Y-70591684D01*
X181961928Y-70762500D01*
X181961928Y-71237500D01*
X181978752Y-71408316D01*
X182028577Y-71572567D01*
X182109488Y-71723942D01*
X182218377Y-71856623D01*
X182240000Y-71874369D01*
X182240001Y-73065015D01*
X182198815Y-73098815D01*
X182119463Y-73195506D01*
X182060498Y-73305820D01*
X182024188Y-73425518D01*
X182011928Y-73550000D01*
X182011928Y-75450000D01*
X182024188Y-75574482D01*
X182059042Y-75689380D01*
X181944952Y-75803470D01*
X181911184Y-75831183D01*
X181883471Y-75864951D01*
X181883468Y-75864954D01*
X181800590Y-75965941D01*
X181718412Y-76119687D01*
X181667805Y-76286510D01*
X181650719Y-76460000D01*
X181655001Y-76503479D01*
X181655000Y-84655000D01*
X179194759Y-84655000D01*
X179055134Y-84484866D01*
X179025313Y-84460393D01*
X179094180Y-84439502D01*
X179204494Y-84380537D01*
X179301185Y-84301185D01*
X179380537Y-84204494D01*
X179439502Y-84094180D01*
X179475812Y-83974482D01*
X179488072Y-83850000D01*
X179488072Y-82150000D01*
X179475812Y-82025518D01*
X179439502Y-81905820D01*
X179380537Y-81795506D01*
X179301185Y-81698815D01*
X179204494Y-81619463D01*
X179094180Y-81560498D01*
X178974482Y-81524188D01*
X178885000Y-81515375D01*
X178885000Y-78859981D01*
X178930537Y-78804494D01*
X178989502Y-78694180D01*
X179025812Y-78574482D01*
X179038072Y-78450000D01*
X179038072Y-76550000D01*
X179025812Y-76425518D01*
X178989502Y-76305820D01*
X178930537Y-76195506D01*
X178851185Y-76098815D01*
X178838095Y-76088072D01*
X179350000Y-76088072D01*
X179474482Y-76075812D01*
X179594180Y-76039502D01*
X179704494Y-75980537D01*
X179801185Y-75901185D01*
X179880537Y-75804494D01*
X179939502Y-75694180D01*
X179975812Y-75574482D01*
X179988072Y-75450000D01*
X179988072Y-73550000D01*
X179975812Y-73425518D01*
X179939502Y-73305820D01*
X179880537Y-73195506D01*
X179801185Y-73098815D01*
X179760000Y-73065015D01*
X179760000Y-71874369D01*
X179781623Y-71856623D01*
X179890512Y-71723942D01*
X179971423Y-71572567D01*
X180021248Y-71408316D01*
X180038072Y-71237500D01*
X180038072Y-70762500D01*
X180021248Y-70591684D01*
X179971423Y-70427433D01*
X179890512Y-70276058D01*
X179781623Y-70143377D01*
X179648942Y-70034488D01*
X179497567Y-69953577D01*
X179333316Y-69903752D01*
X179162500Y-69886928D01*
X178587500Y-69886928D01*
X178416684Y-69903752D01*
X178252433Y-69953577D01*
X178101058Y-70034488D01*
X178000000Y-70117425D01*
X177898942Y-70034488D01*
X177747567Y-69953577D01*
X177583316Y-69903752D01*
X177412500Y-69886928D01*
X176837500Y-69886928D01*
X176666684Y-69903752D01*
X176502433Y-69953577D01*
X176351058Y-70034488D01*
X176218377Y-70143377D01*
X176109488Y-70276058D01*
X176028577Y-70427433D01*
X175978752Y-70591684D01*
X175961928Y-70762500D01*
X175961928Y-71237500D01*
X175978752Y-71408316D01*
X176028577Y-71572567D01*
X176109488Y-71723942D01*
X176218377Y-71856623D01*
X176240000Y-71874369D01*
X176240001Y-73065015D01*
X176198815Y-73098815D01*
X176119463Y-73195506D01*
X176060498Y-73305820D01*
X176024188Y-73425518D01*
X176011928Y-73550000D01*
X176011928Y-75450000D01*
X176024188Y-75574482D01*
X176059042Y-75689380D01*
X175944952Y-75803470D01*
X175911184Y-75831183D01*
X175883471Y-75864951D01*
X175883468Y-75864954D01*
X175800590Y-75965941D01*
X175718412Y-76119687D01*
X175667805Y-76286510D01*
X175650719Y-76460000D01*
X175655001Y-76503479D01*
X175655000Y-84655000D01*
X173194759Y-84655000D01*
X173055134Y-84484866D01*
X173025313Y-84460393D01*
X173094180Y-84439502D01*
X173204494Y-84380537D01*
X173301185Y-84301185D01*
X173380537Y-84204494D01*
X173439502Y-84094180D01*
X173475812Y-83974482D01*
X173488072Y-83850000D01*
X173488072Y-82150000D01*
X173475812Y-82025518D01*
X173439502Y-81905820D01*
X173380537Y-81795506D01*
X173301185Y-81698815D01*
X173204494Y-81619463D01*
X173094180Y-81560498D01*
X172974482Y-81524188D01*
X172885000Y-81515375D01*
X172885000Y-78859981D01*
X172930537Y-78804494D01*
X172989502Y-78694180D01*
X173025812Y-78574482D01*
X173038072Y-78450000D01*
X173038072Y-76550000D01*
X173025812Y-76425518D01*
X172989502Y-76305820D01*
X172930537Y-76195506D01*
X172851185Y-76098815D01*
X172838095Y-76088072D01*
X173350000Y-76088072D01*
X173474482Y-76075812D01*
X173594180Y-76039502D01*
X173704494Y-75980537D01*
X173801185Y-75901185D01*
X173880537Y-75804494D01*
X173939502Y-75694180D01*
X173975812Y-75574482D01*
X173988072Y-75450000D01*
X173988072Y-73550000D01*
X173975812Y-73425518D01*
X173939502Y-73305820D01*
X173880537Y-73195506D01*
X173801185Y-73098815D01*
X173760000Y-73065015D01*
X173760000Y-71874369D01*
X173781623Y-71856623D01*
X173890512Y-71723942D01*
X173971423Y-71572567D01*
X174021248Y-71408316D01*
X174038072Y-71237500D01*
X174038072Y-70762500D01*
X174021248Y-70591684D01*
X173971423Y-70427433D01*
X173890512Y-70276058D01*
X173781623Y-70143377D01*
X173648942Y-70034488D01*
X173497567Y-69953577D01*
X173333316Y-69903752D01*
X173162500Y-69886928D01*
X172587500Y-69886928D01*
X172416684Y-69903752D01*
X172252433Y-69953577D01*
X172101058Y-70034488D01*
X172000000Y-70117425D01*
X171898942Y-70034488D01*
X171747567Y-69953577D01*
X171583316Y-69903752D01*
X171412500Y-69886928D01*
X170837500Y-69886928D01*
X170666684Y-69903752D01*
X170502433Y-69953577D01*
X170351058Y-70034488D01*
X170218377Y-70143377D01*
X170109488Y-70276058D01*
X170028577Y-70427433D01*
X169978752Y-70591684D01*
X169961928Y-70762500D01*
X169961928Y-71237500D01*
X169978752Y-71408316D01*
X170028577Y-71572567D01*
X170109488Y-71723942D01*
X170218377Y-71856623D01*
X170240000Y-71874369D01*
X170240001Y-73065015D01*
X170198815Y-73098815D01*
X170119463Y-73195506D01*
X170060498Y-73305820D01*
X170024188Y-73425518D01*
X170011928Y-73550000D01*
X170011928Y-75450000D01*
X170024188Y-75574482D01*
X170059042Y-75689380D01*
X169864952Y-75883470D01*
X169831184Y-75911183D01*
X169803471Y-75944951D01*
X169803468Y-75944954D01*
X169720590Y-76045941D01*
X169638412Y-76199687D01*
X169587805Y-76366510D01*
X169570719Y-76540000D01*
X169575001Y-76583479D01*
X169575000Y-84655000D01*
X167194759Y-84655000D01*
X167055134Y-84484866D01*
X167025313Y-84460393D01*
X167094180Y-84439502D01*
X167204494Y-84380537D01*
X167301185Y-84301185D01*
X167380537Y-84204494D01*
X167439502Y-84094180D01*
X167475812Y-83974482D01*
X167488072Y-83850000D01*
X167488072Y-82150000D01*
X167475812Y-82025518D01*
X167439502Y-81905820D01*
X167380537Y-81795506D01*
X167301185Y-81698815D01*
X167204494Y-81619463D01*
X167094180Y-81560498D01*
X166974482Y-81524188D01*
X166885000Y-81515375D01*
X166885000Y-78859981D01*
X166930537Y-78804494D01*
X166989502Y-78694180D01*
X167025812Y-78574482D01*
X167038072Y-78450000D01*
X167038072Y-76550000D01*
X167025812Y-76425518D01*
X166989502Y-76305820D01*
X166930537Y-76195506D01*
X166851185Y-76098815D01*
X166838095Y-76088072D01*
X167350000Y-76088072D01*
X167474482Y-76075812D01*
X167594180Y-76039502D01*
X167704494Y-75980537D01*
X167801185Y-75901185D01*
X167880537Y-75804494D01*
X167939502Y-75694180D01*
X167975812Y-75574482D01*
X167988072Y-75450000D01*
X167988072Y-73550000D01*
X167975812Y-73425518D01*
X167939502Y-73305820D01*
X167880537Y-73195506D01*
X167801185Y-73098815D01*
X167760000Y-73065015D01*
X167760000Y-71874369D01*
X167781623Y-71856623D01*
X167890512Y-71723942D01*
X167971423Y-71572567D01*
X168021248Y-71408316D01*
X168038072Y-71237500D01*
X168038072Y-70762500D01*
X168021248Y-70591684D01*
X167971423Y-70427433D01*
X167890512Y-70276058D01*
X167781623Y-70143377D01*
X167648942Y-70034488D01*
X167497567Y-69953577D01*
X167333316Y-69903752D01*
X167162500Y-69886928D01*
X166587500Y-69886928D01*
X166416684Y-69903752D01*
X166252433Y-69953577D01*
X166101058Y-70034488D01*
X166000000Y-70117425D01*
X165898942Y-70034488D01*
X165747567Y-69953577D01*
X165583316Y-69903752D01*
X165412500Y-69886928D01*
X164837500Y-69886928D01*
X164666684Y-69903752D01*
X164502433Y-69953577D01*
X164351058Y-70034488D01*
X164218377Y-70143377D01*
X164109488Y-70276058D01*
X164028577Y-70427433D01*
X163978752Y-70591684D01*
X163961928Y-70762500D01*
X163961928Y-71237500D01*
X163978752Y-71408316D01*
X164028577Y-71572567D01*
X164109488Y-71723942D01*
X164218377Y-71856623D01*
X164240000Y-71874369D01*
X164240001Y-73065015D01*
X164198815Y-73098815D01*
X164119463Y-73195506D01*
X164060498Y-73305820D01*
X164024188Y-73425518D01*
X164011928Y-73550000D01*
X164011928Y-75450000D01*
X164024188Y-75574482D01*
X164059042Y-75689380D01*
X163944952Y-75803470D01*
X163911184Y-75831183D01*
X163883471Y-75864951D01*
X163883468Y-75864954D01*
X163800590Y-75965941D01*
X163718412Y-76119687D01*
X163667805Y-76286510D01*
X163650719Y-76460000D01*
X163655001Y-76503479D01*
X163655000Y-84655000D01*
X161169760Y-84655000D01*
X161030135Y-84484866D01*
X161000314Y-84460393D01*
X161069181Y-84439502D01*
X161179495Y-84380537D01*
X161276186Y-84301185D01*
X161355538Y-84204494D01*
X161414503Y-84094180D01*
X161450813Y-83974482D01*
X161463073Y-83850000D01*
X161463073Y-82150000D01*
X161450813Y-82025518D01*
X161414503Y-81905820D01*
X161355538Y-81795506D01*
X161276186Y-81698815D01*
X161179495Y-81619463D01*
X161069181Y-81560498D01*
X160949483Y-81524188D01*
X160885000Y-81517837D01*
X160885000Y-78859981D01*
X160930537Y-78804494D01*
X160989502Y-78694180D01*
X161025812Y-78574482D01*
X161038072Y-78450000D01*
X161038072Y-76550000D01*
X161025812Y-76425518D01*
X160989502Y-76305820D01*
X160930537Y-76195506D01*
X160851185Y-76098815D01*
X160838095Y-76088072D01*
X161350000Y-76088072D01*
X161474482Y-76075812D01*
X161594180Y-76039502D01*
X161704494Y-75980537D01*
X161801185Y-75901185D01*
X161880537Y-75804494D01*
X161939502Y-75694180D01*
X161975812Y-75574482D01*
X161988072Y-75450000D01*
X161988072Y-73550000D01*
X161975812Y-73425518D01*
X161939502Y-73305820D01*
X161880537Y-73195506D01*
X161801185Y-73098815D01*
X161760000Y-73065015D01*
X161760000Y-71874369D01*
X161781623Y-71856623D01*
X161890512Y-71723942D01*
X161971423Y-71572567D01*
X162021248Y-71408316D01*
X162038072Y-71237500D01*
X162038072Y-70762500D01*
X162021248Y-70591684D01*
X161971423Y-70427433D01*
X161890512Y-70276058D01*
X161781623Y-70143377D01*
X161648942Y-70034488D01*
X161497567Y-69953577D01*
X161333316Y-69903752D01*
X161162500Y-69886928D01*
X160587500Y-69886928D01*
X160416684Y-69903752D01*
X160252433Y-69953577D01*
X160101058Y-70034488D01*
X160000000Y-70117425D01*
X159898942Y-70034488D01*
X159747567Y-69953577D01*
X159583316Y-69903752D01*
X159412500Y-69886928D01*
X158837500Y-69886928D01*
X158666684Y-69903752D01*
X158502433Y-69953577D01*
X158351058Y-70034488D01*
X158218377Y-70143377D01*
X158109488Y-70276058D01*
X158028577Y-70427433D01*
X157978752Y-70591684D01*
X157961928Y-70762500D01*
X157961928Y-71237500D01*
X157978752Y-71408316D01*
X158028577Y-71572567D01*
X158109488Y-71723942D01*
X158218377Y-71856623D01*
X158240000Y-71874369D01*
X158240001Y-73065015D01*
X158198815Y-73098815D01*
X158119463Y-73195506D01*
X158060498Y-73305820D01*
X158024188Y-73425518D01*
X158011928Y-73550000D01*
X158011928Y-75450000D01*
X158024188Y-75574482D01*
X158059042Y-75689380D01*
X157864952Y-75883470D01*
X157831184Y-75911183D01*
X157803471Y-75944951D01*
X157803468Y-75944954D01*
X157720590Y-76045941D01*
X157638412Y-76199687D01*
X157587805Y-76366510D01*
X157570719Y-76540000D01*
X157575001Y-76583479D01*
X157575000Y-84655000D01*
X155194759Y-84655000D01*
X155055134Y-84484866D01*
X155025313Y-84460393D01*
X155094180Y-84439502D01*
X155204494Y-84380537D01*
X155301185Y-84301185D01*
X155380537Y-84204494D01*
X155439502Y-84094180D01*
X155475812Y-83974482D01*
X155488072Y-83850000D01*
X155488072Y-82150000D01*
X155475812Y-82025518D01*
X155439502Y-81905820D01*
X155380537Y-81795506D01*
X155301185Y-81698815D01*
X155204494Y-81619463D01*
X155094180Y-81560498D01*
X154974482Y-81524188D01*
X154885000Y-81515375D01*
X154885000Y-78859981D01*
X154930537Y-78804494D01*
X154989502Y-78694180D01*
X155025812Y-78574482D01*
X155038072Y-78450000D01*
X155038072Y-76550000D01*
X155025812Y-76425518D01*
X154989502Y-76305820D01*
X154930537Y-76195506D01*
X154851185Y-76098815D01*
X154838095Y-76088072D01*
X155350000Y-76088072D01*
X155474482Y-76075812D01*
X155594180Y-76039502D01*
X155704494Y-75980537D01*
X155801185Y-75901185D01*
X155880537Y-75804494D01*
X155939502Y-75694180D01*
X155975812Y-75574482D01*
X155988072Y-75450000D01*
X155988072Y-73550000D01*
X155975812Y-73425518D01*
X155939502Y-73305820D01*
X155880537Y-73195506D01*
X155801185Y-73098815D01*
X155760000Y-73065015D01*
X155760000Y-71874369D01*
X155781623Y-71856623D01*
X155890512Y-71723942D01*
X155971423Y-71572567D01*
X156021248Y-71408316D01*
X156038072Y-71237500D01*
X156038072Y-70762500D01*
X156021248Y-70591684D01*
X155971423Y-70427433D01*
X155890512Y-70276058D01*
X155781623Y-70143377D01*
X155648942Y-70034488D01*
X155497567Y-69953577D01*
X155333316Y-69903752D01*
X155162500Y-69886928D01*
X154587500Y-69886928D01*
X154416684Y-69903752D01*
X154252433Y-69953577D01*
X154101058Y-70034488D01*
X154000000Y-70117425D01*
X153898942Y-70034488D01*
X153747567Y-69953577D01*
X153583316Y-69903752D01*
X153412500Y-69886928D01*
X152837500Y-69886928D01*
X152666684Y-69903752D01*
X152502433Y-69953577D01*
X152351058Y-70034488D01*
X152218377Y-70143377D01*
X152109488Y-70276058D01*
X152028577Y-70427433D01*
X151978752Y-70591684D01*
X151961928Y-70762500D01*
X151961928Y-71237500D01*
X151978752Y-71408316D01*
X152028577Y-71572567D01*
X152109488Y-71723942D01*
X152218377Y-71856623D01*
X152240000Y-71874369D01*
X152240001Y-73065015D01*
X152198815Y-73098815D01*
X152119463Y-73195506D01*
X152060498Y-73305820D01*
X152024188Y-73425518D01*
X152011928Y-73550000D01*
X152011928Y-75450000D01*
X152024188Y-75574482D01*
X152059042Y-75689380D01*
X151864952Y-75883470D01*
X151831184Y-75911183D01*
X151803471Y-75944951D01*
X151803468Y-75944954D01*
X151720590Y-76045941D01*
X151638412Y-76199687D01*
X151587805Y-76366510D01*
X151570719Y-76540000D01*
X151575001Y-76583479D01*
X151575000Y-84655000D01*
X149194759Y-84655000D01*
X149055134Y-84484866D01*
X149025313Y-84460393D01*
X149094180Y-84439502D01*
X149204494Y-84380537D01*
X149301185Y-84301185D01*
X149380537Y-84204494D01*
X149439502Y-84094180D01*
X149475812Y-83974482D01*
X149488072Y-83850000D01*
X149488072Y-82150000D01*
X149475812Y-82025518D01*
X149439502Y-81905820D01*
X149380537Y-81795506D01*
X149301185Y-81698815D01*
X149204494Y-81619463D01*
X149094180Y-81560498D01*
X148974482Y-81524188D01*
X148885000Y-81515375D01*
X148885000Y-78859981D01*
X148930537Y-78804494D01*
X148989502Y-78694180D01*
X149025812Y-78574482D01*
X149038072Y-78450000D01*
X149038072Y-76550000D01*
X149025812Y-76425518D01*
X148989502Y-76305820D01*
X148930537Y-76195506D01*
X148851185Y-76098815D01*
X148838095Y-76088072D01*
X149350000Y-76088072D01*
X149474482Y-76075812D01*
X149594180Y-76039502D01*
X149704494Y-75980537D01*
X149801185Y-75901185D01*
X149880537Y-75804494D01*
X149939502Y-75694180D01*
X149975812Y-75574482D01*
X149988072Y-75450000D01*
X149988072Y-73550000D01*
X149975812Y-73425518D01*
X149939502Y-73305820D01*
X149880537Y-73195506D01*
X149801185Y-73098815D01*
X149760000Y-73065015D01*
X149760000Y-71874369D01*
X149781623Y-71856623D01*
X149890512Y-71723942D01*
X149971423Y-71572567D01*
X150021248Y-71408316D01*
X150038072Y-71237500D01*
X150038072Y-70762500D01*
X150021248Y-70591684D01*
X149971423Y-70427433D01*
X149890512Y-70276058D01*
X149781623Y-70143377D01*
X149648942Y-70034488D01*
X149497567Y-69953577D01*
X149333316Y-69903752D01*
X149162500Y-69886928D01*
X148587500Y-69886928D01*
X148416684Y-69903752D01*
X148252433Y-69953577D01*
X148101058Y-70034488D01*
X148000000Y-70117425D01*
X147898942Y-70034488D01*
X147747567Y-69953577D01*
X147583316Y-69903752D01*
X147412500Y-69886928D01*
X146837500Y-69886928D01*
X146666684Y-69903752D01*
X146502433Y-69953577D01*
X146351058Y-70034488D01*
X146218377Y-70143377D01*
X146109488Y-70276058D01*
X146028577Y-70427433D01*
X145978752Y-70591684D01*
X145961928Y-70762500D01*
X145961928Y-71237500D01*
X145978752Y-71408316D01*
X146028577Y-71572567D01*
X146109488Y-71723942D01*
X146218377Y-71856623D01*
X146240000Y-71874369D01*
X146240001Y-73065015D01*
X146198815Y-73098815D01*
X146119463Y-73195506D01*
X146060498Y-73305820D01*
X146024188Y-73425518D01*
X146011928Y-73550000D01*
X146011928Y-75450000D01*
X146024188Y-75574482D01*
X146059042Y-75689380D01*
X145864952Y-75883470D01*
X145831184Y-75911183D01*
X145803471Y-75944951D01*
X145803468Y-75944954D01*
X145720590Y-76045941D01*
X145638412Y-76199687D01*
X145587805Y-76366510D01*
X145570719Y-76540000D01*
X145575001Y-76583479D01*
X145575000Y-84655000D01*
X143194759Y-84655000D01*
X143055134Y-84484866D01*
X143025313Y-84460393D01*
X143094180Y-84439502D01*
X143204494Y-84380537D01*
X143301185Y-84301185D01*
X143380537Y-84204494D01*
X143439502Y-84094180D01*
X143475812Y-83974482D01*
X143488072Y-83850000D01*
X143488072Y-82150000D01*
X143475812Y-82025518D01*
X143439502Y-81905820D01*
X143380537Y-81795506D01*
X143301185Y-81698815D01*
X143204494Y-81619463D01*
X143094180Y-81560498D01*
X142974482Y-81524188D01*
X142885000Y-81515375D01*
X142885000Y-78859981D01*
X142930537Y-78804494D01*
X142989502Y-78694180D01*
X143025812Y-78574482D01*
X143038072Y-78450000D01*
X143038072Y-76550000D01*
X143025812Y-76425518D01*
X142989502Y-76305820D01*
X142930537Y-76195506D01*
X142851185Y-76098815D01*
X142838095Y-76088072D01*
X143350000Y-76088072D01*
X143474482Y-76075812D01*
X143594180Y-76039502D01*
X143704494Y-75980537D01*
X143801185Y-75901185D01*
X143880537Y-75804494D01*
X143939502Y-75694180D01*
X143975812Y-75574482D01*
X143988072Y-75450000D01*
X143988072Y-73550000D01*
X143975812Y-73425518D01*
X143939502Y-73305820D01*
X143880537Y-73195506D01*
X143835000Y-73140019D01*
X143835000Y-71791583D01*
X143890512Y-71723942D01*
X143971423Y-71572567D01*
X144021248Y-71408316D01*
X144038072Y-71237500D01*
X144038072Y-70762500D01*
X144021248Y-70591684D01*
X143971423Y-70427433D01*
X143890512Y-70276058D01*
X143781623Y-70143377D01*
X143648942Y-70034488D01*
X143497567Y-69953577D01*
X143333316Y-69903752D01*
X143162500Y-69886928D01*
X142587500Y-69886928D01*
X142416684Y-69903752D01*
X142252433Y-69953577D01*
X142101058Y-70034488D01*
X142000000Y-70117425D01*
X141898942Y-70034488D01*
X141747567Y-69953577D01*
X141583316Y-69903752D01*
X141412500Y-69886928D01*
X140837500Y-69886928D01*
X140666684Y-69903752D01*
X140502433Y-69953577D01*
X140351058Y-70034488D01*
X140218377Y-70143377D01*
X140109488Y-70276058D01*
X140028577Y-70427433D01*
X139978752Y-70591684D01*
X139961928Y-70762500D01*
X139961928Y-71237500D01*
X139978752Y-71408316D01*
X140028577Y-71572567D01*
X140109488Y-71723942D01*
X140165001Y-71791584D01*
X140165000Y-73140018D01*
X140119463Y-73195506D01*
X140060498Y-73305820D01*
X140024188Y-73425518D01*
X140011928Y-73550000D01*
X140011928Y-75450000D01*
X140024188Y-75574482D01*
X140060498Y-75694180D01*
X140119463Y-75804494D01*
X140165000Y-75859981D01*
X140165001Y-81073419D01*
X140104955Y-81133465D01*
X140071182Y-81161182D01*
X139960588Y-81295941D01*
X139878410Y-81449687D01*
X139859529Y-81511928D01*
X139828721Y-81613488D01*
X139827804Y-81616510D01*
X139814999Y-81746523D01*
X139814999Y-81746530D01*
X139810718Y-81789999D01*
X139814999Y-81833468D01*
X139815000Y-84196520D01*
X139810718Y-84239999D01*
X139827804Y-84413489D01*
X139878411Y-84580312D01*
X139960589Y-84734058D01*
X140043467Y-84835045D01*
X140043470Y-84835048D01*
X140071183Y-84868816D01*
X140104951Y-84896529D01*
X140529388Y-85320966D01*
X140507815Y-85540000D01*
X140536487Y-85831111D01*
X140621401Y-86111034D01*
X140759294Y-86369014D01*
X140944866Y-86595134D01*
X141170986Y-86780706D01*
X141235523Y-86815201D01*
X141118645Y-86884822D01*
X140902412Y-87079731D01*
X140728359Y-87313080D01*
X140603175Y-87575901D01*
X140558524Y-87723110D01*
X140679845Y-87953000D01*
X141873000Y-87953000D01*
X141873000Y-87933000D01*
X142127000Y-87933000D01*
X142127000Y-87953000D01*
X143320155Y-87953000D01*
X143441476Y-87723110D01*
X143396825Y-87575901D01*
X143271641Y-87313080D01*
X143097588Y-87079731D01*
X142881355Y-86884822D01*
X142764477Y-86815201D01*
X142829014Y-86780706D01*
X143055134Y-86595134D01*
X143194759Y-86425000D01*
X146416523Y-86425000D01*
X146460000Y-86429282D01*
X146503476Y-86425000D01*
X146805241Y-86425000D01*
X146944866Y-86595134D01*
X147170986Y-86780706D01*
X147235523Y-86815201D01*
X147118645Y-86884822D01*
X146902412Y-87079731D01*
X146728359Y-87313080D01*
X146603175Y-87575901D01*
X146558524Y-87723110D01*
X146679845Y-87953000D01*
X147873000Y-87953000D01*
X147873000Y-87933000D01*
X148127000Y-87933000D01*
X148127000Y-87953000D01*
X149320155Y-87953000D01*
X149441476Y-87723110D01*
X149396825Y-87575901D01*
X149271641Y-87313080D01*
X149097588Y-87079731D01*
X148881355Y-86884822D01*
X148764477Y-86815201D01*
X148829014Y-86780706D01*
X149055134Y-86595134D01*
X149194759Y-86425000D01*
X152416523Y-86425000D01*
X152460000Y-86429282D01*
X152503476Y-86425000D01*
X152805241Y-86425000D01*
X152944866Y-86595134D01*
X153170986Y-86780706D01*
X153235523Y-86815201D01*
X153118645Y-86884822D01*
X152902412Y-87079731D01*
X152728359Y-87313080D01*
X152603175Y-87575901D01*
X152558524Y-87723110D01*
X152679845Y-87953000D01*
X153873000Y-87953000D01*
X153873000Y-87933000D01*
X154127000Y-87933000D01*
X154127000Y-87953000D01*
X155320155Y-87953000D01*
X155441476Y-87723110D01*
X155396825Y-87575901D01*
X155271641Y-87313080D01*
X155097588Y-87079731D01*
X154881355Y-86884822D01*
X154764477Y-86815201D01*
X154829014Y-86780706D01*
X155055134Y-86595134D01*
X155194759Y-86425000D01*
X158416523Y-86425000D01*
X158460000Y-86429282D01*
X158503476Y-86425000D01*
X158780242Y-86425000D01*
X158919867Y-86595134D01*
X159145987Y-86780706D01*
X159210524Y-86815201D01*
X159093646Y-86884822D01*
X158877413Y-87079731D01*
X158703360Y-87313080D01*
X158578176Y-87575901D01*
X158533525Y-87723110D01*
X158654846Y-87953000D01*
X159848001Y-87953000D01*
X159848001Y-87933000D01*
X160102001Y-87933000D01*
X160102001Y-87953000D01*
X161295156Y-87953000D01*
X161416477Y-87723110D01*
X161371826Y-87575901D01*
X161246642Y-87313080D01*
X161072589Y-87079731D01*
X160856356Y-86884822D01*
X160739478Y-86815201D01*
X160804015Y-86780706D01*
X161030135Y-86595134D01*
X161169760Y-86425000D01*
X164496523Y-86425000D01*
X164540000Y-86429282D01*
X164583476Y-86425000D01*
X164805241Y-86425000D01*
X164944866Y-86595134D01*
X165170986Y-86780706D01*
X165235523Y-86815201D01*
X165118645Y-86884822D01*
X164902412Y-87079731D01*
X164728359Y-87313080D01*
X164603175Y-87575901D01*
X164558524Y-87723110D01*
X164679845Y-87953000D01*
X165873000Y-87953000D01*
X165873000Y-87933000D01*
X166127000Y-87933000D01*
X166127000Y-87953000D01*
X167320155Y-87953000D01*
X167441476Y-87723110D01*
X167396825Y-87575901D01*
X167271641Y-87313080D01*
X167097588Y-87079731D01*
X166881355Y-86884822D01*
X166764477Y-86815201D01*
X166829014Y-86780706D01*
X167055134Y-86595134D01*
X167194759Y-86425000D01*
X170416523Y-86425000D01*
X170460000Y-86429282D01*
X170503476Y-86425000D01*
X170805241Y-86425000D01*
X170944866Y-86595134D01*
X171170986Y-86780706D01*
X171235523Y-86815201D01*
X171118645Y-86884822D01*
X170902412Y-87079731D01*
X170728359Y-87313080D01*
X170603175Y-87575901D01*
X170558524Y-87723110D01*
X170679845Y-87953000D01*
X171873000Y-87953000D01*
X171873000Y-87933000D01*
X172127000Y-87933000D01*
X172127000Y-87953000D01*
X173320155Y-87953000D01*
X173441476Y-87723110D01*
X173396825Y-87575901D01*
X173271641Y-87313080D01*
X173097588Y-87079731D01*
X172881355Y-86884822D01*
X172764477Y-86815201D01*
X172829014Y-86780706D01*
X173055134Y-86595134D01*
X173194759Y-86425000D01*
X176496523Y-86425000D01*
X176540000Y-86429282D01*
X176583476Y-86425000D01*
X176805241Y-86425000D01*
X176944866Y-86595134D01*
X177170986Y-86780706D01*
X177235523Y-86815201D01*
X177118645Y-86884822D01*
X176902412Y-87079731D01*
X176728359Y-87313080D01*
X176603175Y-87575901D01*
X176558524Y-87723110D01*
X176679845Y-87953000D01*
X177873000Y-87953000D01*
X177873000Y-87933000D01*
X178127000Y-87933000D01*
X178127000Y-87953000D01*
X179320155Y-87953000D01*
X179441476Y-87723110D01*
X179396825Y-87575901D01*
X179271641Y-87313080D01*
X179097588Y-87079731D01*
X178881355Y-86884822D01*
X178764477Y-86815201D01*
X178829014Y-86780706D01*
X179055134Y-86595134D01*
X179194759Y-86425000D01*
X182496523Y-86425000D01*
X182540000Y-86429282D01*
X182583476Y-86425000D01*
X182805241Y-86425000D01*
X182944866Y-86595134D01*
X183170986Y-86780706D01*
X183235523Y-86815201D01*
X183118645Y-86884822D01*
X182902412Y-87079731D01*
X182728359Y-87313080D01*
X182603175Y-87575901D01*
X182558524Y-87723110D01*
X182679845Y-87953000D01*
X183873000Y-87953000D01*
X183873000Y-87933000D01*
X184127000Y-87933000D01*
X184127000Y-87953000D01*
X185320155Y-87953000D01*
X185441476Y-87723110D01*
X185396825Y-87575901D01*
X185271641Y-87313080D01*
X185097588Y-87079731D01*
X184881355Y-86884822D01*
X184764477Y-86815201D01*
X184829014Y-86780706D01*
X185055134Y-86595134D01*
X185194759Y-86425000D01*
X188416523Y-86425000D01*
X188460000Y-86429282D01*
X188503476Y-86425000D01*
X188805241Y-86425000D01*
X188944866Y-86595134D01*
X189170986Y-86780706D01*
X189235523Y-86815201D01*
X189118645Y-86884822D01*
X188902412Y-87079731D01*
X188728359Y-87313080D01*
X188603175Y-87575901D01*
X188558524Y-87723110D01*
X188679845Y-87953000D01*
X189873000Y-87953000D01*
X189873000Y-87933000D01*
X190127000Y-87933000D01*
X190127000Y-87953000D01*
X191320155Y-87953000D01*
X191441476Y-87723110D01*
X191396825Y-87575901D01*
X191271641Y-87313080D01*
X191097588Y-87079731D01*
X190881355Y-86884822D01*
X190764477Y-86815201D01*
X190829014Y-86780706D01*
X191055134Y-86595134D01*
X191194759Y-86425000D01*
X193416524Y-86425000D01*
X193460000Y-86429282D01*
X193503477Y-86425000D01*
X194805241Y-86425000D01*
X194944866Y-86595134D01*
X195170986Y-86780706D01*
X195235523Y-86815201D01*
X195118645Y-86884822D01*
X194902412Y-87079731D01*
X194728359Y-87313080D01*
X194603175Y-87575901D01*
X194558524Y-87723110D01*
X194679845Y-87953000D01*
X195873000Y-87953000D01*
X195873000Y-87933000D01*
X196127000Y-87933000D01*
X196127000Y-87953000D01*
X196147000Y-87953000D01*
X196147000Y-88207000D01*
X196127000Y-88207000D01*
X196127000Y-89400814D01*
X196356891Y-89521481D01*
X196631252Y-89424157D01*
X196881355Y-89275178D01*
X197097588Y-89080269D01*
X197115000Y-89056925D01*
X197115001Y-97115000D01*
X187486579Y-97115000D01*
X187595050Y-97006529D01*
X187628817Y-96978817D01*
X187739411Y-96844059D01*
X187821589Y-96690313D01*
X187872195Y-96523490D01*
X187875935Y-96485518D01*
X187974482Y-96475812D01*
X188094180Y-96439502D01*
X188204494Y-96380537D01*
X188301185Y-96301185D01*
X188380537Y-96204494D01*
X188439502Y-96094180D01*
X188475812Y-95974482D01*
X188488072Y-95850000D01*
X188488072Y-94150000D01*
X188475812Y-94025518D01*
X188439502Y-93905820D01*
X188380537Y-93795506D01*
X188301185Y-93698815D01*
X188204494Y-93619463D01*
X188094180Y-93560498D01*
X187974482Y-93524188D01*
X187850000Y-93511928D01*
X186150000Y-93511928D01*
X186025518Y-93524188D01*
X185905820Y-93560498D01*
X185795506Y-93619463D01*
X185698815Y-93698815D01*
X185619463Y-93795506D01*
X185560498Y-93905820D01*
X185536034Y-93986466D01*
X185460269Y-93902412D01*
X185226920Y-93728359D01*
X184964099Y-93603175D01*
X184816890Y-93558524D01*
X184587000Y-93679845D01*
X184587000Y-94873000D01*
X184607000Y-94873000D01*
X184607000Y-95127000D01*
X184587000Y-95127000D01*
X184587000Y-96320155D01*
X184816890Y-96441476D01*
X184964099Y-96396825D01*
X185226920Y-96271641D01*
X185460269Y-96097588D01*
X185536034Y-96013534D01*
X185560498Y-96094180D01*
X185619463Y-96204494D01*
X185698815Y-96301185D01*
X185752873Y-96345549D01*
X184983422Y-97115000D01*
X167146579Y-97115000D01*
X166250612Y-96219034D01*
X166272185Y-96000000D01*
X166243513Y-95708889D01*
X166158599Y-95428966D01*
X166120075Y-95356891D01*
X183018519Y-95356891D01*
X183115843Y-95631252D01*
X183264822Y-95881355D01*
X183459731Y-96097588D01*
X183693080Y-96271641D01*
X183955901Y-96396825D01*
X184103110Y-96441476D01*
X184333000Y-96320155D01*
X184333000Y-95127000D01*
X183139186Y-95127000D01*
X183018519Y-95356891D01*
X166120075Y-95356891D01*
X166020706Y-95170986D01*
X165835134Y-94944866D01*
X165609014Y-94759294D01*
X165551244Y-94728416D01*
X165665613Y-94643109D01*
X183018519Y-94643109D01*
X183139186Y-94873000D01*
X184333000Y-94873000D01*
X184333000Y-93679845D01*
X184103110Y-93558524D01*
X183955901Y-93603175D01*
X183693080Y-93728359D01*
X183459731Y-93902412D01*
X183264822Y-94118645D01*
X183115843Y-94368748D01*
X183018519Y-94643109D01*
X165665613Y-94643109D01*
X165780269Y-94557588D01*
X165975178Y-94341355D01*
X166124157Y-94091252D01*
X166221481Y-93816891D01*
X166100814Y-93587000D01*
X164907000Y-93587000D01*
X164907000Y-93607000D01*
X164653000Y-93607000D01*
X164653000Y-93587000D01*
X162367000Y-93587000D01*
X162367000Y-93607000D01*
X162113000Y-93607000D01*
X162113000Y-93587000D01*
X159827000Y-93587000D01*
X159827000Y-93607000D01*
X159573000Y-93607000D01*
X159573000Y-93587000D01*
X157287000Y-93587000D01*
X157287000Y-93607000D01*
X157033000Y-93607000D01*
X157033000Y-93587000D01*
X154747000Y-93587000D01*
X154747000Y-93607000D01*
X154493000Y-93607000D01*
X154493000Y-93587000D01*
X152207000Y-93587000D01*
X152207000Y-93607000D01*
X151953000Y-93607000D01*
X151953000Y-93587000D01*
X149667000Y-93587000D01*
X149667000Y-93607000D01*
X149413000Y-93607000D01*
X149413000Y-93587000D01*
X147127000Y-93587000D01*
X147127000Y-93607000D01*
X146873000Y-93607000D01*
X146873000Y-93587000D01*
X145679186Y-93587000D01*
X145558519Y-93816891D01*
X145655843Y-94091252D01*
X145804822Y-94341355D01*
X145981626Y-94537502D01*
X145905820Y-94560498D01*
X145795506Y-94619463D01*
X145698815Y-94698815D01*
X145619463Y-94795506D01*
X145560498Y-94905820D01*
X145524188Y-95025518D01*
X145511928Y-95150000D01*
X145511928Y-96850000D01*
X145524188Y-96974482D01*
X145560498Y-97094180D01*
X145619463Y-97204494D01*
X145698815Y-97301185D01*
X145795506Y-97380537D01*
X145905820Y-97439502D01*
X146025518Y-97475812D01*
X146150000Y-97488072D01*
X147850000Y-97488072D01*
X147974482Y-97475812D01*
X148094180Y-97439502D01*
X148204494Y-97380537D01*
X148301185Y-97301185D01*
X148380537Y-97204494D01*
X148439502Y-97094180D01*
X148460393Y-97025313D01*
X148484866Y-97055134D01*
X148710986Y-97240706D01*
X148968966Y-97378599D01*
X149248889Y-97463513D01*
X149467050Y-97485000D01*
X149612950Y-97485000D01*
X149831111Y-97463513D01*
X150111034Y-97378599D01*
X150369014Y-97240706D01*
X150595134Y-97055134D01*
X150734759Y-96885000D01*
X150885241Y-96885000D01*
X151024866Y-97055134D01*
X151250986Y-97240706D01*
X151508966Y-97378599D01*
X151788889Y-97463513D01*
X152007050Y-97485000D01*
X152152950Y-97485000D01*
X152371111Y-97463513D01*
X152651034Y-97378599D01*
X152909014Y-97240706D01*
X153135134Y-97055134D01*
X153274759Y-96885000D01*
X153425241Y-96885000D01*
X153564866Y-97055134D01*
X153790986Y-97240706D01*
X154048966Y-97378599D01*
X154328889Y-97463513D01*
X154547050Y-97485000D01*
X154692950Y-97485000D01*
X154911111Y-97463513D01*
X155191034Y-97378599D01*
X155449014Y-97240706D01*
X155675134Y-97055134D01*
X155814759Y-96885000D01*
X155965241Y-96885000D01*
X156104866Y-97055134D01*
X156330986Y-97240706D01*
X156588966Y-97378599D01*
X156868889Y-97463513D01*
X157087050Y-97485000D01*
X157232950Y-97485000D01*
X157451111Y-97463513D01*
X157731034Y-97378599D01*
X157989014Y-97240706D01*
X158215134Y-97055134D01*
X158354759Y-96885000D01*
X158505241Y-96885000D01*
X158644866Y-97055134D01*
X158870986Y-97240706D01*
X159128966Y-97378599D01*
X159408889Y-97463513D01*
X159627050Y-97485000D01*
X159772950Y-97485000D01*
X159991111Y-97463513D01*
X160271034Y-97378599D01*
X160529014Y-97240706D01*
X160755134Y-97055134D01*
X160894759Y-96885000D01*
X161045241Y-96885000D01*
X161184866Y-97055134D01*
X161410986Y-97240706D01*
X161668966Y-97378599D01*
X161948889Y-97463513D01*
X162167050Y-97485000D01*
X162312950Y-97485000D01*
X162531111Y-97463513D01*
X162811034Y-97378599D01*
X163069014Y-97240706D01*
X163295134Y-97055134D01*
X163434759Y-96885000D01*
X163585241Y-96885000D01*
X163724866Y-97055134D01*
X163950986Y-97240706D01*
X164208966Y-97378599D01*
X164488889Y-97463513D01*
X164707050Y-97485000D01*
X164852950Y-97485000D01*
X164999034Y-97470612D01*
X165843421Y-98315000D01*
X139685000Y-98315000D01*
X139685000Y-93103109D01*
X145558519Y-93103109D01*
X145679186Y-93333000D01*
X146873000Y-93333000D01*
X146873000Y-92139845D01*
X147127000Y-92139845D01*
X147127000Y-93333000D01*
X149413000Y-93333000D01*
X149413000Y-92139845D01*
X149667000Y-92139845D01*
X149667000Y-93333000D01*
X151953000Y-93333000D01*
X151953000Y-92139845D01*
X152207000Y-92139845D01*
X152207000Y-93333000D01*
X154493000Y-93333000D01*
X154493000Y-92139845D01*
X154747000Y-92139845D01*
X154747000Y-93333000D01*
X157033000Y-93333000D01*
X157033000Y-92139845D01*
X157287000Y-92139845D01*
X157287000Y-93333000D01*
X159573000Y-93333000D01*
X159573000Y-92139845D01*
X159827000Y-92139845D01*
X159827000Y-93333000D01*
X162113000Y-93333000D01*
X162113000Y-92139845D01*
X162367000Y-92139845D01*
X162367000Y-93333000D01*
X164653000Y-93333000D01*
X164653000Y-92139845D01*
X164907000Y-92139845D01*
X164907000Y-93333000D01*
X166100814Y-93333000D01*
X166221481Y-93103109D01*
X166124157Y-92828748D01*
X165975178Y-92578645D01*
X165780269Y-92362412D01*
X165546920Y-92188359D01*
X165284099Y-92063175D01*
X165136890Y-92018524D01*
X164907000Y-92139845D01*
X164653000Y-92139845D01*
X164423110Y-92018524D01*
X164275901Y-92063175D01*
X164013080Y-92188359D01*
X163779731Y-92362412D01*
X163584822Y-92578645D01*
X163510000Y-92704255D01*
X163435178Y-92578645D01*
X163240269Y-92362412D01*
X163006920Y-92188359D01*
X162744099Y-92063175D01*
X162596890Y-92018524D01*
X162367000Y-92139845D01*
X162113000Y-92139845D01*
X161883110Y-92018524D01*
X161735901Y-92063175D01*
X161473080Y-92188359D01*
X161239731Y-92362412D01*
X161044822Y-92578645D01*
X160970000Y-92704255D01*
X160895178Y-92578645D01*
X160700269Y-92362412D01*
X160466920Y-92188359D01*
X160204099Y-92063175D01*
X160056890Y-92018524D01*
X159827000Y-92139845D01*
X159573000Y-92139845D01*
X159343110Y-92018524D01*
X159195901Y-92063175D01*
X158933080Y-92188359D01*
X158699731Y-92362412D01*
X158504822Y-92578645D01*
X158430000Y-92704255D01*
X158355178Y-92578645D01*
X158160269Y-92362412D01*
X157926920Y-92188359D01*
X157664099Y-92063175D01*
X157516890Y-92018524D01*
X157287000Y-92139845D01*
X157033000Y-92139845D01*
X156803110Y-92018524D01*
X156655901Y-92063175D01*
X156393080Y-92188359D01*
X156159731Y-92362412D01*
X155964822Y-92578645D01*
X155890000Y-92704255D01*
X155815178Y-92578645D01*
X155620269Y-92362412D01*
X155386920Y-92188359D01*
X155124099Y-92063175D01*
X154976890Y-92018524D01*
X154747000Y-92139845D01*
X154493000Y-92139845D01*
X154263110Y-92018524D01*
X154115901Y-92063175D01*
X153853080Y-92188359D01*
X153619731Y-92362412D01*
X153424822Y-92578645D01*
X153350000Y-92704255D01*
X153275178Y-92578645D01*
X153080269Y-92362412D01*
X152846920Y-92188359D01*
X152584099Y-92063175D01*
X152436890Y-92018524D01*
X152207000Y-92139845D01*
X151953000Y-92139845D01*
X151723110Y-92018524D01*
X151575901Y-92063175D01*
X151313080Y-92188359D01*
X151079731Y-92362412D01*
X150884822Y-92578645D01*
X150810000Y-92704255D01*
X150735178Y-92578645D01*
X150540269Y-92362412D01*
X150306920Y-92188359D01*
X150044099Y-92063175D01*
X149896890Y-92018524D01*
X149667000Y-92139845D01*
X149413000Y-92139845D01*
X149183110Y-92018524D01*
X149035901Y-92063175D01*
X148773080Y-92188359D01*
X148539731Y-92362412D01*
X148344822Y-92578645D01*
X148270000Y-92704255D01*
X148195178Y-92578645D01*
X148000269Y-92362412D01*
X147766920Y-92188359D01*
X147504099Y-92063175D01*
X147356890Y-92018524D01*
X147127000Y-92139845D01*
X146873000Y-92139845D01*
X146643110Y-92018524D01*
X146495901Y-92063175D01*
X146233080Y-92188359D01*
X145999731Y-92362412D01*
X145804822Y-92578645D01*
X145655843Y-92828748D01*
X145558519Y-93103109D01*
X139685000Y-93103109D01*
X139685000Y-88436890D01*
X140558524Y-88436890D01*
X140603175Y-88584099D01*
X140728359Y-88846920D01*
X140902412Y-89080269D01*
X141118645Y-89275178D01*
X141368748Y-89424157D01*
X141643109Y-89521481D01*
X141873000Y-89400814D01*
X141873000Y-88207000D01*
X142127000Y-88207000D01*
X142127000Y-89400814D01*
X142356891Y-89521481D01*
X142631252Y-89424157D01*
X142881355Y-89275178D01*
X143097588Y-89080269D01*
X143271641Y-88846920D01*
X143396825Y-88584099D01*
X143441476Y-88436890D01*
X146558524Y-88436890D01*
X146603175Y-88584099D01*
X146728359Y-88846920D01*
X146902412Y-89080269D01*
X147118645Y-89275178D01*
X147368748Y-89424157D01*
X147643109Y-89521481D01*
X147873000Y-89400814D01*
X147873000Y-88207000D01*
X148127000Y-88207000D01*
X148127000Y-89400814D01*
X148356891Y-89521481D01*
X148631252Y-89424157D01*
X148881355Y-89275178D01*
X149097588Y-89080269D01*
X149271641Y-88846920D01*
X149396825Y-88584099D01*
X149441476Y-88436890D01*
X152558524Y-88436890D01*
X152603175Y-88584099D01*
X152728359Y-88846920D01*
X152902412Y-89080269D01*
X153118645Y-89275178D01*
X153368748Y-89424157D01*
X153643109Y-89521481D01*
X153873000Y-89400814D01*
X153873000Y-88207000D01*
X154127000Y-88207000D01*
X154127000Y-89400814D01*
X154356891Y-89521481D01*
X154631252Y-89424157D01*
X154881355Y-89275178D01*
X155097588Y-89080269D01*
X155271641Y-88846920D01*
X155396825Y-88584099D01*
X155441476Y-88436890D01*
X158533525Y-88436890D01*
X158578176Y-88584099D01*
X158703360Y-88846920D01*
X158877413Y-89080269D01*
X159093646Y-89275178D01*
X159343749Y-89424157D01*
X159618110Y-89521481D01*
X159848001Y-89400814D01*
X159848001Y-88207000D01*
X160102001Y-88207000D01*
X160102001Y-89400814D01*
X160331892Y-89521481D01*
X160606253Y-89424157D01*
X160856356Y-89275178D01*
X161072589Y-89080269D01*
X161246642Y-88846920D01*
X161371826Y-88584099D01*
X161416477Y-88436890D01*
X164558524Y-88436890D01*
X164603175Y-88584099D01*
X164728359Y-88846920D01*
X164902412Y-89080269D01*
X165118645Y-89275178D01*
X165368748Y-89424157D01*
X165643109Y-89521481D01*
X165873000Y-89400814D01*
X165873000Y-88207000D01*
X166127000Y-88207000D01*
X166127000Y-89400814D01*
X166356891Y-89521481D01*
X166631252Y-89424157D01*
X166881355Y-89275178D01*
X167097588Y-89080269D01*
X167271641Y-88846920D01*
X167396825Y-88584099D01*
X167441476Y-88436890D01*
X170558524Y-88436890D01*
X170603175Y-88584099D01*
X170728359Y-88846920D01*
X170902412Y-89080269D01*
X171118645Y-89275178D01*
X171368748Y-89424157D01*
X171643109Y-89521481D01*
X171873000Y-89400814D01*
X171873000Y-88207000D01*
X172127000Y-88207000D01*
X172127000Y-89400814D01*
X172356891Y-89521481D01*
X172631252Y-89424157D01*
X172881355Y-89275178D01*
X173097588Y-89080269D01*
X173271641Y-88846920D01*
X173396825Y-88584099D01*
X173441476Y-88436890D01*
X176558524Y-88436890D01*
X176603175Y-88584099D01*
X176728359Y-88846920D01*
X176902412Y-89080269D01*
X177118645Y-89275178D01*
X177368748Y-89424157D01*
X177643109Y-89521481D01*
X177873000Y-89400814D01*
X177873000Y-88207000D01*
X178127000Y-88207000D01*
X178127000Y-89400814D01*
X178356891Y-89521481D01*
X178631252Y-89424157D01*
X178881355Y-89275178D01*
X179097588Y-89080269D01*
X179271641Y-88846920D01*
X179396825Y-88584099D01*
X179441476Y-88436890D01*
X182558524Y-88436890D01*
X182603175Y-88584099D01*
X182728359Y-88846920D01*
X182902412Y-89080269D01*
X183118645Y-89275178D01*
X183368748Y-89424157D01*
X183643109Y-89521481D01*
X183873000Y-89400814D01*
X183873000Y-88207000D01*
X184127000Y-88207000D01*
X184127000Y-89400814D01*
X184356891Y-89521481D01*
X184631252Y-89424157D01*
X184881355Y-89275178D01*
X185097588Y-89080269D01*
X185271641Y-88846920D01*
X185396825Y-88584099D01*
X185441476Y-88436890D01*
X188558524Y-88436890D01*
X188603175Y-88584099D01*
X188728359Y-88846920D01*
X188902412Y-89080269D01*
X189118645Y-89275178D01*
X189368748Y-89424157D01*
X189643109Y-89521481D01*
X189873000Y-89400814D01*
X189873000Y-88207000D01*
X190127000Y-88207000D01*
X190127000Y-89400814D01*
X190356891Y-89521481D01*
X190631252Y-89424157D01*
X190881355Y-89275178D01*
X191097588Y-89080269D01*
X191271641Y-88846920D01*
X191396825Y-88584099D01*
X191441476Y-88436890D01*
X194558524Y-88436890D01*
X194603175Y-88584099D01*
X194728359Y-88846920D01*
X194902412Y-89080269D01*
X195118645Y-89275178D01*
X195368748Y-89424157D01*
X195643109Y-89521481D01*
X195873000Y-89400814D01*
X195873000Y-88207000D01*
X194679845Y-88207000D01*
X194558524Y-88436890D01*
X191441476Y-88436890D01*
X191320155Y-88207000D01*
X190127000Y-88207000D01*
X189873000Y-88207000D01*
X188679845Y-88207000D01*
X188558524Y-88436890D01*
X185441476Y-88436890D01*
X185320155Y-88207000D01*
X184127000Y-88207000D01*
X183873000Y-88207000D01*
X182679845Y-88207000D01*
X182558524Y-88436890D01*
X179441476Y-88436890D01*
X179320155Y-88207000D01*
X178127000Y-88207000D01*
X177873000Y-88207000D01*
X176679845Y-88207000D01*
X176558524Y-88436890D01*
X173441476Y-88436890D01*
X173320155Y-88207000D01*
X172127000Y-88207000D01*
X171873000Y-88207000D01*
X170679845Y-88207000D01*
X170558524Y-88436890D01*
X167441476Y-88436890D01*
X167320155Y-88207000D01*
X166127000Y-88207000D01*
X165873000Y-88207000D01*
X164679845Y-88207000D01*
X164558524Y-88436890D01*
X161416477Y-88436890D01*
X161295156Y-88207000D01*
X160102001Y-88207000D01*
X159848001Y-88207000D01*
X158654846Y-88207000D01*
X158533525Y-88436890D01*
X155441476Y-88436890D01*
X155320155Y-88207000D01*
X154127000Y-88207000D01*
X153873000Y-88207000D01*
X152679845Y-88207000D01*
X152558524Y-88436890D01*
X149441476Y-88436890D01*
X149320155Y-88207000D01*
X148127000Y-88207000D01*
X147873000Y-88207000D01*
X146679845Y-88207000D01*
X146558524Y-88436890D01*
X143441476Y-88436890D01*
X143320155Y-88207000D01*
X142127000Y-88207000D01*
X141873000Y-88207000D01*
X140679845Y-88207000D01*
X140558524Y-88436890D01*
X139685000Y-88436890D01*
X139685000Y-66685000D01*
X198315001Y-66685000D01*
X198315000Y-85063422D01*
X198315000Y-85063422D01*
G37*
X198315000Y-85063422D02*
X198196534Y-84944956D01*
X198168817Y-84911183D01*
X198034059Y-84800589D01*
X197880313Y-84718411D01*
X197713490Y-84667805D01*
X197583477Y-84655000D01*
X197583469Y-84655000D01*
X197540000Y-84650719D01*
X197496531Y-84655000D01*
X197194759Y-84655000D01*
X197055134Y-84484866D01*
X197025313Y-84460393D01*
X197094180Y-84439502D01*
X197204494Y-84380537D01*
X197301185Y-84301185D01*
X197380537Y-84204494D01*
X197439502Y-84094180D01*
X197475812Y-83974482D01*
X197488072Y-83850000D01*
X197488072Y-82150000D01*
X197475812Y-82025518D01*
X197439502Y-81905820D01*
X197380537Y-81795506D01*
X197301185Y-81698815D01*
X197204494Y-81619463D01*
X197094180Y-81560498D01*
X196974482Y-81524188D01*
X196885000Y-81515375D01*
X196885000Y-78859981D01*
X196930537Y-78804494D01*
X196989502Y-78694180D01*
X197025812Y-78574482D01*
X197038072Y-78450000D01*
X197038072Y-76550000D01*
X197025812Y-76425518D01*
X196989502Y-76305820D01*
X196930537Y-76195506D01*
X196851185Y-76098815D01*
X196838095Y-76088072D01*
X197350000Y-76088072D01*
X197474482Y-76075812D01*
X197594180Y-76039502D01*
X197704494Y-75980537D01*
X197801185Y-75901185D01*
X197880537Y-75804494D01*
X197939502Y-75694180D01*
X197975812Y-75574482D01*
X197988072Y-75450000D01*
X197988072Y-73550000D01*
X197975812Y-73425518D01*
X197939502Y-73305820D01*
X197880537Y-73195506D01*
X197801185Y-73098815D01*
X197760000Y-73065015D01*
X197760000Y-71874369D01*
X197781623Y-71856623D01*
X197890512Y-71723942D01*
X197971423Y-71572567D01*
X198021248Y-71408316D01*
X198038072Y-71237500D01*
X198038072Y-70762500D01*
X198021248Y-70591684D01*
X197971423Y-70427433D01*
X197890512Y-70276058D01*
X197781623Y-70143377D01*
X197648942Y-70034488D01*
X197497567Y-69953577D01*
X197333316Y-69903752D01*
X197162500Y-69886928D01*
X196587500Y-69886928D01*
X196416684Y-69903752D01*
X196252433Y-69953577D01*
X196101058Y-70034488D01*
X196000000Y-70117425D01*
X195898942Y-70034488D01*
X195747567Y-69953577D01*
X195583316Y-69903752D01*
X195412500Y-69886928D01*
X194837500Y-69886928D01*
X194666684Y-69903752D01*
X194502433Y-69953577D01*
X194351058Y-70034488D01*
X194218377Y-70143377D01*
X194109488Y-70276058D01*
X194028577Y-70427433D01*
X193978752Y-70591684D01*
X193961928Y-70762500D01*
X193961928Y-71237500D01*
X193978752Y-71408316D01*
X194028577Y-71572567D01*
X194109488Y-71723942D01*
X194218377Y-71856623D01*
X194240000Y-71874369D01*
X194240001Y-73065015D01*
X194198815Y-73098815D01*
X194119463Y-73195506D01*
X194060498Y-73305820D01*
X194024188Y-73425518D01*
X194011928Y-73550000D01*
X194011928Y-73624317D01*
X193976510Y-73627805D01*
X193809687Y-73678411D01*
X193655941Y-73760589D01*
X193626452Y-73784790D01*
X193554953Y-73843468D01*
X193554951Y-73843470D01*
X193521183Y-73871183D01*
X193493470Y-73904951D01*
X192864956Y-74533466D01*
X192831183Y-74561183D01*
X192720589Y-74695942D01*
X192638411Y-74849688D01*
X192617367Y-74919059D01*
X192594616Y-74994060D01*
X192587805Y-75016511D01*
X192575000Y-75146524D01*
X192575000Y-75146531D01*
X192570719Y-75190000D01*
X192575000Y-75233469D01*
X192575001Y-84655000D01*
X191194759Y-84655000D01*
X191055134Y-84484866D01*
X191025313Y-84460393D01*
X191094180Y-84439502D01*
X191204494Y-84380537D01*
X191301185Y-84301185D01*
X191380537Y-84204494D01*
X191439502Y-84094180D01*
X191475812Y-83974482D01*
X191488072Y-83850000D01*
X191488072Y-82150000D01*
X191475812Y-82025518D01*
X191439502Y-81905820D01*
X191380537Y-81795506D01*
X191301185Y-81698815D01*
X191204494Y-81619463D01*
X191094180Y-81560498D01*
X190974482Y-81524188D01*
X190885000Y-81515375D01*
X190885000Y-78859981D01*
X190930537Y-78804494D01*
X190989502Y-78694180D01*
X191025812Y-78574482D01*
X191038072Y-78450000D01*
X191038072Y-76550000D01*
X191025812Y-76425518D01*
X190989502Y-76305820D01*
X190930537Y-76195506D01*
X190851185Y-76098815D01*
X190838095Y-76088072D01*
X191350000Y-76088072D01*
X191474482Y-76075812D01*
X191594180Y-76039502D01*
X191704494Y-75980537D01*
X191801185Y-75901185D01*
X191880537Y-75804494D01*
X191939502Y-75694180D01*
X191975812Y-75574482D01*
X191988072Y-75450000D01*
X191988072Y-73550000D01*
X191975812Y-73425518D01*
X191939502Y-73305820D01*
X191880537Y-73195506D01*
X191801185Y-73098815D01*
X191760000Y-73065015D01*
X191760000Y-71874369D01*
X191781623Y-71856623D01*
X191890512Y-71723942D01*
X191971423Y-71572567D01*
X192021248Y-71408316D01*
X192038072Y-71237500D01*
X192038072Y-70762500D01*
X192021248Y-70591684D01*
X191971423Y-70427433D01*
X191890512Y-70276058D01*
X191781623Y-70143377D01*
X191648942Y-70034488D01*
X191497567Y-69953577D01*
X191333316Y-69903752D01*
X191162500Y-69886928D01*
X190587500Y-69886928D01*
X190416684Y-69903752D01*
X190252433Y-69953577D01*
X190101058Y-70034488D01*
X190000000Y-70117425D01*
X189898942Y-70034488D01*
X189747567Y-69953577D01*
X189583316Y-69903752D01*
X189412500Y-69886928D01*
X188837500Y-69886928D01*
X188666684Y-69903752D01*
X188502433Y-69953577D01*
X188351058Y-70034488D01*
X188218377Y-70143377D01*
X188109488Y-70276058D01*
X188028577Y-70427433D01*
X187978752Y-70591684D01*
X187961928Y-70762500D01*
X187961928Y-71237500D01*
X187978752Y-71408316D01*
X188028577Y-71572567D01*
X188109488Y-71723942D01*
X188218377Y-71856623D01*
X188240000Y-71874369D01*
X188240001Y-73065015D01*
X188198815Y-73098815D01*
X188119463Y-73195506D01*
X188060498Y-73305820D01*
X188024188Y-73425518D01*
X188011928Y-73550000D01*
X188011928Y-75450000D01*
X188024188Y-75574482D01*
X188059042Y-75689380D01*
X187864952Y-75883470D01*
X187831184Y-75911183D01*
X187803471Y-75944951D01*
X187803468Y-75944954D01*
X187720590Y-76045941D01*
X187638412Y-76199687D01*
X187587805Y-76366510D01*
X187570719Y-76540000D01*
X187575001Y-76583479D01*
X187575000Y-84655000D01*
X185194759Y-84655000D01*
X185055134Y-84484866D01*
X185025313Y-84460393D01*
X185094180Y-84439502D01*
X185204494Y-84380537D01*
X185301185Y-84301185D01*
X185380537Y-84204494D01*
X185439502Y-84094180D01*
X185475812Y-83974482D01*
X185488072Y-83850000D01*
X185488072Y-82150000D01*
X185475812Y-82025518D01*
X185439502Y-81905820D01*
X185380537Y-81795506D01*
X185301185Y-81698815D01*
X185204494Y-81619463D01*
X185094180Y-81560498D01*
X184974482Y-81524188D01*
X184885000Y-81515375D01*
X184885000Y-78859981D01*
X184930537Y-78804494D01*
X184989502Y-78694180D01*
X185025812Y-78574482D01*
X185038072Y-78450000D01*
X185038072Y-76550000D01*
X185025812Y-76425518D01*
X184989502Y-76305820D01*
X184930537Y-76195506D01*
X184851185Y-76098815D01*
X184838095Y-76088072D01*
X185350000Y-76088072D01*
X185474482Y-76075812D01*
X185594180Y-76039502D01*
X185704494Y-75980537D01*
X185801185Y-75901185D01*
X185880537Y-75804494D01*
X185939502Y-75694180D01*
X185975812Y-75574482D01*
X185988072Y-75450000D01*
X185988072Y-73550000D01*
X185975812Y-73425518D01*
X185939502Y-73305820D01*
X185880537Y-73195506D01*
X185801185Y-73098815D01*
X185760000Y-73065015D01*
X185760000Y-71874369D01*
X185781623Y-71856623D01*
X185890512Y-71723942D01*
X185971423Y-71572567D01*
X186021248Y-71408316D01*
X186038072Y-71237500D01*
X186038072Y-70762500D01*
X186021248Y-70591684D01*
X185971423Y-70427433D01*
X185890512Y-70276058D01*
X185781623Y-70143377D01*
X185648942Y-70034488D01*
X185497567Y-69953577D01*
X185333316Y-69903752D01*
X185162500Y-69886928D01*
X184587500Y-69886928D01*
X184416684Y-69903752D01*
X184252433Y-69953577D01*
X184101058Y-70034488D01*
X184000000Y-70117425D01*
X183898942Y-70034488D01*
X183747567Y-69953577D01*
X183583316Y-69903752D01*
X183412500Y-69886928D01*
X182837500Y-69886928D01*
X182666684Y-69903752D01*
X182502433Y-69953577D01*
X182351058Y-70034488D01*
X182218377Y-70143377D01*
X182109488Y-70276058D01*
X182028577Y-70427433D01*
X181978752Y-70591684D01*
X181961928Y-70762500D01*
X181961928Y-71237500D01*
X181978752Y-71408316D01*
X182028577Y-71572567D01*
X182109488Y-71723942D01*
X182218377Y-71856623D01*
X182240000Y-71874369D01*
X182240001Y-73065015D01*
X182198815Y-73098815D01*
X182119463Y-73195506D01*
X182060498Y-73305820D01*
X182024188Y-73425518D01*
X182011928Y-73550000D01*
X182011928Y-75450000D01*
X182024188Y-75574482D01*
X182059042Y-75689380D01*
X181944952Y-75803470D01*
X181911184Y-75831183D01*
X181883471Y-75864951D01*
X181883468Y-75864954D01*
X181800590Y-75965941D01*
X181718412Y-76119687D01*
X181667805Y-76286510D01*
X181650719Y-76460000D01*
X181655001Y-76503479D01*
X181655000Y-84655000D01*
X179194759Y-84655000D01*
X179055134Y-84484866D01*
X179025313Y-84460393D01*
X179094180Y-84439502D01*
X179204494Y-84380537D01*
X179301185Y-84301185D01*
X179380537Y-84204494D01*
X179439502Y-84094180D01*
X179475812Y-83974482D01*
X179488072Y-83850000D01*
X179488072Y-82150000D01*
X179475812Y-82025518D01*
X179439502Y-81905820D01*
X179380537Y-81795506D01*
X179301185Y-81698815D01*
X179204494Y-81619463D01*
X179094180Y-81560498D01*
X178974482Y-81524188D01*
X178885000Y-81515375D01*
X178885000Y-78859981D01*
X178930537Y-78804494D01*
X178989502Y-78694180D01*
X179025812Y-78574482D01*
X179038072Y-78450000D01*
X179038072Y-76550000D01*
X179025812Y-76425518D01*
X178989502Y-76305820D01*
X178930537Y-76195506D01*
X178851185Y-76098815D01*
X178838095Y-76088072D01*
X179350000Y-76088072D01*
X179474482Y-76075812D01*
X179594180Y-76039502D01*
X179704494Y-75980537D01*
X179801185Y-75901185D01*
X179880537Y-75804494D01*
X179939502Y-75694180D01*
X179975812Y-75574482D01*
X179988072Y-75450000D01*
X179988072Y-73550000D01*
X179975812Y-73425518D01*
X179939502Y-73305820D01*
X179880537Y-73195506D01*
X179801185Y-73098815D01*
X179760000Y-73065015D01*
X179760000Y-71874369D01*
X179781623Y-71856623D01*
X179890512Y-71723942D01*
X179971423Y-71572567D01*
X180021248Y-71408316D01*
X180038072Y-71237500D01*
X180038072Y-70762500D01*
X180021248Y-70591684D01*
X179971423Y-70427433D01*
X179890512Y-70276058D01*
X179781623Y-70143377D01*
X179648942Y-70034488D01*
X179497567Y-69953577D01*
X179333316Y-69903752D01*
X179162500Y-69886928D01*
X178587500Y-69886928D01*
X178416684Y-69903752D01*
X178252433Y-69953577D01*
X178101058Y-70034488D01*
X178000000Y-70117425D01*
X177898942Y-70034488D01*
X177747567Y-69953577D01*
X177583316Y-69903752D01*
X177412500Y-69886928D01*
X176837500Y-69886928D01*
X176666684Y-69903752D01*
X176502433Y-69953577D01*
X176351058Y-70034488D01*
X176218377Y-70143377D01*
X176109488Y-70276058D01*
X176028577Y-70427433D01*
X175978752Y-70591684D01*
X175961928Y-70762500D01*
X175961928Y-71237500D01*
X175978752Y-71408316D01*
X176028577Y-71572567D01*
X176109488Y-71723942D01*
X176218377Y-71856623D01*
X176240000Y-71874369D01*
X176240001Y-73065015D01*
X176198815Y-73098815D01*
X176119463Y-73195506D01*
X176060498Y-73305820D01*
X176024188Y-73425518D01*
X176011928Y-73550000D01*
X176011928Y-75450000D01*
X176024188Y-75574482D01*
X176059042Y-75689380D01*
X175944952Y-75803470D01*
X175911184Y-75831183D01*
X175883471Y-75864951D01*
X175883468Y-75864954D01*
X175800590Y-75965941D01*
X175718412Y-76119687D01*
X175667805Y-76286510D01*
X175650719Y-76460000D01*
X175655001Y-76503479D01*
X175655000Y-84655000D01*
X173194759Y-84655000D01*
X173055134Y-84484866D01*
X173025313Y-84460393D01*
X173094180Y-84439502D01*
X173204494Y-84380537D01*
X173301185Y-84301185D01*
X173380537Y-84204494D01*
X173439502Y-84094180D01*
X173475812Y-83974482D01*
X173488072Y-83850000D01*
X173488072Y-82150000D01*
X173475812Y-82025518D01*
X173439502Y-81905820D01*
X173380537Y-81795506D01*
X173301185Y-81698815D01*
X173204494Y-81619463D01*
X173094180Y-81560498D01*
X172974482Y-81524188D01*
X172885000Y-81515375D01*
X172885000Y-78859981D01*
X172930537Y-78804494D01*
X172989502Y-78694180D01*
X173025812Y-78574482D01*
X173038072Y-78450000D01*
X173038072Y-76550000D01*
X173025812Y-76425518D01*
X172989502Y-76305820D01*
X172930537Y-76195506D01*
X172851185Y-76098815D01*
X172838095Y-76088072D01*
X173350000Y-76088072D01*
X173474482Y-76075812D01*
X173594180Y-76039502D01*
X173704494Y-75980537D01*
X173801185Y-75901185D01*
X173880537Y-75804494D01*
X173939502Y-75694180D01*
X173975812Y-75574482D01*
X173988072Y-75450000D01*
X173988072Y-73550000D01*
X173975812Y-73425518D01*
X173939502Y-73305820D01*
X173880537Y-73195506D01*
X173801185Y-73098815D01*
X173760000Y-73065015D01*
X173760000Y-71874369D01*
X173781623Y-71856623D01*
X173890512Y-71723942D01*
X173971423Y-71572567D01*
X174021248Y-71408316D01*
X174038072Y-71237500D01*
X174038072Y-70762500D01*
X174021248Y-70591684D01*
X173971423Y-70427433D01*
X173890512Y-70276058D01*
X173781623Y-70143377D01*
X173648942Y-70034488D01*
X173497567Y-69953577D01*
X173333316Y-69903752D01*
X173162500Y-69886928D01*
X172587500Y-69886928D01*
X172416684Y-69903752D01*
X172252433Y-69953577D01*
X172101058Y-70034488D01*
X172000000Y-70117425D01*
X171898942Y-70034488D01*
X171747567Y-69953577D01*
X171583316Y-69903752D01*
X171412500Y-69886928D01*
X170837500Y-69886928D01*
X170666684Y-69903752D01*
X170502433Y-69953577D01*
X170351058Y-70034488D01*
X170218377Y-70143377D01*
X170109488Y-70276058D01*
X170028577Y-70427433D01*
X169978752Y-70591684D01*
X169961928Y-70762500D01*
X169961928Y-71237500D01*
X169978752Y-71408316D01*
X170028577Y-71572567D01*
X170109488Y-71723942D01*
X170218377Y-71856623D01*
X170240000Y-71874369D01*
X170240001Y-73065015D01*
X170198815Y-73098815D01*
X170119463Y-73195506D01*
X170060498Y-73305820D01*
X170024188Y-73425518D01*
X170011928Y-73550000D01*
X170011928Y-75450000D01*
X170024188Y-75574482D01*
X170059042Y-75689380D01*
X169864952Y-75883470D01*
X169831184Y-75911183D01*
X169803471Y-75944951D01*
X169803468Y-75944954D01*
X169720590Y-76045941D01*
X169638412Y-76199687D01*
X169587805Y-76366510D01*
X169570719Y-76540000D01*
X169575001Y-76583479D01*
X169575000Y-84655000D01*
X167194759Y-84655000D01*
X167055134Y-84484866D01*
X167025313Y-84460393D01*
X167094180Y-84439502D01*
X167204494Y-84380537D01*
X167301185Y-84301185D01*
X167380537Y-84204494D01*
X167439502Y-84094180D01*
X167475812Y-83974482D01*
X167488072Y-83850000D01*
X167488072Y-82150000D01*
X167475812Y-82025518D01*
X167439502Y-81905820D01*
X167380537Y-81795506D01*
X167301185Y-81698815D01*
X167204494Y-81619463D01*
X167094180Y-81560498D01*
X166974482Y-81524188D01*
X166885000Y-81515375D01*
X166885000Y-78859981D01*
X166930537Y-78804494D01*
X166989502Y-78694180D01*
X167025812Y-78574482D01*
X167038072Y-78450000D01*
X167038072Y-76550000D01*
X167025812Y-76425518D01*
X166989502Y-76305820D01*
X166930537Y-76195506D01*
X166851185Y-76098815D01*
X166838095Y-76088072D01*
X167350000Y-76088072D01*
X167474482Y-76075812D01*
X167594180Y-76039502D01*
X167704494Y-75980537D01*
X167801185Y-75901185D01*
X167880537Y-75804494D01*
X167939502Y-75694180D01*
X167975812Y-75574482D01*
X167988072Y-75450000D01*
X167988072Y-73550000D01*
X167975812Y-73425518D01*
X167939502Y-73305820D01*
X167880537Y-73195506D01*
X167801185Y-73098815D01*
X167760000Y-73065015D01*
X167760000Y-71874369D01*
X167781623Y-71856623D01*
X167890512Y-71723942D01*
X167971423Y-71572567D01*
X168021248Y-71408316D01*
X168038072Y-71237500D01*
X168038072Y-70762500D01*
X168021248Y-70591684D01*
X167971423Y-70427433D01*
X167890512Y-70276058D01*
X167781623Y-70143377D01*
X167648942Y-70034488D01*
X167497567Y-69953577D01*
X167333316Y-69903752D01*
X167162500Y-69886928D01*
X166587500Y-69886928D01*
X166416684Y-69903752D01*
X166252433Y-69953577D01*
X166101058Y-70034488D01*
X166000000Y-70117425D01*
X165898942Y-70034488D01*
X165747567Y-69953577D01*
X165583316Y-69903752D01*
X165412500Y-69886928D01*
X164837500Y-69886928D01*
X164666684Y-69903752D01*
X164502433Y-69953577D01*
X164351058Y-70034488D01*
X164218377Y-70143377D01*
X164109488Y-70276058D01*
X164028577Y-70427433D01*
X163978752Y-70591684D01*
X163961928Y-70762500D01*
X163961928Y-71237500D01*
X163978752Y-71408316D01*
X164028577Y-71572567D01*
X164109488Y-71723942D01*
X164218377Y-71856623D01*
X164240000Y-71874369D01*
X164240001Y-73065015D01*
X164198815Y-73098815D01*
X164119463Y-73195506D01*
X164060498Y-73305820D01*
X164024188Y-73425518D01*
X164011928Y-73550000D01*
X164011928Y-75450000D01*
X164024188Y-75574482D01*
X164059042Y-75689380D01*
X163944952Y-75803470D01*
X163911184Y-75831183D01*
X163883471Y-75864951D01*
X163883468Y-75864954D01*
X163800590Y-75965941D01*
X163718412Y-76119687D01*
X163667805Y-76286510D01*
X163650719Y-76460000D01*
X163655001Y-76503479D01*
X163655000Y-84655000D01*
X161169760Y-84655000D01*
X161030135Y-84484866D01*
X161000314Y-84460393D01*
X161069181Y-84439502D01*
X161179495Y-84380537D01*
X161276186Y-84301185D01*
X161355538Y-84204494D01*
X161414503Y-84094180D01*
X161450813Y-83974482D01*
X161463073Y-83850000D01*
X161463073Y-82150000D01*
X161450813Y-82025518D01*
X161414503Y-81905820D01*
X161355538Y-81795506D01*
X161276186Y-81698815D01*
X161179495Y-81619463D01*
X161069181Y-81560498D01*
X160949483Y-81524188D01*
X160885000Y-81517837D01*
X160885000Y-78859981D01*
X160930537Y-78804494D01*
X160989502Y-78694180D01*
X161025812Y-78574482D01*
X161038072Y-78450000D01*
X161038072Y-76550000D01*
X161025812Y-76425518D01*
X160989502Y-76305820D01*
X160930537Y-76195506D01*
X160851185Y-76098815D01*
X160838095Y-76088072D01*
X161350000Y-76088072D01*
X161474482Y-76075812D01*
X161594180Y-76039502D01*
X161704494Y-75980537D01*
X161801185Y-75901185D01*
X161880537Y-75804494D01*
X161939502Y-75694180D01*
X161975812Y-75574482D01*
X161988072Y-75450000D01*
X161988072Y-73550000D01*
X161975812Y-73425518D01*
X161939502Y-73305820D01*
X161880537Y-73195506D01*
X161801185Y-73098815D01*
X161760000Y-73065015D01*
X161760000Y-71874369D01*
X161781623Y-71856623D01*
X161890512Y-71723942D01*
X161971423Y-71572567D01*
X162021248Y-71408316D01*
X162038072Y-71237500D01*
X162038072Y-70762500D01*
X162021248Y-70591684D01*
X161971423Y-70427433D01*
X161890512Y-70276058D01*
X161781623Y-70143377D01*
X161648942Y-70034488D01*
X161497567Y-69953577D01*
X161333316Y-69903752D01*
X161162500Y-69886928D01*
X160587500Y-69886928D01*
X160416684Y-69903752D01*
X160252433Y-69953577D01*
X160101058Y-70034488D01*
X160000000Y-70117425D01*
X159898942Y-70034488D01*
X159747567Y-69953577D01*
X159583316Y-69903752D01*
X159412500Y-69886928D01*
X158837500Y-69886928D01*
X158666684Y-69903752D01*
X158502433Y-69953577D01*
X158351058Y-70034488D01*
X158218377Y-70143377D01*
X158109488Y-70276058D01*
X158028577Y-70427433D01*
X157978752Y-70591684D01*
X157961928Y-70762500D01*
X157961928Y-71237500D01*
X157978752Y-71408316D01*
X158028577Y-71572567D01*
X158109488Y-71723942D01*
X158218377Y-71856623D01*
X158240000Y-71874369D01*
X158240001Y-73065015D01*
X158198815Y-73098815D01*
X158119463Y-73195506D01*
X158060498Y-73305820D01*
X158024188Y-73425518D01*
X158011928Y-73550000D01*
X158011928Y-75450000D01*
X158024188Y-75574482D01*
X158059042Y-75689380D01*
X157864952Y-75883470D01*
X157831184Y-75911183D01*
X157803471Y-75944951D01*
X157803468Y-75944954D01*
X157720590Y-76045941D01*
X157638412Y-76199687D01*
X157587805Y-76366510D01*
X157570719Y-76540000D01*
X157575001Y-76583479D01*
X157575000Y-84655000D01*
X155194759Y-84655000D01*
X155055134Y-84484866D01*
X155025313Y-84460393D01*
X155094180Y-84439502D01*
X155204494Y-84380537D01*
X155301185Y-84301185D01*
X155380537Y-84204494D01*
X155439502Y-84094180D01*
X155475812Y-83974482D01*
X155488072Y-83850000D01*
X155488072Y-82150000D01*
X155475812Y-82025518D01*
X155439502Y-81905820D01*
X155380537Y-81795506D01*
X155301185Y-81698815D01*
X155204494Y-81619463D01*
X155094180Y-81560498D01*
X154974482Y-81524188D01*
X154885000Y-81515375D01*
X154885000Y-78859981D01*
X154930537Y-78804494D01*
X154989502Y-78694180D01*
X155025812Y-78574482D01*
X155038072Y-78450000D01*
X155038072Y-76550000D01*
X155025812Y-76425518D01*
X154989502Y-76305820D01*
X154930537Y-76195506D01*
X154851185Y-76098815D01*
X154838095Y-76088072D01*
X155350000Y-76088072D01*
X155474482Y-76075812D01*
X155594180Y-76039502D01*
X155704494Y-75980537D01*
X155801185Y-75901185D01*
X155880537Y-75804494D01*
X155939502Y-75694180D01*
X155975812Y-75574482D01*
X155988072Y-75450000D01*
X155988072Y-73550000D01*
X155975812Y-73425518D01*
X155939502Y-73305820D01*
X155880537Y-73195506D01*
X155801185Y-73098815D01*
X155760000Y-73065015D01*
X155760000Y-71874369D01*
X155781623Y-71856623D01*
X155890512Y-71723942D01*
X155971423Y-71572567D01*
X156021248Y-71408316D01*
X156038072Y-71237500D01*
X156038072Y-70762500D01*
X156021248Y-70591684D01*
X155971423Y-70427433D01*
X155890512Y-70276058D01*
X155781623Y-70143377D01*
X155648942Y-70034488D01*
X155497567Y-69953577D01*
X155333316Y-69903752D01*
X155162500Y-69886928D01*
X154587500Y-69886928D01*
X154416684Y-69903752D01*
X154252433Y-69953577D01*
X154101058Y-70034488D01*
X154000000Y-70117425D01*
X153898942Y-70034488D01*
X153747567Y-69953577D01*
X153583316Y-69903752D01*
X153412500Y-69886928D01*
X152837500Y-69886928D01*
X152666684Y-69903752D01*
X152502433Y-69953577D01*
X152351058Y-70034488D01*
X152218377Y-70143377D01*
X152109488Y-70276058D01*
X152028577Y-70427433D01*
X151978752Y-70591684D01*
X151961928Y-70762500D01*
X151961928Y-71237500D01*
X151978752Y-71408316D01*
X152028577Y-71572567D01*
X152109488Y-71723942D01*
X152218377Y-71856623D01*
X152240000Y-71874369D01*
X152240001Y-73065015D01*
X152198815Y-73098815D01*
X152119463Y-73195506D01*
X152060498Y-73305820D01*
X152024188Y-73425518D01*
X152011928Y-73550000D01*
X152011928Y-75450000D01*
X152024188Y-75574482D01*
X152059042Y-75689380D01*
X151864952Y-75883470D01*
X151831184Y-75911183D01*
X151803471Y-75944951D01*
X151803468Y-75944954D01*
X151720590Y-76045941D01*
X151638412Y-76199687D01*
X151587805Y-76366510D01*
X151570719Y-76540000D01*
X151575001Y-76583479D01*
X151575000Y-84655000D01*
X149194759Y-84655000D01*
X149055134Y-84484866D01*
X149025313Y-84460393D01*
X149094180Y-84439502D01*
X149204494Y-84380537D01*
X149301185Y-84301185D01*
X149380537Y-84204494D01*
X149439502Y-84094180D01*
X149475812Y-83974482D01*
X149488072Y-83850000D01*
X149488072Y-82150000D01*
X149475812Y-82025518D01*
X149439502Y-81905820D01*
X149380537Y-81795506D01*
X149301185Y-81698815D01*
X149204494Y-81619463D01*
X149094180Y-81560498D01*
X148974482Y-81524188D01*
X148885000Y-81515375D01*
X148885000Y-78859981D01*
X148930537Y-78804494D01*
X148989502Y-78694180D01*
X149025812Y-78574482D01*
X149038072Y-78450000D01*
X149038072Y-76550000D01*
X149025812Y-76425518D01*
X148989502Y-76305820D01*
X148930537Y-76195506D01*
X148851185Y-76098815D01*
X148838095Y-76088072D01*
X149350000Y-76088072D01*
X149474482Y-76075812D01*
X149594180Y-76039502D01*
X149704494Y-75980537D01*
X149801185Y-75901185D01*
X149880537Y-75804494D01*
X149939502Y-75694180D01*
X149975812Y-75574482D01*
X149988072Y-75450000D01*
X149988072Y-73550000D01*
X149975812Y-73425518D01*
X149939502Y-73305820D01*
X149880537Y-73195506D01*
X149801185Y-73098815D01*
X149760000Y-73065015D01*
X149760000Y-71874369D01*
X149781623Y-71856623D01*
X149890512Y-71723942D01*
X149971423Y-71572567D01*
X150021248Y-71408316D01*
X150038072Y-71237500D01*
X150038072Y-70762500D01*
X150021248Y-70591684D01*
X149971423Y-70427433D01*
X149890512Y-70276058D01*
X149781623Y-70143377D01*
X149648942Y-70034488D01*
X149497567Y-69953577D01*
X149333316Y-69903752D01*
X149162500Y-69886928D01*
X148587500Y-69886928D01*
X148416684Y-69903752D01*
X148252433Y-69953577D01*
X148101058Y-70034488D01*
X148000000Y-70117425D01*
X147898942Y-70034488D01*
X147747567Y-69953577D01*
X147583316Y-69903752D01*
X147412500Y-69886928D01*
X146837500Y-69886928D01*
X146666684Y-69903752D01*
X146502433Y-69953577D01*
X146351058Y-70034488D01*
X146218377Y-70143377D01*
X146109488Y-70276058D01*
X146028577Y-70427433D01*
X145978752Y-70591684D01*
X145961928Y-70762500D01*
X145961928Y-71237500D01*
X145978752Y-71408316D01*
X146028577Y-71572567D01*
X146109488Y-71723942D01*
X146218377Y-71856623D01*
X146240000Y-71874369D01*
X146240001Y-73065015D01*
X146198815Y-73098815D01*
X146119463Y-73195506D01*
X146060498Y-73305820D01*
X146024188Y-73425518D01*
X146011928Y-73550000D01*
X146011928Y-75450000D01*
X146024188Y-75574482D01*
X146059042Y-75689380D01*
X145864952Y-75883470D01*
X145831184Y-75911183D01*
X145803471Y-75944951D01*
X145803468Y-75944954D01*
X145720590Y-76045941D01*
X145638412Y-76199687D01*
X145587805Y-76366510D01*
X145570719Y-76540000D01*
X145575001Y-76583479D01*
X145575000Y-84655000D01*
X143194759Y-84655000D01*
X143055134Y-84484866D01*
X143025313Y-84460393D01*
X143094180Y-84439502D01*
X143204494Y-84380537D01*
X143301185Y-84301185D01*
X143380537Y-84204494D01*
X143439502Y-84094180D01*
X143475812Y-83974482D01*
X143488072Y-83850000D01*
X143488072Y-82150000D01*
X143475812Y-82025518D01*
X143439502Y-81905820D01*
X143380537Y-81795506D01*
X143301185Y-81698815D01*
X143204494Y-81619463D01*
X143094180Y-81560498D01*
X142974482Y-81524188D01*
X142885000Y-81515375D01*
X142885000Y-78859981D01*
X142930537Y-78804494D01*
X142989502Y-78694180D01*
X143025812Y-78574482D01*
X143038072Y-78450000D01*
X143038072Y-76550000D01*
X143025812Y-76425518D01*
X142989502Y-76305820D01*
X142930537Y-76195506D01*
X142851185Y-76098815D01*
X142838095Y-76088072D01*
X143350000Y-76088072D01*
X143474482Y-76075812D01*
X143594180Y-76039502D01*
X143704494Y-75980537D01*
X143801185Y-75901185D01*
X143880537Y-75804494D01*
X143939502Y-75694180D01*
X143975812Y-75574482D01*
X143988072Y-75450000D01*
X143988072Y-73550000D01*
X143975812Y-73425518D01*
X143939502Y-73305820D01*
X143880537Y-73195506D01*
X143835000Y-73140019D01*
X143835000Y-71791583D01*
X143890512Y-71723942D01*
X143971423Y-71572567D01*
X144021248Y-71408316D01*
X144038072Y-71237500D01*
X144038072Y-70762500D01*
X144021248Y-70591684D01*
X143971423Y-70427433D01*
X143890512Y-70276058D01*
X143781623Y-70143377D01*
X143648942Y-70034488D01*
X143497567Y-69953577D01*
X143333316Y-69903752D01*
X143162500Y-69886928D01*
X142587500Y-69886928D01*
X142416684Y-69903752D01*
X142252433Y-69953577D01*
X142101058Y-70034488D01*
X142000000Y-70117425D01*
X141898942Y-70034488D01*
X141747567Y-69953577D01*
X141583316Y-69903752D01*
X141412500Y-69886928D01*
X140837500Y-69886928D01*
X140666684Y-69903752D01*
X140502433Y-69953577D01*
X140351058Y-70034488D01*
X140218377Y-70143377D01*
X140109488Y-70276058D01*
X140028577Y-70427433D01*
X139978752Y-70591684D01*
X139961928Y-70762500D01*
X139961928Y-71237500D01*
X139978752Y-71408316D01*
X140028577Y-71572567D01*
X140109488Y-71723942D01*
X140165001Y-71791584D01*
X140165000Y-73140018D01*
X140119463Y-73195506D01*
X140060498Y-73305820D01*
X140024188Y-73425518D01*
X140011928Y-73550000D01*
X140011928Y-75450000D01*
X140024188Y-75574482D01*
X140060498Y-75694180D01*
X140119463Y-75804494D01*
X140165000Y-75859981D01*
X140165001Y-81073419D01*
X140104955Y-81133465D01*
X140071182Y-81161182D01*
X139960588Y-81295941D01*
X139878410Y-81449687D01*
X139859529Y-81511928D01*
X139828721Y-81613488D01*
X139827804Y-81616510D01*
X139814999Y-81746523D01*
X139814999Y-81746530D01*
X139810718Y-81789999D01*
X139814999Y-81833468D01*
X139815000Y-84196520D01*
X139810718Y-84239999D01*
X139827804Y-84413489D01*
X139878411Y-84580312D01*
X139960589Y-84734058D01*
X140043467Y-84835045D01*
X140043470Y-84835048D01*
X140071183Y-84868816D01*
X140104951Y-84896529D01*
X140529388Y-85320966D01*
X140507815Y-85540000D01*
X140536487Y-85831111D01*
X140621401Y-86111034D01*
X140759294Y-86369014D01*
X140944866Y-86595134D01*
X141170986Y-86780706D01*
X141235523Y-86815201D01*
X141118645Y-86884822D01*
X140902412Y-87079731D01*
X140728359Y-87313080D01*
X140603175Y-87575901D01*
X140558524Y-87723110D01*
X140679845Y-87953000D01*
X141873000Y-87953000D01*
X141873000Y-87933000D01*
X142127000Y-87933000D01*
X142127000Y-87953000D01*
X143320155Y-87953000D01*
X143441476Y-87723110D01*
X143396825Y-87575901D01*
X143271641Y-87313080D01*
X143097588Y-87079731D01*
X142881355Y-86884822D01*
X142764477Y-86815201D01*
X142829014Y-86780706D01*
X143055134Y-86595134D01*
X143194759Y-86425000D01*
X146416523Y-86425000D01*
X146460000Y-86429282D01*
X146503476Y-86425000D01*
X146805241Y-86425000D01*
X146944866Y-86595134D01*
X147170986Y-86780706D01*
X147235523Y-86815201D01*
X147118645Y-86884822D01*
X146902412Y-87079731D01*
X146728359Y-87313080D01*
X146603175Y-87575901D01*
X146558524Y-87723110D01*
X146679845Y-87953000D01*
X147873000Y-87953000D01*
X147873000Y-87933000D01*
X148127000Y-87933000D01*
X148127000Y-87953000D01*
X149320155Y-87953000D01*
X149441476Y-87723110D01*
X149396825Y-87575901D01*
X149271641Y-87313080D01*
X149097588Y-87079731D01*
X148881355Y-86884822D01*
X148764477Y-86815201D01*
X148829014Y-86780706D01*
X149055134Y-86595134D01*
X149194759Y-86425000D01*
X152416523Y-86425000D01*
X152460000Y-86429282D01*
X152503476Y-86425000D01*
X152805241Y-86425000D01*
X152944866Y-86595134D01*
X153170986Y-86780706D01*
X153235523Y-86815201D01*
X153118645Y-86884822D01*
X152902412Y-87079731D01*
X152728359Y-87313080D01*
X152603175Y-87575901D01*
X152558524Y-87723110D01*
X152679845Y-87953000D01*
X153873000Y-87953000D01*
X153873000Y-87933000D01*
X154127000Y-87933000D01*
X154127000Y-87953000D01*
X155320155Y-87953000D01*
X155441476Y-87723110D01*
X155396825Y-87575901D01*
X155271641Y-87313080D01*
X155097588Y-87079731D01*
X154881355Y-86884822D01*
X154764477Y-86815201D01*
X154829014Y-86780706D01*
X155055134Y-86595134D01*
X155194759Y-86425000D01*
X158416523Y-86425000D01*
X158460000Y-86429282D01*
X158503476Y-86425000D01*
X158780242Y-86425000D01*
X158919867Y-86595134D01*
X159145987Y-86780706D01*
X159210524Y-86815201D01*
X159093646Y-86884822D01*
X158877413Y-87079731D01*
X158703360Y-87313080D01*
X158578176Y-87575901D01*
X158533525Y-87723110D01*
X158654846Y-87953000D01*
X159848001Y-87953000D01*
X159848001Y-87933000D01*
X160102001Y-87933000D01*
X160102001Y-87953000D01*
X161295156Y-87953000D01*
X161416477Y-87723110D01*
X161371826Y-87575901D01*
X161246642Y-87313080D01*
X161072589Y-87079731D01*
X160856356Y-86884822D01*
X160739478Y-86815201D01*
X160804015Y-86780706D01*
X161030135Y-86595134D01*
X161169760Y-86425000D01*
X164496523Y-86425000D01*
X164540000Y-86429282D01*
X164583476Y-86425000D01*
X164805241Y-86425000D01*
X164944866Y-86595134D01*
X165170986Y-86780706D01*
X165235523Y-86815201D01*
X165118645Y-86884822D01*
X164902412Y-87079731D01*
X164728359Y-87313080D01*
X164603175Y-87575901D01*
X164558524Y-87723110D01*
X164679845Y-87953000D01*
X165873000Y-87953000D01*
X165873000Y-87933000D01*
X166127000Y-87933000D01*
X166127000Y-87953000D01*
X167320155Y-87953000D01*
X167441476Y-87723110D01*
X167396825Y-87575901D01*
X167271641Y-87313080D01*
X167097588Y-87079731D01*
X166881355Y-86884822D01*
X166764477Y-86815201D01*
X166829014Y-86780706D01*
X167055134Y-86595134D01*
X167194759Y-86425000D01*
X170416523Y-86425000D01*
X170460000Y-86429282D01*
X170503476Y-86425000D01*
X170805241Y-86425000D01*
X170944866Y-86595134D01*
X171170986Y-86780706D01*
X171235523Y-86815201D01*
X171118645Y-86884822D01*
X170902412Y-87079731D01*
X170728359Y-87313080D01*
X170603175Y-87575901D01*
X170558524Y-87723110D01*
X170679845Y-87953000D01*
X171873000Y-87953000D01*
X171873000Y-87933000D01*
X172127000Y-87933000D01*
X172127000Y-87953000D01*
X173320155Y-87953000D01*
X173441476Y-87723110D01*
X173396825Y-87575901D01*
X173271641Y-87313080D01*
X173097588Y-87079731D01*
X172881355Y-86884822D01*
X172764477Y-86815201D01*
X172829014Y-86780706D01*
X173055134Y-86595134D01*
X173194759Y-86425000D01*
X176496523Y-86425000D01*
X176540000Y-86429282D01*
X176583476Y-86425000D01*
X176805241Y-86425000D01*
X176944866Y-86595134D01*
X177170986Y-86780706D01*
X177235523Y-86815201D01*
X177118645Y-86884822D01*
X176902412Y-87079731D01*
X176728359Y-87313080D01*
X176603175Y-87575901D01*
X176558524Y-87723110D01*
X176679845Y-87953000D01*
X177873000Y-87953000D01*
X177873000Y-87933000D01*
X178127000Y-87933000D01*
X178127000Y-87953000D01*
X179320155Y-87953000D01*
X179441476Y-87723110D01*
X179396825Y-87575901D01*
X179271641Y-87313080D01*
X179097588Y-87079731D01*
X178881355Y-86884822D01*
X178764477Y-86815201D01*
X178829014Y-86780706D01*
X179055134Y-86595134D01*
X179194759Y-86425000D01*
X182496523Y-86425000D01*
X182540000Y-86429282D01*
X182583476Y-86425000D01*
X182805241Y-86425000D01*
X182944866Y-86595134D01*
X183170986Y-86780706D01*
X183235523Y-86815201D01*
X183118645Y-86884822D01*
X182902412Y-87079731D01*
X182728359Y-87313080D01*
X182603175Y-87575901D01*
X182558524Y-87723110D01*
X182679845Y-87953000D01*
X183873000Y-87953000D01*
X183873000Y-87933000D01*
X184127000Y-87933000D01*
X184127000Y-87953000D01*
X185320155Y-87953000D01*
X185441476Y-87723110D01*
X185396825Y-87575901D01*
X185271641Y-87313080D01*
X185097588Y-87079731D01*
X184881355Y-86884822D01*
X184764477Y-86815201D01*
X184829014Y-86780706D01*
X185055134Y-86595134D01*
X185194759Y-86425000D01*
X188416523Y-86425000D01*
X188460000Y-86429282D01*
X188503476Y-86425000D01*
X188805241Y-86425000D01*
X188944866Y-86595134D01*
X189170986Y-86780706D01*
X189235523Y-86815201D01*
X189118645Y-86884822D01*
X188902412Y-87079731D01*
X188728359Y-87313080D01*
X188603175Y-87575901D01*
X188558524Y-87723110D01*
X188679845Y-87953000D01*
X189873000Y-87953000D01*
X189873000Y-87933000D01*
X190127000Y-87933000D01*
X190127000Y-87953000D01*
X191320155Y-87953000D01*
X191441476Y-87723110D01*
X191396825Y-87575901D01*
X191271641Y-87313080D01*
X191097588Y-87079731D01*
X190881355Y-86884822D01*
X190764477Y-86815201D01*
X190829014Y-86780706D01*
X191055134Y-86595134D01*
X191194759Y-86425000D01*
X193416524Y-86425000D01*
X193460000Y-86429282D01*
X193503477Y-86425000D01*
X194805241Y-86425000D01*
X194944866Y-86595134D01*
X195170986Y-86780706D01*
X195235523Y-86815201D01*
X195118645Y-86884822D01*
X194902412Y-87079731D01*
X194728359Y-87313080D01*
X194603175Y-87575901D01*
X194558524Y-87723110D01*
X194679845Y-87953000D01*
X195873000Y-87953000D01*
X195873000Y-87933000D01*
X196127000Y-87933000D01*
X196127000Y-87953000D01*
X196147000Y-87953000D01*
X196147000Y-88207000D01*
X196127000Y-88207000D01*
X196127000Y-89400814D01*
X196356891Y-89521481D01*
X196631252Y-89424157D01*
X196881355Y-89275178D01*
X197097588Y-89080269D01*
X197115000Y-89056925D01*
X197115001Y-97115000D01*
X187486579Y-97115000D01*
X187595050Y-97006529D01*
X187628817Y-96978817D01*
X187739411Y-96844059D01*
X187821589Y-96690313D01*
X187872195Y-96523490D01*
X187875935Y-96485518D01*
X187974482Y-96475812D01*
X188094180Y-96439502D01*
X188204494Y-96380537D01*
X188301185Y-96301185D01*
X188380537Y-96204494D01*
X188439502Y-96094180D01*
X188475812Y-95974482D01*
X188488072Y-95850000D01*
X188488072Y-94150000D01*
X188475812Y-94025518D01*
X188439502Y-93905820D01*
X188380537Y-93795506D01*
X188301185Y-93698815D01*
X188204494Y-93619463D01*
X188094180Y-93560498D01*
X187974482Y-93524188D01*
X187850000Y-93511928D01*
X186150000Y-93511928D01*
X186025518Y-93524188D01*
X185905820Y-93560498D01*
X185795506Y-93619463D01*
X185698815Y-93698815D01*
X185619463Y-93795506D01*
X185560498Y-93905820D01*
X185536034Y-93986466D01*
X185460269Y-93902412D01*
X185226920Y-93728359D01*
X184964099Y-93603175D01*
X184816890Y-93558524D01*
X184587000Y-93679845D01*
X184587000Y-94873000D01*
X184607000Y-94873000D01*
X184607000Y-95127000D01*
X184587000Y-95127000D01*
X184587000Y-96320155D01*
X184816890Y-96441476D01*
X184964099Y-96396825D01*
X185226920Y-96271641D01*
X185460269Y-96097588D01*
X185536034Y-96013534D01*
X185560498Y-96094180D01*
X185619463Y-96204494D01*
X185698815Y-96301185D01*
X185752873Y-96345549D01*
X184983422Y-97115000D01*
X167146579Y-97115000D01*
X166250612Y-96219034D01*
X166272185Y-96000000D01*
X166243513Y-95708889D01*
X166158599Y-95428966D01*
X166120075Y-95356891D01*
X183018519Y-95356891D01*
X183115843Y-95631252D01*
X183264822Y-95881355D01*
X183459731Y-96097588D01*
X183693080Y-96271641D01*
X183955901Y-96396825D01*
X184103110Y-96441476D01*
X184333000Y-96320155D01*
X184333000Y-95127000D01*
X183139186Y-95127000D01*
X183018519Y-95356891D01*
X166120075Y-95356891D01*
X166020706Y-95170986D01*
X165835134Y-94944866D01*
X165609014Y-94759294D01*
X165551244Y-94728416D01*
X165665613Y-94643109D01*
X183018519Y-94643109D01*
X183139186Y-94873000D01*
X184333000Y-94873000D01*
X184333000Y-93679845D01*
X184103110Y-93558524D01*
X183955901Y-93603175D01*
X183693080Y-93728359D01*
X183459731Y-93902412D01*
X183264822Y-94118645D01*
X183115843Y-94368748D01*
X183018519Y-94643109D01*
X165665613Y-94643109D01*
X165780269Y-94557588D01*
X165975178Y-94341355D01*
X166124157Y-94091252D01*
X166221481Y-93816891D01*
X166100814Y-93587000D01*
X164907000Y-93587000D01*
X164907000Y-93607000D01*
X164653000Y-93607000D01*
X164653000Y-93587000D01*
X162367000Y-93587000D01*
X162367000Y-93607000D01*
X162113000Y-93607000D01*
X162113000Y-93587000D01*
X159827000Y-93587000D01*
X159827000Y-93607000D01*
X159573000Y-93607000D01*
X159573000Y-93587000D01*
X157287000Y-93587000D01*
X157287000Y-93607000D01*
X157033000Y-93607000D01*
X157033000Y-93587000D01*
X154747000Y-93587000D01*
X154747000Y-93607000D01*
X154493000Y-93607000D01*
X154493000Y-93587000D01*
X152207000Y-93587000D01*
X152207000Y-93607000D01*
X151953000Y-93607000D01*
X151953000Y-93587000D01*
X149667000Y-93587000D01*
X149667000Y-93607000D01*
X149413000Y-93607000D01*
X149413000Y-93587000D01*
X147127000Y-93587000D01*
X147127000Y-93607000D01*
X146873000Y-93607000D01*
X146873000Y-93587000D01*
X145679186Y-93587000D01*
X145558519Y-93816891D01*
X145655843Y-94091252D01*
X145804822Y-94341355D01*
X145981626Y-94537502D01*
X145905820Y-94560498D01*
X145795506Y-94619463D01*
X145698815Y-94698815D01*
X145619463Y-94795506D01*
X145560498Y-94905820D01*
X145524188Y-95025518D01*
X145511928Y-95150000D01*
X145511928Y-96850000D01*
X145524188Y-96974482D01*
X145560498Y-97094180D01*
X145619463Y-97204494D01*
X145698815Y-97301185D01*
X145795506Y-97380537D01*
X145905820Y-97439502D01*
X146025518Y-97475812D01*
X146150000Y-97488072D01*
X147850000Y-97488072D01*
X147974482Y-97475812D01*
X148094180Y-97439502D01*
X148204494Y-97380537D01*
X148301185Y-97301185D01*
X148380537Y-97204494D01*
X148439502Y-97094180D01*
X148460393Y-97025313D01*
X148484866Y-97055134D01*
X148710986Y-97240706D01*
X148968966Y-97378599D01*
X149248889Y-97463513D01*
X149467050Y-97485000D01*
X149612950Y-97485000D01*
X149831111Y-97463513D01*
X150111034Y-97378599D01*
X150369014Y-97240706D01*
X150595134Y-97055134D01*
X150734759Y-96885000D01*
X150885241Y-96885000D01*
X151024866Y-97055134D01*
X151250986Y-97240706D01*
X151508966Y-97378599D01*
X151788889Y-97463513D01*
X152007050Y-97485000D01*
X152152950Y-97485000D01*
X152371111Y-97463513D01*
X152651034Y-97378599D01*
X152909014Y-97240706D01*
X153135134Y-97055134D01*
X153274759Y-96885000D01*
X153425241Y-96885000D01*
X153564866Y-97055134D01*
X153790986Y-97240706D01*
X154048966Y-97378599D01*
X154328889Y-97463513D01*
X154547050Y-97485000D01*
X154692950Y-97485000D01*
X154911111Y-97463513D01*
X155191034Y-97378599D01*
X155449014Y-97240706D01*
X155675134Y-97055134D01*
X155814759Y-96885000D01*
X155965241Y-96885000D01*
X156104866Y-97055134D01*
X156330986Y-97240706D01*
X156588966Y-97378599D01*
X156868889Y-97463513D01*
X157087050Y-97485000D01*
X157232950Y-97485000D01*
X157451111Y-97463513D01*
X157731034Y-97378599D01*
X157989014Y-97240706D01*
X158215134Y-97055134D01*
X158354759Y-96885000D01*
X158505241Y-96885000D01*
X158644866Y-97055134D01*
X158870986Y-97240706D01*
X159128966Y-97378599D01*
X159408889Y-97463513D01*
X159627050Y-97485000D01*
X159772950Y-97485000D01*
X159991111Y-97463513D01*
X160271034Y-97378599D01*
X160529014Y-97240706D01*
X160755134Y-97055134D01*
X160894759Y-96885000D01*
X161045241Y-96885000D01*
X161184866Y-97055134D01*
X161410986Y-97240706D01*
X161668966Y-97378599D01*
X161948889Y-97463513D01*
X162167050Y-97485000D01*
X162312950Y-97485000D01*
X162531111Y-97463513D01*
X162811034Y-97378599D01*
X163069014Y-97240706D01*
X163295134Y-97055134D01*
X163434759Y-96885000D01*
X163585241Y-96885000D01*
X163724866Y-97055134D01*
X163950986Y-97240706D01*
X164208966Y-97378599D01*
X164488889Y-97463513D01*
X164707050Y-97485000D01*
X164852950Y-97485000D01*
X164999034Y-97470612D01*
X165843421Y-98315000D01*
X139685000Y-98315000D01*
X139685000Y-93103109D01*
X145558519Y-93103109D01*
X145679186Y-93333000D01*
X146873000Y-93333000D01*
X146873000Y-92139845D01*
X147127000Y-92139845D01*
X147127000Y-93333000D01*
X149413000Y-93333000D01*
X149413000Y-92139845D01*
X149667000Y-92139845D01*
X149667000Y-93333000D01*
X151953000Y-93333000D01*
X151953000Y-92139845D01*
X152207000Y-92139845D01*
X152207000Y-93333000D01*
X154493000Y-93333000D01*
X154493000Y-92139845D01*
X154747000Y-92139845D01*
X154747000Y-93333000D01*
X157033000Y-93333000D01*
X157033000Y-92139845D01*
X157287000Y-92139845D01*
X157287000Y-93333000D01*
X159573000Y-93333000D01*
X159573000Y-92139845D01*
X159827000Y-92139845D01*
X159827000Y-93333000D01*
X162113000Y-93333000D01*
X162113000Y-92139845D01*
X162367000Y-92139845D01*
X162367000Y-93333000D01*
X164653000Y-93333000D01*
X164653000Y-92139845D01*
X164907000Y-92139845D01*
X164907000Y-93333000D01*
X166100814Y-93333000D01*
X166221481Y-93103109D01*
X166124157Y-92828748D01*
X165975178Y-92578645D01*
X165780269Y-92362412D01*
X165546920Y-92188359D01*
X165284099Y-92063175D01*
X165136890Y-92018524D01*
X164907000Y-92139845D01*
X164653000Y-92139845D01*
X164423110Y-92018524D01*
X164275901Y-92063175D01*
X164013080Y-92188359D01*
X163779731Y-92362412D01*
X163584822Y-92578645D01*
X163510000Y-92704255D01*
X163435178Y-92578645D01*
X163240269Y-92362412D01*
X163006920Y-92188359D01*
X162744099Y-92063175D01*
X162596890Y-92018524D01*
X162367000Y-92139845D01*
X162113000Y-92139845D01*
X161883110Y-92018524D01*
X161735901Y-92063175D01*
X161473080Y-92188359D01*
X161239731Y-92362412D01*
X161044822Y-92578645D01*
X160970000Y-92704255D01*
X160895178Y-92578645D01*
X160700269Y-92362412D01*
X160466920Y-92188359D01*
X160204099Y-92063175D01*
X160056890Y-92018524D01*
X159827000Y-92139845D01*
X159573000Y-92139845D01*
X159343110Y-92018524D01*
X159195901Y-92063175D01*
X158933080Y-92188359D01*
X158699731Y-92362412D01*
X158504822Y-92578645D01*
X158430000Y-92704255D01*
X158355178Y-92578645D01*
X158160269Y-92362412D01*
X157926920Y-92188359D01*
X157664099Y-92063175D01*
X157516890Y-92018524D01*
X157287000Y-92139845D01*
X157033000Y-92139845D01*
X156803110Y-92018524D01*
X156655901Y-92063175D01*
X156393080Y-92188359D01*
X156159731Y-92362412D01*
X155964822Y-92578645D01*
X155890000Y-92704255D01*
X155815178Y-92578645D01*
X155620269Y-92362412D01*
X155386920Y-92188359D01*
X155124099Y-92063175D01*
X154976890Y-92018524D01*
X154747000Y-92139845D01*
X154493000Y-92139845D01*
X154263110Y-92018524D01*
X154115901Y-92063175D01*
X153853080Y-92188359D01*
X153619731Y-92362412D01*
X153424822Y-92578645D01*
X153350000Y-92704255D01*
X153275178Y-92578645D01*
X153080269Y-92362412D01*
X152846920Y-92188359D01*
X152584099Y-92063175D01*
X152436890Y-92018524D01*
X152207000Y-92139845D01*
X151953000Y-92139845D01*
X151723110Y-92018524D01*
X151575901Y-92063175D01*
X151313080Y-92188359D01*
X151079731Y-92362412D01*
X150884822Y-92578645D01*
X150810000Y-92704255D01*
X150735178Y-92578645D01*
X150540269Y-92362412D01*
X150306920Y-92188359D01*
X150044099Y-92063175D01*
X149896890Y-92018524D01*
X149667000Y-92139845D01*
X149413000Y-92139845D01*
X149183110Y-92018524D01*
X149035901Y-92063175D01*
X148773080Y-92188359D01*
X148539731Y-92362412D01*
X148344822Y-92578645D01*
X148270000Y-92704255D01*
X148195178Y-92578645D01*
X148000269Y-92362412D01*
X147766920Y-92188359D01*
X147504099Y-92063175D01*
X147356890Y-92018524D01*
X147127000Y-92139845D01*
X146873000Y-92139845D01*
X146643110Y-92018524D01*
X146495901Y-92063175D01*
X146233080Y-92188359D01*
X145999731Y-92362412D01*
X145804822Y-92578645D01*
X145655843Y-92828748D01*
X145558519Y-93103109D01*
X139685000Y-93103109D01*
X139685000Y-88436890D01*
X140558524Y-88436890D01*
X140603175Y-88584099D01*
X140728359Y-88846920D01*
X140902412Y-89080269D01*
X141118645Y-89275178D01*
X141368748Y-89424157D01*
X141643109Y-89521481D01*
X141873000Y-89400814D01*
X141873000Y-88207000D01*
X142127000Y-88207000D01*
X142127000Y-89400814D01*
X142356891Y-89521481D01*
X142631252Y-89424157D01*
X142881355Y-89275178D01*
X143097588Y-89080269D01*
X143271641Y-88846920D01*
X143396825Y-88584099D01*
X143441476Y-88436890D01*
X146558524Y-88436890D01*
X146603175Y-88584099D01*
X146728359Y-88846920D01*
X146902412Y-89080269D01*
X147118645Y-89275178D01*
X147368748Y-89424157D01*
X147643109Y-89521481D01*
X147873000Y-89400814D01*
X147873000Y-88207000D01*
X148127000Y-88207000D01*
X148127000Y-89400814D01*
X148356891Y-89521481D01*
X148631252Y-89424157D01*
X148881355Y-89275178D01*
X149097588Y-89080269D01*
X149271641Y-88846920D01*
X149396825Y-88584099D01*
X149441476Y-88436890D01*
X152558524Y-88436890D01*
X152603175Y-88584099D01*
X152728359Y-88846920D01*
X152902412Y-89080269D01*
X153118645Y-89275178D01*
X153368748Y-89424157D01*
X153643109Y-89521481D01*
X153873000Y-89400814D01*
X153873000Y-88207000D01*
X154127000Y-88207000D01*
X154127000Y-89400814D01*
X154356891Y-89521481D01*
X154631252Y-89424157D01*
X154881355Y-89275178D01*
X155097588Y-89080269D01*
X155271641Y-88846920D01*
X155396825Y-88584099D01*
X155441476Y-88436890D01*
X158533525Y-88436890D01*
X158578176Y-88584099D01*
X158703360Y-88846920D01*
X158877413Y-89080269D01*
X159093646Y-89275178D01*
X159343749Y-89424157D01*
X159618110Y-89521481D01*
X159848001Y-89400814D01*
X159848001Y-88207000D01*
X160102001Y-88207000D01*
X160102001Y-89400814D01*
X160331892Y-89521481D01*
X160606253Y-89424157D01*
X160856356Y-89275178D01*
X161072589Y-89080269D01*
X161246642Y-88846920D01*
X161371826Y-88584099D01*
X161416477Y-88436890D01*
X164558524Y-88436890D01*
X164603175Y-88584099D01*
X164728359Y-88846920D01*
X164902412Y-89080269D01*
X165118645Y-89275178D01*
X165368748Y-89424157D01*
X165643109Y-89521481D01*
X165873000Y-89400814D01*
X165873000Y-88207000D01*
X166127000Y-88207000D01*
X166127000Y-89400814D01*
X166356891Y-89521481D01*
X166631252Y-89424157D01*
X166881355Y-89275178D01*
X167097588Y-89080269D01*
X167271641Y-88846920D01*
X167396825Y-88584099D01*
X167441476Y-88436890D01*
X170558524Y-88436890D01*
X170603175Y-88584099D01*
X170728359Y-88846920D01*
X170902412Y-89080269D01*
X171118645Y-89275178D01*
X171368748Y-89424157D01*
X171643109Y-89521481D01*
X171873000Y-89400814D01*
X171873000Y-88207000D01*
X172127000Y-88207000D01*
X172127000Y-89400814D01*
X172356891Y-89521481D01*
X172631252Y-89424157D01*
X172881355Y-89275178D01*
X173097588Y-89080269D01*
X173271641Y-88846920D01*
X173396825Y-88584099D01*
X173441476Y-88436890D01*
X176558524Y-88436890D01*
X176603175Y-88584099D01*
X176728359Y-88846920D01*
X176902412Y-89080269D01*
X177118645Y-89275178D01*
X177368748Y-89424157D01*
X177643109Y-89521481D01*
X177873000Y-89400814D01*
X177873000Y-88207000D01*
X178127000Y-88207000D01*
X178127000Y-89400814D01*
X178356891Y-89521481D01*
X178631252Y-89424157D01*
X178881355Y-89275178D01*
X179097588Y-89080269D01*
X179271641Y-88846920D01*
X179396825Y-88584099D01*
X179441476Y-88436890D01*
X182558524Y-88436890D01*
X182603175Y-88584099D01*
X182728359Y-88846920D01*
X182902412Y-89080269D01*
X183118645Y-89275178D01*
X183368748Y-89424157D01*
X183643109Y-89521481D01*
X183873000Y-89400814D01*
X183873000Y-88207000D01*
X184127000Y-88207000D01*
X184127000Y-89400814D01*
X184356891Y-89521481D01*
X184631252Y-89424157D01*
X184881355Y-89275178D01*
X185097588Y-89080269D01*
X185271641Y-88846920D01*
X185396825Y-88584099D01*
X185441476Y-88436890D01*
X188558524Y-88436890D01*
X188603175Y-88584099D01*
X188728359Y-88846920D01*
X188902412Y-89080269D01*
X189118645Y-89275178D01*
X189368748Y-89424157D01*
X189643109Y-89521481D01*
X189873000Y-89400814D01*
X189873000Y-88207000D01*
X190127000Y-88207000D01*
X190127000Y-89400814D01*
X190356891Y-89521481D01*
X190631252Y-89424157D01*
X190881355Y-89275178D01*
X191097588Y-89080269D01*
X191271641Y-88846920D01*
X191396825Y-88584099D01*
X191441476Y-88436890D01*
X194558524Y-88436890D01*
X194603175Y-88584099D01*
X194728359Y-88846920D01*
X194902412Y-89080269D01*
X195118645Y-89275178D01*
X195368748Y-89424157D01*
X195643109Y-89521481D01*
X195873000Y-89400814D01*
X195873000Y-88207000D01*
X194679845Y-88207000D01*
X194558524Y-88436890D01*
X191441476Y-88436890D01*
X191320155Y-88207000D01*
X190127000Y-88207000D01*
X189873000Y-88207000D01*
X188679845Y-88207000D01*
X188558524Y-88436890D01*
X185441476Y-88436890D01*
X185320155Y-88207000D01*
X184127000Y-88207000D01*
X183873000Y-88207000D01*
X182679845Y-88207000D01*
X182558524Y-88436890D01*
X179441476Y-88436890D01*
X179320155Y-88207000D01*
X178127000Y-88207000D01*
X177873000Y-88207000D01*
X176679845Y-88207000D01*
X176558524Y-88436890D01*
X173441476Y-88436890D01*
X173320155Y-88207000D01*
X172127000Y-88207000D01*
X171873000Y-88207000D01*
X170679845Y-88207000D01*
X170558524Y-88436890D01*
X167441476Y-88436890D01*
X167320155Y-88207000D01*
X166127000Y-88207000D01*
X165873000Y-88207000D01*
X164679845Y-88207000D01*
X164558524Y-88436890D01*
X161416477Y-88436890D01*
X161295156Y-88207000D01*
X160102001Y-88207000D01*
X159848001Y-88207000D01*
X158654846Y-88207000D01*
X158533525Y-88436890D01*
X155441476Y-88436890D01*
X155320155Y-88207000D01*
X154127000Y-88207000D01*
X153873000Y-88207000D01*
X152679845Y-88207000D01*
X152558524Y-88436890D01*
X149441476Y-88436890D01*
X149320155Y-88207000D01*
X148127000Y-88207000D01*
X147873000Y-88207000D01*
X146679845Y-88207000D01*
X146558524Y-88436890D01*
X143441476Y-88436890D01*
X143320155Y-88207000D01*
X142127000Y-88207000D01*
X141873000Y-88207000D01*
X140679845Y-88207000D01*
X140558524Y-88436890D01*
X139685000Y-88436890D01*
X139685000Y-66685000D01*
X198315001Y-66685000D01*
X198315000Y-85063422D01*
M02*
